<svg xmlns="http://www.w3.org/2000/svg" width="26" height="24" viewBox="0 0 26 24" fill="none">
  <path fill-rule="evenodd" clip-rule="evenodd" d="M22.742 14.7352C23.1748 14.7662 23.4986 15.1272 23.4662 15.5402L23.267 18.0492C23.1025 20.1192 21.2716 21.7402 19.097 21.7402H6.94024C4.76564 21.7402 2.93478 20.1192 2.77024 18.0492L2.57112 15.5402C2.53864 15.1272 2.86352 14.7662 3.29634 14.7352C3.73126 14.7202 4.10644 15.0132 4.13998 15.4272L4.33805 17.9352C4.44076 19.2272 5.58308 20.2402 6.94024 20.2402H19.097C20.4542 20.2402 21.5976 19.2272 21.6992 17.9352L21.8983 15.4272C21.9319 15.0132 22.3165 14.7192 22.742 14.7352ZM14.3708 2.00009C15.9458 2.00009 17.2507 3.12636 17.4473 4.57912L19.5113 4.57999C21.7079 4.57999 23.4937 6.28899 23.4937 8.39099V11.83C23.4937 12.097 23.3449 12.343 23.1049 12.477C20.5181 13.9225 17.2413 14.7656 13.8045 14.8781L13.8048 16.6767C13.8048 17.0907 13.4527 17.4267 13.0188 17.4267C12.585 17.4267 12.2328 17.0907 12.2328 16.6767L12.2322 14.8783C8.79885 14.7669 5.52172 13.9236 2.933 12.477C2.69196 12.343 2.54419 12.097 2.54419 11.83V8.38099C2.54419 6.28499 4.33522 4.57999 6.53707 4.57999L8.59043 4.57912C8.78696 3.12636 10.0918 2.00009 11.6669 2.00009H14.3708ZM19.5113 6.07999H6.53707C5.20192 6.07999 4.11619 7.11199 4.11619 8.38099V11.393C6.60384 12.6827 9.74 13.3896 13.0043 13.391L13.0188 13.3897L13.0305 13.3901L13.5295 13.3851C16.6167 13.315 19.5617 12.616 21.9217 11.393V8.39099C21.9217 7.11599 20.8412 6.07999 19.5113 6.07999ZM14.3708 3.50009H11.6669C10.9613 3.50009 10.3656 3.95836 10.1896 4.57937H15.8481C15.6721 3.95836 15.0764 3.50009 14.3708 3.50009Z" fill="black" fill-opacity="0.7"/>
</svg>