<svg xmlns="http://www.w3.org/2000/svg" width="26" height="24" viewBox="0 0 26 24" fill="none">
  <path fill-rule="evenodd" clip-rule="evenodd" d="M22.294 14.7352C22.7268 14.7662 23.0506 15.1272 23.0182 15.5402L22.819 18.0492C22.6545 20.1192 20.8236 21.7402 18.649 21.7402H6.49224C4.31764 21.7402 2.48678 20.1192 2.32225 18.0492L2.12313 15.5402C2.09064 15.1272 2.41552 14.7662 2.84834 14.7352C3.28326 14.7202 3.65845 15.0132 3.69198 15.4272L3.89005 17.9352C3.99276 19.2272 5.13508 20.2402 6.49224 20.2402H18.649C20.0062 20.2402 21.1496 19.2272 21.2512 17.9352L21.4503 15.4272C21.4839 15.0132 21.8685 14.7192 22.294 14.7352ZM13.9228 2.00012C15.4979 2.00012 16.8027 3.12639 16.9993 4.57915L19.0633 4.58002C21.2599 4.58002 23.0457 6.28902 23.0457 8.39102V11.83C23.0457 12.097 22.8969 12.343 22.6569 12.477C20.0701 13.9225 16.7933 14.7656 13.3565 14.8781L13.3568 16.6767C13.3568 17.0907 13.0047 17.4267 12.5708 17.4267C12.137 17.4267 11.7848 17.0907 11.7848 16.6767L11.7842 14.8783C8.35085 14.7669 5.07372 13.9236 2.485 12.477C2.24396 12.343 2.09619 12.097 2.09619 11.83V8.38102C2.09619 6.28502 3.88722 4.58002 6.08907 4.58002L8.14243 4.57915C8.33896 3.12639 9.64385 2.00012 11.2189 2.00012H13.9228ZM13.9228 3.50012H11.2189C10.5133 3.50012 9.91758 3.9584 9.74162 4.5794H15.4001C15.2241 3.9584 14.6284 3.50012 13.9228 3.50012Z" fill="#0A6375"/>
</svg>