<svg xmlns="http://www.w3.org/2000/svg" width="26" height="24" viewBox="0 0 26 24" fill="none">
  <path fill-rule="evenodd" clip-rule="evenodd" d="M6.92592 13C11.1902 13 11.3799 14.38 11.3799 17.25C11.3799 18.688 11.3799 19.711 10.7469 20.46C10.0186 21.323 8.69285 21.5 6.92592 21.5C5.159 21.5 3.83328 21.323 3.10492 20.46C2.47192 19.711 2.47192 18.689 2.47192 17.275L3.25792 17.25H2.47192C2.47192 14.38 2.66161 13 6.92592 13ZM18.4539 13C22.7182 13 22.9079 14.38 22.9079 17.25C22.9079 18.688 22.9079 19.711 22.2749 20.46C21.5466 21.323 20.2209 21.5 18.4539 21.5C16.687 21.5 15.3613 21.323 14.6329 20.46C13.9999 19.711 13.9999 18.689 13.9999 17.275L14.7859 17.25H13.9999C13.9999 14.38 14.1896 13 18.4539 13ZM7.14198 14.5004L6.92592 14.5C4.19172 14.5 4.0515 14.6872 4.04431 16.877L4.04475 17.7302C4.04972 18.6011 4.0845 19.2303 4.32793 19.52C4.60565 19.848 5.43043 20 6.92592 20C8.42142 20 9.2462 19.847 9.52392 19.519C9.80792 19.182 9.80792 18.382 9.80792 17.274C9.80792 14.7738 9.80792 14.5122 7.14198 14.5004ZM18.67 14.5004L18.4539 14.5C15.7197 14.5 15.5795 14.6872 15.5723 16.877L15.5728 17.7302C15.5777 18.6011 15.6125 19.2303 15.8559 19.52C16.1337 19.848 16.9584 20 18.4539 20C19.9494 20 20.7742 19.847 21.0519 19.519C21.3359 19.182 21.3359 18.382 21.3359 17.274C21.3359 14.7738 21.3359 14.5122 18.67 14.5004ZM6.92592 2C11.1902 2 11.3799 3.38 11.3799 6.25C11.3799 7.688 11.3799 8.711 10.7469 9.46C10.0186 10.323 8.69285 10.5 6.92592 10.5C5.159 10.5 3.83328 10.323 3.10492 9.46C2.47192 8.711 2.47192 7.689 2.47192 6.275L3.25792 6.25H2.47192C2.47192 3.38 2.66161 2 6.92592 2ZM18.4539 2C22.7182 2 22.9079 3.38 22.9079 6.25C22.9079 7.688 22.9079 8.711 22.2749 9.46C21.5466 10.323 20.2209 10.5 18.4539 10.5C16.687 10.5 15.3613 10.323 14.6329 9.46C13.9999 8.711 13.9999 7.689 13.9999 6.275L14.7859 6.25H13.9999C13.9999 3.38 14.1896 2 18.4539 2ZM7.14198 3.50045L6.92592 3.5C4.19172 3.5 4.0515 3.68721 4.04431 5.87705L4.04475 6.73018C4.04972 7.60114 4.0845 8.23028 4.32793 8.52C4.60565 8.848 5.43043 9 6.92592 9C8.42142 9 9.2462 8.847 9.52392 8.519C9.80792 8.182 9.80792 7.382 9.80792 6.274C9.80792 3.77379 9.80792 3.51222 7.14198 3.50045ZM18.67 3.50045L18.4539 3.5C15.7197 3.5 15.5795 3.68721 15.5723 5.87705L15.5728 6.73018C15.5777 7.60114 15.6125 8.23028 15.8559 8.52C16.1337 8.848 16.9584 9 18.4539 9C19.9494 9 20.7742 8.847 21.0519 8.519C21.3359 8.182 21.3359 7.382 21.3359 6.274C21.3359 3.77379 21.3359 3.51222 18.67 3.50045Z" fill="black" fill-opacity="0.7"/>
</svg>