<svg xmlns="http://www.w3.org/2000/svg" width="26" height="24" viewBox="0 0 26 24" fill="none">
  <path fill-rule="evenodd" clip-rule="evenodd" d="M7.454 13C11.7183 13 11.908 14.38 11.908 17.25C11.908 18.688 11.908 19.711 11.275 20.46C10.5466 21.323 9.22093 21.5 7.454 21.5C5.68707 21.5 4.36135 21.323 3.63299 20.46C3 19.711 3 18.689 3 17.275L3.786 17.25H3C3 14.38 3.18969 13 7.454 13ZM18.982 13C23.2463 13 23.436 14.38 23.436 17.25C23.436 18.688 23.436 19.711 22.803 20.46C22.0746 21.323 20.7489 21.5 18.982 21.5C17.2151 21.5 15.8894 21.323 15.161 20.46C14.528 19.711 14.528 18.689 14.528 17.275L15.314 17.25H14.528C14.528 14.38 14.7177 13 18.982 13ZM7.454 2C11.7183 2 11.908 3.38 11.908 6.25C11.908 7.688 11.908 8.711 11.275 9.46C10.5466 10.323 9.22093 10.5 7.454 10.5C5.68707 10.5 4.36135 10.323 3.63299 9.46C3 8.711 3 7.689 3 6.275L3.786 6.25H3C3 3.38 3.18969 2 7.454 2ZM18.982 2C23.2463 2 23.436 3.38 23.436 6.25C23.436 7.688 23.436 8.711 22.803 9.46C22.0746 10.323 20.7489 10.5 18.982 10.5C17.2151 10.5 15.8894 10.323 15.161 9.46C14.528 8.711 14.528 7.689 14.528 6.275L15.314 6.25H14.528C14.528 3.38 14.7177 2 18.982 2Z" fill="#0A6375"/>
</svg>