<svg xmlns="http://www.w3.org/2000/svg" width="26" height="24" viewBox="0 0 26 24" fill="none">
  <path d="M9.87732 20.7733V17.7156C9.87732 16.9351 10.5453 16.3023 11.3693 16.3023H14.3814C14.7771 16.3023 15.1566 16.4512 15.4364 16.7163C15.7162 16.9813 15.8734 17.3408 15.8734 17.7156V20.7733C15.8709 21.0978 16.0053 21.4099 16.2466 21.6402C16.488 21.8705 16.8164 22 17.159 22H19.214C20.1738 22.0023 21.0951 21.6428 21.7746 21.0008C22.4542 20.3588 22.8361 19.487 22.8361 18.5778V9.86686C22.8361 9.13246 22.4924 8.43584 21.8977 7.96467L14.9069 2.67587C13.6909 1.74856 11.9485 1.7785 10.7688 2.74698L3.9375 7.96467C3.3147 8.42195 2.94247 9.12064 2.92407 9.86686V18.5689C2.92407 20.4639 4.54573 22 6.54614 22H8.55423C9.26576 22 9.84401 21.4562 9.84917 20.7822L9.87732 20.7733Z" fill="#0A6375"/>
</svg>