<svg xmlns="http://www.w3.org/2000/svg" width="26" height="24" viewBox="0 0 26 24" fill="none">
  <path fill-rule="evenodd" clip-rule="evenodd" d="M21.3842 18.1931C21.3842 21.4891 16.6473 21.8701 13.0851 21.8701L12.8302 21.8699C10.5607 21.8646 4.78394 21.7279 4.78394 18.1731C4.78394 14.9444 9.33052 14.5129 12.8656 14.4966L13.34 14.4963C15.6094 14.5016 21.3842 14.6383 21.3842 18.1931ZM13.0851 15.9961C8.61961 15.9961 6.35593 16.7281 6.35593 18.1731C6.35593 19.6311 8.61961 20.3701 13.0851 20.3701C17.5496 20.3701 19.8122 19.6381 19.8122 18.1931C19.8122 16.7351 17.5496 15.9961 13.0851 15.9961ZM13.0851 1.99969C16.1537 1.99969 18.649 4.38169 18.649 7.30969C18.649 10.2377 16.1537 12.6187 13.0851 12.6187H13.0516C9.98935 12.6097 7.50873 10.2267 7.51918 7.30669C7.51918 4.38169 10.0155 1.99969 13.0851 1.99969ZM13.0851 3.42769C10.8414 3.42769 9.01573 5.16869 9.01573 7.30969C9.00842 9.44369 10.8204 11.1837 13.0547 11.1917L13.0851 11.9057V11.1917C15.3279 11.1917 17.1524 9.44969 17.1524 7.30969C17.1524 5.16869 15.3279 3.42769 13.0851 3.42769Z" fill="black" fill-opacity="0.7"/>
</svg>