<svg xmlns="http://www.w3.org/2000/svg" width="28" height="28" viewBox="0 0 28 28" fill="none">
  <g clip-path="url(#clip0_11_2597)">
    <path d="M24.1045 22.6058C12.7701 28 5.73592 23.4868 1.23309 20.7456C0.95446 20.5729 0.480881 20.786 0.891776 21.258C2.39189 23.0769 7.30809 27.461 13.7252 27.461C20.1467 27.461 23.9668 23.9572 24.4447 23.346C24.9194 22.7399 24.5841 22.4056 24.1044 22.6058H24.1045ZM27.2877 20.8478C26.9833 20.4515 25.4369 20.3776 24.4637 20.4972C23.489 20.6133 22.0259 21.209 22.1531 21.5667C22.2184 21.7006 22.3516 21.6405 23.0212 21.5803C23.6926 21.5133 25.5736 21.276 25.9655 21.7883C26.3593 22.3042 25.3656 24.7618 25.1841 25.1582C25.0088 25.5546 25.2511 25.6568 25.5805 25.3928C25.9053 25.1289 26.4934 24.4455 26.888 23.4784C27.28 22.5061 27.5191 21.1496 27.2877 20.8478Z" fill="#FF9900"/>
    <path fill-rule="evenodd" clip-rule="evenodd" d="M16.4834 11.599C16.4834 13.0143 16.5191 14.1947 15.8038 15.4516C15.2264 16.4736 14.3117 17.1021 13.2898 17.1021C11.8948 17.1021 11.0824 16.0392 11.0824 14.4706C11.0824 11.3741 13.8569 10.8121 16.4834 10.8121V11.599ZM20.147 20.4541C19.9068 20.6686 19.5593 20.684 19.2886 20.5409C18.0827 19.5394 17.868 19.0745 17.2038 18.1189C15.2111 20.1526 13.8008 20.7606 11.2153 20.7606C8.15971 20.7606 5.77856 18.8751 5.77856 15.0991C5.77856 12.1509 7.37799 10.1427 9.65164 9.16172C11.624 8.29297 14.3782 8.13971 16.4834 7.89963V7.4295C16.4834 6.56592 16.5497 5.54402 16.0439 4.79805C15.5993 4.12866 14.7512 3.85272 14.0051 3.85272C12.6204 3.85272 11.3839 4.56293 11.0824 6.0345C11.021 6.3616 10.7809 6.68354 10.4539 6.69883L6.92821 6.32078C6.63191 6.25422 6.30492 6.01415 6.38667 5.55931C7.19909 1.28772 11.0568 0 14.5109 0C16.2788 0 18.5884 0.470133 19.9834 1.80891C21.7513 3.45927 21.5827 5.66152 21.5827 8.05796V13.7195C21.5827 15.421 22.2878 16.167 22.952 17.0868C23.1871 17.4138 23.2382 17.8073 22.9418 18.0525C22.2009 18.6707 20.8826 19.8204 20.1571 20.4643L20.1469 20.4541" fill="black"/>
    <path d="M24.1045 22.6058C12.7701 28 5.73592 23.4868 1.23309 20.7456C0.95446 20.5729 0.480881 20.786 0.891776 21.258C2.39189 23.0769 7.30809 27.461 13.7252 27.461C20.1467 27.461 23.9668 23.9572 24.4447 23.346C24.9194 22.7399 24.5841 22.4056 24.1044 22.6058H24.1045ZM27.2877 20.8478C26.9833 20.4515 25.4369 20.3776 24.4637 20.4972C23.489 20.6133 22.0259 21.209 22.1531 21.5667C22.2184 21.7006 22.3516 21.6405 23.0212 21.5803C23.6926 21.5133 25.5736 21.276 25.9655 21.7883C26.3593 22.3042 25.3656 24.7618 25.1841 25.1582C25.0088 25.5546 25.2511 25.6568 25.5805 25.3928C25.9053 25.1289 26.4934 24.4455 26.888 23.4784C27.28 22.5061 27.5191 21.1496 27.2877 20.8478Z" fill="#FF9900"/>
    <path fill-rule="evenodd" clip-rule="evenodd" d="M16.4834 11.599C16.4834 13.0143 16.5191 14.1947 15.8038 15.4516C15.2264 16.4736 14.3117 17.1021 13.2898 17.1021C11.8948 17.1021 11.0824 16.0392 11.0824 14.4706C11.0824 11.3741 13.8569 10.8121 16.4834 10.8121V11.599ZM20.147 20.4541C19.9068 20.6686 19.5593 20.684 19.2886 20.5409C18.0827 19.5394 17.868 19.0745 17.2038 18.1189C15.2111 20.1526 13.8008 20.7606 11.2153 20.7606C8.15971 20.7606 5.77856 18.8751 5.77856 15.0991C5.77856 12.1509 7.37799 10.1427 9.65164 9.16172C11.624 8.29297 14.3782 8.13971 16.4834 7.89963V7.4295C16.4834 6.56592 16.5497 5.54402 16.0439 4.79805C15.5993 4.12866 14.7512 3.85272 14.0051 3.85272C12.6204 3.85272 11.3839 4.56293 11.0824 6.0345C11.021 6.3616 10.7809 6.68354 10.4539 6.69883L6.92821 6.32078C6.63191 6.25422 6.30492 6.01415 6.38667 5.55931C7.19909 1.28772 11.0568 0 14.5109 0C16.2788 0 18.5884 0.470133 19.9834 1.80891C21.7513 3.45927 21.5827 5.66152 21.5827 8.05796V13.7195C21.5827 15.421 22.2878 16.167 22.952 17.0868C23.1871 17.4138 23.2382 17.8073 22.9418 18.0525C22.2009 18.6707 20.8826 19.8204 20.1571 20.4643L20.1469 20.4541" fill="black"/>
  </g>
  <defs>
    <clipPath id="clip0_11_2597">
      <rect width="28" height="28" fill="white"/>
    </clipPath>
  </defs>
</svg>