<svg width="48" height="48" viewBox="0 0 48 48" fill="none" xmlns="http://www.w3.org/2000/svg">
<path fill-rule="evenodd" clip-rule="evenodd" d="M9.2002 15.3385L24.0002 6.80005L38.8002 15.3385V32.4154L24.0002 40.9539L9.2002 32.4154V15.3385ZM18.1573 14.1823H29.8134L31.2074 20.1118H16.793L18.1573 14.1823ZM21.1232 28.0572L21.5087 24.3513L20.2334 21.0308H27.7669L26.5212 24.3513L26.8771 28.0572H23.9705H21.1232ZM29.843 34.2832H27.7372L25.2161 31.9707V30.7848L27.8262 28.2944V24.3513L31.237 22.1278L35.1224 25.0629L29.843 34.2832ZM20.3224 34.3128L22.8435 31.9707V30.7848L20.2334 28.2944V24.3513L16.793 22.1574L12.8779 25.0628L18.1869 34.3128H20.3224Z" fill="#171717"/>
</svg>
