<svg xmlns="http://www.w3.org/2000/svg" width="17" height="30" viewBox="0 0 17 30" fill="none">
  <g clip-path="url(#clip0_11_2565)">
    <path d="M10.658 0.0883331L10.6462 6.68892L10.6344 13.2895L10.0922 11.7572V11.7533L9.38892 26.4474C10.0804 28.3962 10.4497 29.4374 10.4537 29.4413C10.4576 29.4452 10.8505 29.4688 11.3259 29.4924C12.7639 29.5631 14.5476 29.7163 15.9031 29.8853C16.2174 29.9245 16.4845 29.9442 16.5042 29.9285C16.5238 29.9128 16.5278 23.1943 16.5238 14.9946L16.512 0.0883331H10.658Z" fill="#B1060F" stroke="black" stroke-width="0.0392892"/>
    <path d="M0.0690918 0.0687943V14.9908C0.0690918 23.1983 0.0769496 29.9207 0.0887364 29.9325C0.100523 29.9443 0.607353 29.8932 1.22026 29.8264C1.83318 29.7596 2.67789 29.6732 3.09829 29.6378C3.74263 29.5828 5.67566 29.461 5.89568 29.4571C5.96247 29.4571 5.9664 29.1231 5.97426 23.1355L5.98604 16.8138L6.45358 18.134C6.5243 18.3383 6.54788 18.4011 6.6186 18.6015L7.32188 3.91128C7.17258 3.49088 7.25115 3.7109 7.08221 3.23157C6.50859 1.60893 6.0214 0.237737 6.00176 0.174874L5.96247 0.0648651H0.0690918V0.0687943Z" fill="#B1060F" stroke="black" stroke-width="0.0392892"/>
    <path d="M10.658 0.0883331L10.6462 6.68892L10.6344 13.2895L10.0922 11.7572V11.7533L9.38892 26.4474C10.0804 28.3962 10.4497 29.4374 10.4537 29.4413C10.4576 29.4452 10.8505 29.4688 11.3259 29.4924C12.7639 29.5631 14.5476 29.7163 15.9031 29.8853C16.2174 29.9245 16.4845 29.9442 16.5042 29.9285C16.5238 29.9128 16.5278 23.1943 16.5238 14.9946L16.512 0.0883331H10.658Z" fill="#B1060F" stroke="black" stroke-width="0.0392892"/>
    <path d="M0.0690918 0.0687943V14.9908C0.0690918 23.1983 0.0769496 29.9207 0.0887364 29.9325C0.100523 29.9443 0.607353 29.8932 1.22026 29.8264C1.83318 29.7596 2.67789 29.6732 3.09829 29.6378C3.74263 29.5828 5.67566 29.461 5.89568 29.4571C5.96247 29.4571 5.9664 29.1231 5.97426 23.1355L5.98604 16.8138L6.45358 18.134C6.5243 18.3383 6.54788 18.4011 6.6186 18.6015L7.32188 3.91128C7.17258 3.49088 7.25115 3.7109 7.08221 3.23157C6.50859 1.60893 6.0214 0.237737 6.00176 0.174874L5.96247 0.0648651H0.0690918V0.0687943Z" fill="#B1060F" stroke="black" stroke-width="0.0392892"/>
    <path d="M0.0690918 0.0687943V8.44525L5.97033 24.0981C5.97033 23.7405 5.97033 23.5441 5.97426 23.1355L5.98604 16.8138L6.45359 18.134C9.04667 25.4889 10.4414 29.4335 10.4493 29.4414C10.4532 29.4453 10.8461 29.4689 11.3215 29.4925C12.7595 29.5632 14.5432 29.7164 15.8987 29.8854C16.213 29.9247 16.4802 29.9443 16.4998 29.9286C16.5116 29.9168 16.5195 26.6244 16.5195 21.9764L10.6497 5.08995L10.6457 6.68902L10.634 13.2896L10.0918 11.7573C9.56136 10.2604 9.20776 9.25854 7.07435 3.23157C6.50073 1.60893 6.01355 0.237737 5.9939 0.174874L5.95461 0.0648651H0.0690918V0.0687943Z" fill="url(#paint0_radial_11_2565)"/>
    <path d="M0.0690918 0.0687943L5.98211 16.8256V16.8178L6.44966 18.1379C9.04667 25.4889 10.4414 29.4335 10.4493 29.4414C10.4532 29.4453 10.8461 29.4689 11.3215 29.4925C12.7595 29.5632 14.5432 29.7164 15.8987 29.8854C16.2091 29.9247 16.4802 29.9443 16.4959 29.9286L10.634 13.2857V13.2896L10.0918 11.7573C9.56136 10.2604 9.20776 9.25854 7.07435 3.23157C6.50073 1.60893 6.01355 0.237737 5.9939 0.174874L5.95461 0.0648651H3.01185L0.0690918 0.0687943Z" fill="#E50914"/>
  </g>
  <defs>
    <radialGradient id="paint0_radial_11_2565" cx="0" cy="0" r="1" gradientUnits="userSpaceOnUse" gradientTransform="translate(8.01887 14.8262) rotate(-19.1007) scale(1.08418 39.715)">
      <stop/>
      <stop offset="1" stop-opacity="0"/>
    </radialGradient>
    <clipPath id="clip0_11_2565">
      <rect width="16.596" height="30" fill="white"/>
    </clipPath>
  </defs>
</svg>