<svg width="26" height="26" viewBox="0 0 26 26" fill="none" xmlns="http://www.w3.org/2000/svg">
<path fill-rule="evenodd" clip-rule="evenodd" d="M8.27234 12.403C8.12128 12.2052 7.87791 12.1008 7.63059 12.1277C7.38327 12.1546 7.16798 12.3089 7.0629 12.5345L0.934495 24.7962C0.820982 25.0234 0.833116 25.2932 0.966564 25.5093C1.10001 25.7254 1.33575 25.8569 1.58959 25.8569H10.1231C10.4023 25.8634 10.6591 25.7046 10.7782 25.4517C12.619 21.6453 11.5034 15.8576 8.27234 12.403Z" fill="url(#paint0_linear_11_2658)"/>
<path fill-rule="evenodd" clip-rule="evenodd" d="M12.7673 1.2505C9.66071 6.03391 9.30217 12.1013 11.8237 17.2178L15.9378 25.4518C16.0619 25.7001 16.3155 25.857 16.5929 25.857H25.1249C25.3787 25.857 25.6144 25.7254 25.7479 25.5093C25.8813 25.2932 25.8935 25.0234 25.7799 24.7962C25.7799 24.7962 14.3016 1.82057 14.0131 1.2459C13.8967 1.00721 13.6542 0.856172 13.3888 0.857152C13.1234 0.858132 12.8819 1.01095 12.7673 1.2505Z" fill="#2684FF"/>
<defs>
<linearGradient id="paint0_linear_11_2658" x1="11.6309" y1="14.2953" x2="3.03508" y2="23.5226" gradientUnits="userSpaceOnUse">
<stop stop-color="#0052CC"/>
<stop offset="0.923" stop-color="#2684FF"/>
</linearGradient>
</defs>
</svg>
