<svg xmlns="http://www.w3.org/2000/svg" width="15" height="16" viewBox="0 0 15 16" fill="none">
  <path fill-rule="evenodd" clip-rule="evenodd" d="M4.57913 4.13506C4.57913 3.64928 4.7721 3.1834 5.1156 2.8399C5.4591 2.4964 5.92498 2.30343 6.41076 2.30343H8.24239C8.72817 2.30343 9.19405 2.4964 9.53755 2.8399C9.88104 3.1834 10.074 3.64928 10.074 4.13506V4.26022C10.6437 4.31212 11.2078 4.3805 11.7677 4.46414C12.6554 4.59724 13.2794 5.36958 13.2794 6.24509V8.09687C13.2794 8.83624 12.8312 9.53287 12.0974 9.77709C10.5587 10.2878 8.94779 10.5474 7.32657 10.5458C5.65979 10.5458 4.05589 10.2759 2.55579 9.77709C1.82192 9.53287 1.37378 8.83624 1.37378 8.09687V6.24509C1.37378 5.36958 1.99775 4.59663 2.88548 4.46414C3.44797 4.38002 4.01275 4.31202 4.57913 4.26022V4.13506ZM9.1582 4.13506V4.19001C7.93824 4.11592 6.71491 4.11592 5.49494 4.19001V4.13506C5.49494 3.89217 5.59143 3.65923 5.76318 3.48748C5.93493 3.31573 6.16787 3.21924 6.41076 3.21924H8.24239C8.48528 3.21924 8.71822 3.31573 8.88997 3.48748C9.06172 3.65923 9.1582 3.89217 9.1582 4.13506ZM7.32657 9.17204C7.44802 9.17204 7.56449 9.12379 7.65036 9.03792C7.73624 8.95205 7.78448 8.83558 7.78448 8.71413C7.78448 8.59269 7.73624 8.47622 7.65036 8.39034C7.56449 8.30447 7.44802 8.25622 7.32657 8.25622C7.20513 8.25622 7.08866 8.30447 7.00278 8.39034C6.91691 8.47622 6.86867 8.59269 6.86867 8.71413C6.86867 8.83558 6.91691 8.95205 7.00278 9.03792C7.08866 9.12379 7.20513 9.17204 7.32657 9.17204Z" fill="#D0624C"/>
  <path d="M1.83154 12.1637V10.4566C1.97064 10.5327 2.11634 10.5961 2.26686 10.6459C3.89865 11.1877 5.60705 11.4631 7.32643 11.4616C9.09212 11.4616 10.7943 11.1758 12.386 10.6465C12.5399 10.5952 12.6852 10.5311 12.8213 10.4566V12.1637C12.8213 13.0502 12.1821 13.8293 11.2809 13.9483C9.98657 14.1205 8.66657 14.209 7.32643 14.209C6.00397 14.2093 4.68293 14.1222 3.37194 13.9483C2.47078 13.8293 1.83154 13.0502 1.83154 12.1637Z" fill="#D0624C"/>
</svg>