<svg width="75" height="78" viewBox="0 0 75 78" fill="none" xmlns="http://www.w3.org/2000/svg">
<g clip-path="url(#clip0_142_4301)">
<circle cx="45" cy="45" r="45" fill="#F2F2F5"/>
</g>
<rect x="11.6162" width="54.384" height="77.25" rx="4.944" fill="white"/>
<path d="M38.8084 7.82788C34.2681 7.82788 30.5684 11.5276 30.5684 16.0679C30.5684 20.6081 34.2681 24.3079 38.8084 24.3079C43.3486 24.3079 47.0484 20.6081 47.0484 16.0679C47.0484 11.5276 43.3486 7.82788 38.8084 7.82788ZM42.7471 14.1727L38.075 18.8448C37.9596 18.9601 37.8031 19.026 37.6383 19.026C37.4735 19.026 37.3169 18.9601 37.2016 18.8448L34.8696 16.5128C34.6307 16.2739 34.6307 15.8784 34.8696 15.6394C35.1086 15.4004 35.5041 15.4004 35.7431 15.6394L37.6383 17.5346L41.8736 13.2992C42.1126 13.0603 42.5081 13.0603 42.7471 13.2992C42.986 13.5382 42.986 13.9255 42.7471 14.1727Z" fill="#0A6375"/>
<rect x="22.7402" y="29.6641" width="32.136" height="3.708" rx="1.854" fill="#D8DBE6"/>
<rect x="15.3242" y="35.844" width="46.968" height="33.372" rx="2.472" fill="url(#paint0_linear_142_4301)"/>
<defs>
<linearGradient id="paint0_linear_142_4301" x1="38.8082" y1="-11.742" x2="38.8082" y2="69.216" gradientUnits="userSpaceOnUse">
<stop stop-color="#D8DBE6"/>
<stop offset="1" stop-color="#D8DBE6" stop-opacity="0"/>
</linearGradient>
<clipPath id="clip0_142_4301">
<rect width="75" height="75" rx="37.5" fill="white"/>
</clipPath>
</defs>
</svg>
