<svg width="48" height="48" viewBox="0 0 48 48" fill="none" xmlns="http://www.w3.org/2000/svg">
<rect width="48" height="48" rx="24" fill="#0A6375"/>
<path d="M21.0002 30.7499C21.0002 30.551 21.0793 30.3602 21.2199 30.2196C21.3606 30.0789 21.5513 29.9999 21.7502 29.9999H26.2502C26.4492 29.9999 26.6399 30.0789 26.7806 30.2196C26.9212 30.3602 27.0002 30.551 27.0002 30.7499C27.0002 30.9488 26.9212 31.1396 26.7806 31.2803C26.6399 31.4209 26.4492 31.4999 26.2502 31.4999H21.7502C21.5513 31.4999 21.3606 31.4209 21.2199 31.2803C21.0793 31.1396 21.0002 30.9488 21.0002 30.7499ZM16.5002 24.0929C16.5002 22.1399 18.3527 20.6474 20.2952 20.8289C22.7599 21.059 25.2406 21.059 27.7052 20.8289C29.6477 20.6474 31.5002 22.1399 31.5002 24.0929V25.8284C31.5064 26.1603 31.3943 26.4836 31.1841 26.7405C30.9739 26.9974 30.6793 27.1712 30.3527 27.2309C29.0852 27.4514 26.8427 27.7499 24.0002 27.7499C21.1577 27.7499 18.9152 27.4499 17.6477 27.2309C17.3212 27.1712 17.0265 26.9974 16.8163 26.7405C16.6061 26.4836 16.4941 26.1603 16.5002 25.8284V24.0929ZM23.3132 22.8524C23.2548 22.8425 23.1948 22.8465 23.1382 22.8643C23.0816 22.882 23.0301 22.9129 22.9877 22.9544L21.6077 24.3044C20.6691 24.2485 19.7329 24.1569 18.8012 24.0299C18.7047 24.0203 18.6082 24.0485 18.532 24.1086C18.4558 24.1687 18.4059 24.2559 18.3926 24.352C18.3794 24.4482 18.404 24.5457 18.4612 24.6241C18.5184 24.7024 18.6037 24.7556 18.6992 24.7724C19.5242 24.8864 20.5472 24.9959 21.7292 25.0619C21.7813 25.0649 21.8334 25.0569 21.8822 25.0386C21.931 25.0202 21.9755 24.9919 22.0127 24.9554L23.1437 23.8514L24.4142 26.4164C24.441 26.4702 24.4803 26.5168 24.5288 26.5523C24.5774 26.5877 24.6337 26.611 24.6931 26.6201C24.7525 26.6292 24.8132 26.6239 24.8702 26.6047C24.9271 26.5854 24.9786 26.5527 25.0202 26.5094L26.4182 25.0544C27.3825 24.9972 28.3442 24.9031 29.3012 24.7724C29.3968 24.7556 29.4821 24.7024 29.5393 24.6241C29.5965 24.5457 29.621 24.4482 29.6078 24.352C29.5946 24.2559 29.5447 24.1687 29.4685 24.1086C29.3923 24.0485 29.2958 24.0203 29.1992 24.0299C28.3922 24.1409 27.3887 24.2474 26.2292 24.3134C26.1348 24.3187 26.0459 24.3594 25.9802 24.4274L24.8492 25.6049L23.5862 23.0549C23.5599 23.0021 23.5214 22.9562 23.474 22.921C23.4266 22.8858 23.3715 22.8623 23.3132 22.8524Z" fill="white"/>
<path d="M24.75 14.799C25.036 14.6339 25.2595 14.3791 25.3858 14.074C25.5122 13.769 25.5344 13.4307 25.4489 13.1118C25.3634 12.7928 25.1751 12.511 24.9131 12.31C24.6512 12.109 24.3302 12 24 12C23.6698 12 23.3488 12.109 23.0869 12.31C22.8249 12.511 22.6366 12.7928 22.5511 13.1118C22.4656 13.4307 22.4878 13.769 22.6142 14.074C22.7405 14.3791 22.964 14.6339 23.25 14.799V16.5H20.25C18.4598 16.5 16.7429 17.2112 15.477 18.4771C14.2112 19.7429 13.5 21.4598 13.5 23.25V24C13.1022 24 12.7206 24.1581 12.4393 24.4394C12.158 24.7207 12 25.1022 12 25.5V28.5C12 28.8979 12.158 29.2794 12.4393 29.5607C12.7206 29.842 13.1022 30 13.5 30V31.5C13.5 32.2957 13.8161 33.0588 14.3787 33.6214C14.9413 34.184 15.7044 34.5 16.5 34.5H31.5C32.2956 34.5 33.0587 34.184 33.6213 33.6214C34.1839 33.0588 34.5 32.2957 34.5 31.5V30C34.8978 30 35.2794 29.842 35.5607 29.5607C35.842 29.2794 36 28.8979 36 28.5V25.5C36 25.1022 35.842 24.7207 35.5607 24.4394C35.2794 24.1581 34.8978 24 34.5 24V23.25C34.5 21.4598 33.7888 19.7429 32.523 18.4771C31.2571 17.2112 29.5402 16.5 27.75 16.5H24.75V14.799ZM33 23.25V31.5C33 31.8979 32.842 32.2794 32.5607 32.5607C32.2794 32.842 31.8978 33 31.5 33H16.5C16.1022 33 15.7206 32.842 15.4393 32.5607C15.158 32.2794 15 31.8979 15 31.5V23.25C15 21.8577 15.5531 20.5223 16.5377 19.5377C17.5223 18.5532 18.8576 18 20.25 18H27.75C29.1424 18 30.4777 18.5532 31.4623 19.5377C32.4469 20.5223 33 21.8577 33 23.25Z" fill="white"/>
</svg>
