<svg width="19" height="19" viewBox="0 0 19 19" fill="none" xmlns="http://www.w3.org/2000/svg">
<path fill-rule="evenodd" clip-rule="evenodd" d="M15.5107 15.5094C12.9129 18.1074 9.06631 18.6687 5.91845 17.2129C5.45375 17.0258 5.07276 16.8746 4.71057 16.8746C3.70172 16.8806 2.44599 17.8588 1.79336 17.2069C1.14072 16.5542 2.11967 15.2975 2.11967 14.2826C2.11967 13.9203 1.97445 13.5461 1.78738 13.0805C0.330906 9.93318 0.892992 6.08528 3.49072 3.48813C6.80686 0.170767 12.1945 0.170767 15.5107 3.48727C18.8328 6.80976 18.8268 12.1929 15.5107 15.5094Z" stroke="#1F3048" stroke-width="1.5" stroke-linecap="round" stroke-linejoin="round"/>
<path d="M12.8486 9.85107H12.8576" stroke="#1F3048" stroke-width="2" stroke-linecap="round" stroke-linejoin="round"/>
<path d="M9.44043 9.85107H9.44943" stroke="#1F3048" stroke-width="2" stroke-linecap="round" stroke-linejoin="round"/>
<path d="M6.0332 9.85107H6.0422" stroke="#1F3048" stroke-width="2" stroke-linecap="round" stroke-linejoin="round"/>
</svg>
