<svg xmlns="http://www.w3.org/2000/svg" width="19" height="20" viewBox="0 0 19 20" fill="none">
  <path d="M3.8472 17.5002C4.30744 17.5002 4.68054 17.8733 4.68054 18.3336C4.68054 18.7938 4.30744 19.1669 3.8472 19.1669H3.33301C1.9523 19.1669 0.833008 18.0476 0.833008 16.6669C0.833008 16.5023 0.84927 16.3381 0.881556 16.1766L1.83884 11.3902C2.58194 7.67471 5.84427 5.00024 9.63333 5.00024C13.4224 5.00024 16.6847 7.67471 17.4278 11.3902L18.3851 16.1766C18.6559 17.5305 17.7779 18.8476 16.424 19.1184C16.2625 19.1506 16.0983 19.1669 15.9337 19.1669H3.33301C2.87277 19.1669 2.49967 18.7938 2.49967 18.3336C2.49967 17.8733 2.87277 17.5002 3.33301 17.5002H15.9337C15.9885 17.5002 16.0433 17.4948 16.0971 17.4841C16.5484 17.3938 16.8411 16.9548 16.7508 16.5035L15.7935 11.7171C15.2062 8.78061 12.6279 6.66691 9.63333 6.66691C6.63873 6.66691 4.06043 8.78061 3.47314 11.7171L2.51586 16.5035C2.50509 16.5573 2.49967 16.612 2.49967 16.6669C2.49967 17.1271 2.87277 17.5002 3.33301 17.5002H3.8472Z" fill="#D0624C"/>
  <path d="M12.0944 10.8334C12.5546 10.8334 12.9277 10.4603 12.9277 10.0001C12.9277 9.53984 12.5546 9.16675 12.0944 9.16675H7.97841C7.05794 9.16675 6.31175 9.91294 6.31175 10.8334V11.6667C6.31175 12.5872 7.05794 13.3334 7.97841 13.3334H11.3001V14.1667H7.13346C6.67323 14.1667 6.30013 14.5398 6.30013 15.0001C6.30013 15.4603 6.67323 15.8334 7.13346 15.8334H11.3001C12.2206 15.8334 12.9668 15.0872 12.9668 14.1667V13.3334C12.9668 12.4129 12.2206 11.6667 11.3001 11.6667H7.97841V10.8334H12.0944Z" fill="#D0624C"/>
  <path d="M10.4665 15.8261C10.4665 16.2864 10.0934 16.6594 9.63314 16.6594C9.1729 16.6594 8.7998 16.2864 8.7998 15.8261V15.0001C8.7998 14.5398 9.1729 14.1667 9.63314 14.1667C10.0934 14.1667 10.4665 14.5398 10.4665 15.0001V15.8261Z" fill="#D0624C"/>
  <path d="M10.4665 10.0002C10.4665 10.4604 10.0934 10.8335 9.63314 10.8335C9.1729 10.8335 8.7998 10.4604 8.7998 10.0002V9.16683C8.7998 8.70659 9.1729 8.3335 9.63314 8.3335C10.0934 8.3335 10.4665 8.70659 10.4665 9.16683V10.0002Z" fill="#D0624C"/>
  <path d="M12.3583 3.02967L11.36 5.52541C11.1891 5.95273 11.3969 6.4377 11.8242 6.60863C12.2516 6.77956 12.7365 6.57171 12.9075 6.14439L14.5741 1.97773C14.8378 1.31856 14.2091 0.65266 13.5359 0.87799L11.3728 1.60195L10.0046 0.921976C9.76986 0.805321 9.49392 0.805909 9.25968 0.923566L7.9095 1.60176L5.72986 0.877426C5.05694 0.653799 4.42997 1.31933 4.69333 1.97773L6.36 6.14439C6.53092 6.57171 7.0159 6.77956 7.44322 6.60863C7.87054 6.4377 8.07839 5.95273 7.90746 5.52541L6.90729 3.025L7.71189 3.29238C7.92188 3.36216 8.151 3.34556 8.34874 3.24624L9.63571 2.59979L10.9397 3.24783C11.1373 3.34603 11.3658 3.36185 11.5751 3.29181L12.3583 3.02967Z" fill="#D0624C"/>
</svg>