<svg width="32" height="24" viewBox="0 0 32 24" fill="none" xmlns="http://www.w3.org/2000/svg">
<mask id="path-1-inside-1_11_2767" fill="white">
<path d="M0 0H32V24H0V0Z"/>
</mask>
<path d="M1 24V0H-1V24H1Z" fill="#ECEFF3" mask="url(#path-1-inside-1_11_2767)"/>
<path d="M20 6C20 6.53043 20.2107 7.03914 20.5858 7.41421C20.9609 7.78929 21.4696 8 22 8C22.5304 8 23.0391 7.78929 23.4142 7.41421C23.7893 7.03914 24 6.53043 24 6M20 6C20 5.46957 20.2107 4.96086 20.5858 4.58579C20.9609 4.21071 21.4696 4 22 4C22.5304 4 23.0391 4.21071 23.4142 4.58579C23.7893 4.96086 24 5.46957 24 6M20 6H12M24 6H28M14 12C14 12.5304 14.2107 13.0391 14.5858 13.4142C14.9609 13.7893 15.4696 14 16 14C16.5304 14 17.0391 13.7893 17.4142 13.4142C17.7893 13.0391 18 12.5304 18 12M14 12C14 11.4696 14.2107 10.9609 14.5858 10.5858C14.9609 10.2107 15.4696 10 16 10C16.5304 10 17.0391 10.2107 17.4142 10.5858C17.7893 10.9609 18 11.4696 18 12M14 12H12M18 12H28M23 18C23 18.5304 23.2107 19.0391 23.5858 19.4142C23.9609 19.7893 24.4696 20 25 20C25.5304 20 26.0391 19.7893 26.4142 19.4142C26.7893 19.0391 27 18.5304 27 18M23 18C23 17.4696 23.2107 16.9609 23.5858 16.5858C23.9609 16.2107 24.4696 16 25 16C25.5304 16 26.0391 16.2107 26.4142 16.5858C26.7893 16.9609 27 17.4696 27 18M23 18H12M27 18H28" stroke="#A4ACB9" stroke-width="2" stroke-linecap="round" stroke-linejoin="round"/>
</svg>
