<svg xmlns="http://www.w3.org/2000/svg" width="25" height="24" viewBox="0 0 25 24" fill="none">
  <g clip-path="url(#clip0_8_1002)">
    <path d="M6.04667 14.4183L5.23974 17.4306L2.29044 17.493C1.40904 15.8582 0.909088 13.9878 0.909088 12.0001C0.909088 10.0781 1.37653 8.26552 2.2051 6.66956H2.20573L4.83143 7.15094L5.98165 9.76089C5.74091 10.4627 5.6097 11.2161 5.6097 12.0001C5.60979 12.851 5.76391 13.6662 6.04667 14.4183Z" fill="#FBBB00"/>
    <path d="M23.8883 9.83435C24.0214 10.5355 24.0908 11.2596 24.0908 11.9997C24.0908 12.8295 24.0036 13.639 23.8374 14.4198C23.2731 17.0768 21.7988 19.3969 19.7564 21.0387L19.7557 21.0381L16.4485 20.8693L15.9804 17.9474C17.3357 17.1526 18.3948 15.9088 18.9527 14.4198H12.7547V9.83435H19.0431H23.8883Z" fill="#518EF8"/>
    <path d="M19.7553 21.0384L19.7559 21.039C17.7696 22.6356 15.2463 23.5909 12.4995 23.5909C8.0854 23.5909 4.24768 21.1237 2.28995 17.493L6.04617 14.4182C7.02502 17.0306 9.54509 18.8903 12.4995 18.8903C13.7694 18.8903 14.9591 18.547 15.9799 17.9477L19.7553 21.0384Z" fill="#28B446"/>
    <path d="M19.8983 3.0775L16.1434 6.15163C15.0868 5.49122 13.8379 5.10971 12.4999 5.10971C9.4786 5.10971 6.91139 7.05468 5.98159 9.76075L2.20562 6.66942H2.20499C4.13406 2.95014 8.02018 0.409058 12.4999 0.409058C15.3123 0.409058 17.8909 1.41086 19.8983 3.0775Z" fill="#F14336"/>
  </g>
  <defs>
    <clipPath id="clip0_8_1002">
      <rect width="23.1818" height="23.1818" fill="white" transform="translate(0.909088 0.409058)"/>
    </clipPath>
  </defs>
</svg>