<svg xmlns="http://www.w3.org/2000/svg" width="20" height="20" viewBox="0 0 20 20" fill="none">
  <path d="M7.50033 9.16667C9.34128 9.16667 10.8337 7.67428 10.8337 5.83333C10.8337 3.99238 9.34128 2.5 7.50033 2.5C5.65938 2.5 4.16699 3.99238 4.16699 5.83333C4.16699 7.67428 5.65938 9.16667 7.50033 9.16667Z" stroke="#8E73DB" stroke-width="2" stroke-linecap="round" stroke-linejoin="round"/>
  <path d="M2.5 17.5V15.8333C2.5 14.9493 2.85119 14.1014 3.47631 13.4763C4.10143 12.8512 4.94928 12.5 5.83333 12.5H9.16667C10.0507 12.5 10.8986 12.8512 11.5237 13.4763C12.1488 14.1014 12.5 14.9493 12.5 15.8333V17.5" stroke="#8E73DB" stroke-width="2" stroke-linecap="round" stroke-linejoin="round"/>
  <path d="M13.333 2.60834C14.05 2.79192 14.6855 3.20892 15.1394 3.7936C15.5932 4.37827 15.8395 5.09736 15.8395 5.8375C15.8395 6.57765 15.5932 7.29674 15.1394 7.88141C14.6855 8.46609 14.05 8.88309 13.333 9.06667" stroke="#8E73DB" stroke-width="2" stroke-linecap="round" stroke-linejoin="round"/>
  <path d="M17.5 17.5V15.8333C17.4958 15.0976 17.2483 14.384 16.7961 13.8037C16.3439 13.2233 15.7124 12.8089 15 12.625" stroke="#8E73DB" stroke-width="2" stroke-linecap="round" stroke-linejoin="round"/>
</svg>