<svg xmlns="http://www.w3.org/2000/svg" width="16" height="18" viewBox="0 0 16 18" fill="none">
  <path d="M8 10.6665C9.38071 10.6665 10.5 9.54722 10.5 8.1665C10.5 6.78579 9.38071 5.6665 8 5.6665C6.61929 5.6665 5.5 6.78579 5.5 8.1665C5.5 9.54722 6.61929 10.6665 8 10.6665Z" stroke="#0A6375" stroke-width="2" stroke-linecap="round" stroke-linejoin="round"/>
  <path d="M12.7142 12.8806L9.17835 16.4164C8.86583 16.7286 8.44217 16.904 8.00043 16.904C7.55869 16.904 7.13503 16.7286 6.82251 16.4164L3.28585 12.8806C2.35353 11.9482 1.71863 10.7603 1.46142 9.46714C1.20421 8.17395 1.33625 6.83352 1.84085 5.61536C2.34544 4.39721 3.19993 3.35604 4.29625 2.62351C5.39257 1.89098 6.68149 1.5 8.00001 1.5C9.31854 1.5 10.6075 1.89098 11.7038 2.62351C12.8001 3.35604 13.6546 4.39721 14.1592 5.61536C14.6638 6.83352 14.7958 8.17395 14.5386 9.46714C14.2814 10.7603 13.6465 11.9482 12.7142 12.8806V12.8806Z" stroke="#0A6375" stroke-width="2" stroke-linecap="round" stroke-linejoin="round"/>
</svg>