<svg xmlns="http://www.w3.org/2000/svg" width="18" height="20" viewBox="0 0 18 20" fill="none">
  <path d="M17.2512 12.2241C16.9687 11.9379 16.7447 11.5974 16.5922 11.2224C16.4397 10.8475 16.3617 10.4454 16.3627 10.0396V7.49843C16.3627 5.50973 15.587 3.60247 14.2061 2.19624C12.8253 0.790011 10.9524 0 8.99959 0C7.04676 0 5.17392 0.790011 3.79306 2.19624C2.41221 3.60247 1.63645 5.50973 1.63645 7.49843V10.0396C1.63749 10.4454 1.5595 10.8475 1.407 11.2224C1.25449 11.5974 1.0305 11.9379 0.747965 12.2241C0.39083 12.5878 0.147613 13.0511 0.0490742 13.5556C-0.0494645 14.06 0.00110116 14.5828 0.194376 15.058C0.387651 15.5332 0.714953 15.9393 1.13489 16.225C1.55483 16.5107 2.04853 16.6632 2.55357 16.6632H4.99077C5.17854 17.6049 5.68023 18.4515 6.41083 19.0597C7.14142 19.6678 8.056 20 8.99959 20C9.94318 20 10.8578 19.6678 11.5884 19.0597C12.319 18.4515 12.8206 17.6049 13.0084 16.6632H15.4464C15.9515 16.6632 16.4452 16.5107 16.8651 16.225C17.285 15.9393 17.6123 15.5332 17.8056 15.058C17.9989 14.5828 18.0495 14.06 17.9509 13.5556C17.8524 13.0511 17.6084 12.5878 17.2512 12.2241ZM8.99959 18.3295C8.49378 18.3274 8.00096 18.1661 7.58857 17.8679C7.17618 17.5696 6.86435 17.1488 6.69575 16.6632H11.3034C11.1348 17.1488 10.823 17.5696 10.4106 17.8679C9.99822 18.1661 9.50541 18.3274 8.99959 18.3295ZM15.4456 14.9969H2.55357C2.3721 14.997 2.19468 14.9423 2.04376 14.8396C1.89284 14.737 1.77521 14.5911 1.70575 14.4204C1.63629 14.2497 1.61812 14.0618 1.65356 13.8805C1.68899 13.6993 1.77642 13.5328 1.9048 13.4022C2.33975 12.9616 2.6846 12.4376 2.9194 11.8604C3.1542 11.2832 3.27428 10.6643 3.2727 10.0396V7.49843C3.2727 5.95166 3.87607 4.46824 4.95007 3.37451C6.02407 2.28077 7.48073 1.66632 8.99959 1.66632C10.5185 1.66632 11.9751 2.28077 13.0491 3.37451C14.1231 4.46824 14.7265 5.95166 14.7265 7.49843V10.0396C14.7249 10.6643 14.845 11.2832 15.0798 11.8604C15.3146 12.4376 15.6594 12.9616 16.0944 13.4022C16.2228 13.5328 16.3102 13.6993 16.3456 13.8805C16.3811 14.0618 16.3629 14.2497 16.2934 14.4204C16.224 14.5911 16.1063 14.737 15.9554 14.8396C15.8045 14.9423 15.6271 14.997 15.4456 14.9969Z" fill="#0A8DA8"/>
</svg>