<svg xmlns="http://www.w3.org/2000/svg" width="136" height="190" viewBox="0 0 136 190" fill="none">
  <path d="M92.4493 105.214C92.6453 100.134 97.0298 95.9549 101.904 94.5104C108.537 92.5504 115.336 94.4242 121.777 96.1117C123.264 96.5037 124.768 96.8957 126.104 97.6601C130.015 99.871 131.716 104.561 132.729 108.94C135.822 122.315 133.972 135.847 130.893 149.108C127.388 164.188 118.09 188.349 99.3328 188.1C93.9624 188.028 88.7077 185.976 84.427 182.732C82.4866 181.26 80.6834 179.478 79.7544 177.226C78.5451 174.286 78.9704 170.929 79.8837 167.885C80.7971 164.841 82.1652 161.936 82.8375 158.832" fill="white"/>
  <path d="M93.5134 105.214C93.6349 102.501 95.1343 100.059 97.1962 98.2637C99.509 96.2469 102.471 95.1865 105.495 94.8631C109.203 94.4711 112.91 95.0454 116.518 95.8804C118.351 96.3037 120.171 96.7839 121.99 97.27C123.597 97.6973 125.191 98.1951 126.535 99.2104C128.742 100.874 130.016 103.542 130.847 106.125C131.935 109.475 132.547 113.013 132.904 116.513C133.676 124.124 133.08 131.801 131.794 139.332C130.826 145.002 129.583 150.656 127.874 156.15C126.414 160.817 124.713 165.166 122.451 169.465C121.312 171.647 120.023 173.748 118.594 175.752C117.904 176.711 117.306 177.475 116.5 178.404C115.735 179.291 114.924 180.137 114.07 180.938C113.648 181.33 113.217 181.713 112.776 182.079C112.57 182.252 112.361 182.418 112.151 182.583L111.943 182.742L111.6 182.995C110.69 183.656 109.733 184.252 108.739 184.778C108.245 185.041 107.739 185.282 107.226 185.505C107.202 185.505 107.03 185.584 107.19 185.519L106.994 185.599L106.651 185.733C106.373 185.84 106.091 185.94 105.808 186.034C104.743 186.387 103.65 186.649 102.541 186.818C102.255 186.864 102.263 186.864 101.904 186.903C101.593 186.938 101.281 186.965 100.967 186.985C100.341 187.024 99.7161 187.036 99.0915 187.02C97.4626 186.981 95.8432 186.758 94.2641 186.356C90.9954 185.505 87.9237 184.026 85.2206 182.001C82.7158 180.147 80.4774 177.689 80.1403 174.47C79.7679 170.913 81.0713 167.512 82.2689 164.233C82.9126 162.564 83.4455 160.854 83.8643 159.114C84.0063 158.548 83.6783 157.97 83.1195 157.803C82.5531 157.653 81.9712 157.984 81.8102 158.547C80.9929 162.25 79.2074 165.656 78.3979 169.361C77.6139 172.965 77.7824 176.793 80.0266 179.862C82.0846 182.673 85.1363 184.804 88.2233 186.35C91.4304 187.984 94.9417 188.933 98.5349 189.139C103.511 189.353 108.415 187.891 112.461 184.986C116.541 182.093 119.758 178.151 122.367 173.916C125.065 169.533 127.153 164.778 128.86 159.931C130.624 154.888 131.925 149.708 132.996 144.475C134.597 136.635 135.653 128.599 135.328 120.574C135.175 116.538 134.644 112.526 133.74 108.589C133.041 105.588 132.063 102.486 130.201 99.9846C129.28 98.7051 128.11 97.6251 126.761 96.8094C125.107 95.8412 123.217 95.3884 121.381 94.9062C117.578 93.9086 113.737 92.9266 109.805 92.666C106.126 92.421 102.292 92.8737 98.9661 94.5417C96.2633 95.898 93.827 98.1089 92.4981 100.855C91.8323 102.216 91.4527 103.7 91.3829 105.214C91.3829 105.802 91.8594 106.278 92.4471 106.278C93.0349 106.278 93.5114 105.802 93.5114 105.214H93.5134Z" fill="#080A12"/>
  <path d="M110.123 125.057C110.64 121.95 111.034 118.822 111.31 115.692C111.553 112.948 111.702 110.153 111.022 107.489C110.342 104.826 108.696 102.28 106.193 101.139C102.886 99.6318 99.2289 100.825 95.8048 101.129C92.0494 101.468 89.7562 100.367 86.7006 98.3324C80.8206 94.428 74.0919 90.8216 67.1868 89.1556C62.6788 88.0659 57.7788 88.2031 53.5413 90.0788C51.3343 91.0588 49.0745 93.0384 49.4782 95.4198C49.8506 97.6228 52.2849 98.8361 53.2963 100.829C49.4665 101.508 45.6837 102.423 41.9067 103.156C34.8507 104.528 27.7947 106.38 21.2915 109.493C19.0296 110.573 16.1269 111.298 14.2355 112.921C11.6875 115.11 10.1469 118.801 9.1081 121.895C3.7475 137.924 9.22178 156.662 21.4679 168.304C28.565 175.053 42.2909 180.848 48.6413 169.702C48.9098 169.229 49.1666 168.722 49.6115 168.412C50.1897 168.02 50.9502 168.032 51.6538 168.02C55.9658 167.985 58.9215 166.162 62.4711 164.081C66.0206 161.999 68.8665 163.675 71.6164 166.237C74.2238 168.662 77.2011 170.657 80.4364 172.146C81.5811 172.671 82.7884 173.14 84.0526 173.126C85.9283 173.1 87.6179 172.005 89.0487 170.79C91.9377 168.342 94.2407 165.278 96.3007 162.101C103.523 150.958 107.933 138.185 110.123 125.057V125.057Z" fill="#B9A197"/>
  <path d="M111.15 125.339C111.763 121.641 112.249 117.903 112.496 114.167C112.72 110.794 112.549 107.266 110.869 104.248C110.143 102.931 109.132 101.792 107.91 100.916C106.551 99.9494 104.909 99.4907 103.261 99.3712C100.003 99.136 96.8298 100.351 93.5723 100.1C90.6636 99.869 88.3156 98.1089 85.944 96.586C83.0304 94.6949 79.9927 93.0022 76.8515 91.5194C70.6422 88.6304 63.7372 86.443 56.8595 87.913C53.9509 88.5343 50.5091 89.826 48.9901 92.5896C48.2484 93.9052 48.1914 95.499 48.8372 96.8643C49.3939 98.0697 50.4327 98.9792 51.3186 99.9396C51.7356 100.372 52.0928 100.859 52.3809 101.386L53.0179 99.818C50.6777 100.234 48.3531 100.733 46.0286 101.231C43.7608 101.717 41.4833 102.152 39.2136 102.631C34.8526 103.554 30.5269 104.693 26.3423 106.237C24.2451 107.021 22.2361 107.95 20.1918 108.844C18.4278 109.616 16.5658 110.175 14.8998 111.164C11.5541 113.156 9.76268 116.95 8.4828 120.474C5.97204 127.387 5.43304 134.837 6.58748 142.082C7.76152 149.332 10.5772 156.217 14.8195 162.213C18.5552 167.487 23.3141 172.142 29.2451 174.859C34.4156 177.226 40.9188 178.302 45.7796 174.629C47.0589 173.652 48.1607 172.463 49.0372 171.113C49.2822 170.739 49.5017 170.351 49.7271 169.963C49.9231 169.623 50.0877 169.312 50.4778 169.179C50.8678 169.045 51.2735 169.1 51.6538 169.094C52.21 169.089 52.7655 169.053 53.3178 168.986C55.2839 168.728 57.193 168.143 58.9665 167.256C59.8191 166.844 60.6462 166.384 61.4655 165.911C62.2848 165.439 63.1198 164.833 64.0272 164.516C65.6854 163.928 67.2436 164.339 68.6901 165.26C70.3953 166.346 71.781 167.889 73.3804 169.12C75.0235 170.388 76.7791 171.503 78.6253 172.452C80.6108 173.469 82.7276 174.455 85.013 174.1C87.0729 173.781 88.831 172.432 90.3402 171.08C91.9122 169.638 93.3466 168.052 94.6248 166.344C97.1885 163.001 99.37 159.337 101.306 155.602C105.248 147.995 108.088 139.833 109.954 131.478C110.409 129.442 110.807 127.394 111.15 125.333C111.244 124.767 111.001 124.187 110.405 124.024C109.895 123.883 109.192 124.197 109.095 124.767C107.723 132.975 105.507 141.082 102.21 148.734C100.558 152.581 98.6317 156.305 96.4456 159.876C94.3249 163.332 91.9827 166.707 88.9663 169.449C87.6452 170.649 86.0145 171.997 84.1408 172.056C82.2023 172.115 80.2384 170.935 78.6018 170.017C76.8424 169.038 75.1795 167.894 73.6352 166.601C72.1397 165.347 70.7873 163.898 69.0331 162.989C67.3514 162.119 65.4463 161.813 63.6176 162.401C62.6376 162.718 61.7791 163.255 60.8991 163.773C60.0955 164.241 59.2899 164.704 58.4628 165.129C56.8693 165.946 55.1818 166.589 53.4021 166.842C52.4378 166.979 51.4656 166.897 50.5052 167.017C49.3292 167.164 48.5178 167.801 47.9239 168.808C47.1399 170.149 46.3108 171.368 45.1426 172.407C44.2037 173.224 43.1219 173.861 41.9518 174.286C39.4665 175.151 36.8558 175.035 34.3195 174.41C28.6767 173.018 23.8355 169.51 19.9606 165.237C15.2246 159.985 11.7608 153.713 9.83716 146.907C7.92812 140.194 7.52828 133.013 9.03356 126.176C9.79012 122.736 10.9269 119.191 12.836 116.208C13.7846 114.724 14.9684 113.507 16.5325 112.68C18.1887 111.807 19.9939 111.268 21.6893 110.48C25.6139 108.664 29.6891 107.192 33.8687 106.082C38.1631 104.928 42.5398 104.142 46.8851 103.211C49.1116 102.735 51.3382 102.258 53.5804 101.858C54.2919 101.733 54.5095 100.851 54.2174 100.29C53.6196 99.1536 52.671 98.2755 51.8066 97.3504C51.0854 96.5782 50.3641 95.6844 50.5091 94.5652C50.6483 93.4892 51.5577 92.5445 52.424 91.9349C53.6098 91.098 54.9818 90.5865 56.3715 90.2062C62.6239 88.4971 69.0958 90.363 74.8406 92.9189C77.8448 94.2722 80.7536 95.8281 83.5469 97.5758C86.0106 99.1007 88.3646 100.978 91.1909 101.796C94.1564 102.654 97.0807 101.992 100.062 101.621C101.575 101.435 103.145 101.327 104.635 101.713C105.928 102.053 107.089 102.775 107.967 103.783C109.927 105.974 110.45 109.007 110.452 111.849C110.452 115.296 109.989 118.783 109.499 122.189C109.369 123.052 109.235 123.912 109.097 124.771C109.003 125.337 109.246 125.917 109.84 126.082C110.348 126.223 111.055 125.91 111.15 125.339V125.339Z" fill="#080A12"/>
  <mask id="mask0_11_7863" style="mask-type:luminance" maskUnits="userSpaceOnUse" x="13" y="73" width="52" height="77">
    <path fill-rule="evenodd" clip-rule="evenodd" d="M13.563 73.5049L34.876 146.254C36.2127 150.813 41.5577 150.813 42.8924 146.254L64.1937 73.5049H13.563Z" fill="white"/>
  </mask>
  <g mask="url(#mask0_11_7863)">
    <path d="M13.563 73.5049L34.876 146.254C36.2127 150.813 41.5577 150.813 42.8924 146.254L64.1937 73.5049H13.563Z" fill="#F9DF77"/>
    <path d="M12.5319 73.789L13.1591 75.9293L14.8565 81.725L17.3379 90.1981L20.3367 100.431L23.5942 111.558L26.7988 122.501L29.6957 132.391L32.0183 140.315L33.4765 145.3C33.9449 146.897 34.4114 148.51 35.7854 149.612C37.6515 151.129 40.3428 151.067 42.1377 149.467C43.0648 148.659 43.6195 147.534 43.9586 146.372L44.9072 143.136L46.8496 136.505L49.5015 127.454L52.5924 116.901L55.8577 105.747L59.0153 94.9668L61.7809 85.5294L63.8839 78.3401L65.0599 74.3162L65.2109 73.7988C65.2955 73.4785 65.2276 73.1371 65.0269 72.8735C64.8262 72.61 64.5151 72.4538 64.1838 72.4503H15.6287C14.9702 72.4503 14.3077 72.4346 13.6491 72.4503H13.5629C12.9923 72.4748 12.5424 72.9445 12.5424 73.5156C12.5424 74.0867 12.9923 74.5564 13.5629 74.5808H62.1297C62.7863 74.5808 63.4508 74.6083 64.1093 74.5808H64.1936L63.1666 73.2324L62.5472 75.3472L60.8695 81.0763L58.4136 89.4651L55.4324 99.6394L52.2063 110.653L49.0173 121.546L46.1205 131.437L43.7802 139.425L42.2769 144.557L41.9241 145.758C41.9045 145.829 41.8849 145.899 41.8633 145.97V145.982C41.8261 146.105 41.7889 146.227 41.7438 146.348C41.7222 146.407 41.7007 146.466 41.6771 146.525C41.7595 146.311 41.6615 146.56 41.6399 146.605C41.5184 146.866 41.3748 147.117 41.2107 147.354L41.1146 147.487C41.2538 147.291 41.146 147.448 41.1048 147.487C41.0088 147.595 40.9088 147.705 40.8089 147.804C40.7089 147.904 40.6129 147.971 40.5247 148.057C40.7305 147.861 40.4482 148.108 40.3777 148.153C40.3071 148.198 40.1915 148.267 40.0954 148.318C40.0425 148.347 39.9876 148.371 39.9347 148.398C39.7269 148.514 40.1523 148.33 39.9347 148.398C39.7171 148.467 39.4878 148.524 39.2624 148.594C39.1821 148.616 39.1213 148.669 39.3389 148.594C39.2825 148.608 39.2244 148.614 39.1664 148.612C39.0397 148.619 38.9128 148.619 38.7861 148.612C38.6705 148.616 38.5548 148.606 38.4412 148.585C38.694 148.653 38.4725 148.585 38.3491 148.557C38.2256 148.53 38.1531 148.506 38.0453 148.475C37.9786 148.453 37.912 148.424 37.8493 148.404C37.6533 148.342 38.0453 148.512 37.8493 148.404C37.6533 148.296 37.4475 148.185 37.2613 148.055C37.2044 148.018 37.079 147.901 37.2613 148.055C37.2221 148.024 37.1829 147.993 37.1456 147.959C37.0284 147.857 36.9171 147.749 36.8124 147.634C36.7713 147.591 36.5596 147.336 36.638 147.438C36.7164 147.54 36.5184 147.267 36.4812 147.209C36.4028 147.087 36.3303 146.964 36.2636 146.838C36.2283 146.772 36.197 146.707 36.1637 146.642C36.1303 146.578 36.0225 146.299 36.1068 146.521C36.0363 146.325 35.9735 146.15 35.9108 145.96C35.8873 145.884 35.8657 145.805 35.8422 145.729L34.8367 142.297L32.8767 135.588L30.219 126.515L27.1163 115.931L23.8803 104.879L20.7561 94.2181L18.0121 84.8395L15.9227 77.7051L14.7644 73.7478L14.6135 73.2363C14.4608 72.6615 13.8711 72.3193 13.2963 72.4719C12.7215 72.6245 12.3793 73.2142 12.5319 73.789V73.789Z" fill="#F9DF77"/>
    <path d="M88.0682 121.672L85.922 120.259L80.1243 116.443L71.5591 110.806L61.0496 103.889L49.6051 96.3567L38.0529 88.7539L27.2533 81.645L18.1275 75.6395L11.5851 71.3275L8.48042 69.2832L8.34518 69.195C7.83959 68.9253 7.21119 69.1034 6.92234 69.5983C6.6335 70.0933 6.78753 70.728 7.2711 71.0355L9.4271 72.4467L15.2248 76.2628L23.79 81.8998L34.2877 88.8225L45.7322 96.3567L57.2825 103.96L68.086 111.072L77.2117 117.074L83.7542 121.386L86.8589 123.42L86.9941 123.511C87.4997 123.78 88.1281 123.602 88.4169 123.107C88.7058 122.612 88.5517 121.978 88.0682 121.67V121.672Z" fill="#080A12"/>
    <path d="M71.1555 98.274L69.8796 99.7812L66.4104 103.882L61.2811 109.944L55.0228 117.345L48.2039 125.4L41.2871 133.577L34.8367 141.2L29.3879 147.64L25.4679 152.27L23.6216 154.451L23.5413 154.546C23.1826 154.971 23.0944 155.641 23.5413 156.051C23.9333 156.415 24.6643 156.506 25.0485 156.051L26.3225 154.546L29.7917 150.445L34.923 144.381L41.1813 136.984L48.0079 128.924L54.9267 120.749L61.3771 113.125L66.8239 106.684L70.7439 102.057L72.5903 99.8753L72.6706 99.7793C73.0313 99.3559 73.1195 98.6856 72.6706 98.274C72.2786 97.9094 71.5495 97.8193 71.1653 98.274H71.1555Z" fill="#080A12"/>
    <path d="M71.1555 77.2842L69.8796 78.7915L66.4104 82.8918L61.2811 88.956L55.0228 96.3531L48.2039 104.409L41.2871 112.584L34.8367 120.208L29.3879 126.653L25.4679 131.28L23.6216 133.462L23.5413 133.558C23.1826 133.981 23.0944 134.651 23.5413 135.063C23.9333 135.426 24.6643 135.518 25.0485 135.063L26.3225 133.556L29.7917 129.456L34.923 123.391L41.1813 115.994L48.0079 107.937L54.9267 99.7595L61.3771 92.1371L66.8239 85.6965L70.7439 81.067L72.5903 78.8855L72.6706 78.7915C73.0313 78.3661 73.1195 77.6958 72.6706 77.2842C72.2786 76.9216 71.5495 76.8315 71.1653 77.2842H71.1555Z" fill="#080A12"/>
    <path d="M71.1553 56.2964L69.7833 57.9114L66.0593 62.3097L60.5517 68.8149L53.825 76.751L46.4593 85.4455L39.0172 94.2165L32.0827 102.401L26.2203 109.318L22.0044 114.295L20.0052 116.647L19.9189 116.749C19.5583 117.172 19.472 117.842 19.9189 118.254C20.3109 118.619 21.04 118.709 21.4242 118.254L22.7962 116.639L26.5202 112.241L32.0317 105.735L38.7584 97.7994L46.1241 89.1205L53.5623 80.3436L60.4968 72.1587L66.3592 65.2418L70.5751 60.2654L72.5743 57.9134L72.6606 57.8115C73.0212 57.3881 73.1094 56.7178 72.6606 56.3062C72.2686 55.9416 71.5394 55.8515 71.1553 56.3062V56.2964Z" fill="#080A12"/>
    <path d="M64.1722 38.9756L17.4556 101.943Z" fill="#E8AA4A"/>
    <path d="M63.2527 38.4386L61.9964 40.134L58.5919 44.7106L53.5743 51.4746L47.4199 59.7713L40.7147 68.8088L33.9449 77.9326L27.6003 86.4841L22.2691 93.6714L18.4393 98.8419L16.6126 101.302L16.5361 101.404C16.2029 101.854 16.4479 102.613 16.9183 102.862C17.475 103.156 18.0199 102.96 18.3766 102.47L19.6329 100.774L23.0296 96.1978L28.0472 89.4339L34.2036 81.1372L40.9087 72.0997L47.6766 62.9759L54.0231 54.4283L59.3543 47.241L63.19 42.0803L65.0167 39.6205L65.0932 39.5186C65.4264 39.0678 65.1814 38.3093 64.711 38.0603C64.1524 37.7663 63.6095 37.9623 63.2527 38.4425V38.4386Z" fill="#080A12"/>
    <path d="M61.8456 26.8433L60.407 28.5426L56.487 33.1663L50.6971 40.0047L43.6411 48.3484L35.9011 57.486L28.0925 66.7097L20.813 75.3063L14.6625 82.57L10.2447 87.7895L8.16121 90.2493L8.07105 90.3571C7.71041 90.7805 7.62221 91.4508 8.07105 91.8624C8.46305 92.227 9.19217 92.3171 9.57633 91.8624L11.015 90.1631L14.935 85.5394L20.7248 78.701L27.7808 70.3592L35.5169 61.2217L43.3256 51.998L50.605 43.3994L56.7555 36.1357L61.1753 30.9182L63.2568 28.4584L63.347 28.3506C63.7076 27.9252 63.7958 27.2549 63.347 26.8433C62.955 26.4807 62.2258 26.3906 61.8417 26.8433H61.8456Z" fill="#080A12"/>
    <path d="M67.7569 155.186L65.8635 153.939L60.7479 150.57L53.1412 145.568L43.9154 139.492L33.8136 132.828L23.5589 126.074L14.0529 119.812L5.97376 114.491L0.201557 110.688L-2.54244 108.885L-2.662 108.807C-2.99042 108.614 -3.39643 108.612 -3.7271 108.8C-4.05777 108.989 -4.26286 109.339 -4.26512 109.719C-4.26738 110.1 -4.06646 110.453 -3.73804 110.645L-1.84272 111.894L3.27288 115.263L10.8836 120.284L20.1093 126.36L30.2111 133.005L40.4658 139.759L49.9679 146.021L58.0451 151.342L63.8192 155.143L66.5632 156.948L66.6828 157.026C67.1884 157.296 67.8168 157.118 68.1056 156.623C68.3945 156.128 68.2405 155.493 67.7569 155.186V155.186Z" fill="#080A12"/>
    <path d="M74.5268 144.016L72.6334 142.767L67.5178 139.398L59.911 134.396L50.6853 128.32L40.5835 121.656L30.3288 114.904L20.8228 108.642L12.7436 103.322L6.97144 99.52L4.22744 97.7149L4.10788 97.6365C3.60229 97.3667 2.97389 97.5448 2.68504 98.0397C2.39619 98.5347 2.55022 99.1694 3.0338 99.4769L4.92716 100.723L10.0428 104.093L17.6554 109.112L26.8811 115.188L36.983 121.84L47.2377 128.595L56.7437 134.857L64.8228 140.178L70.595 143.981L73.339 145.784L73.4586 145.862C73.9662 146.159 74.6182 145.988 74.9148 145.48C75.2114 144.972 75.0403 144.32 74.5326 144.024L74.5268 144.016Z" fill="#080A12"/>
    <path d="M81.2984 132.844L79.4031 131.598L74.2875 128.226L66.6827 123.225L57.4569 117.149L47.3551 110.485L37.1004 103.73L27.5924 97.4701L19.5153 92.1507L13.7411 88.3483L10.9971 86.5451L10.8795 86.4667C10.5511 86.2745 10.1451 86.272 9.81441 86.4604C9.48374 86.6487 9.27864 86.9991 9.27639 87.3796C9.27413 87.7601 9.47505 88.1129 9.80346 88.3052L11.6968 89.5537L16.8144 92.9229L24.4251 97.9405L33.6508 104.017L43.7526 110.671L54.0073 117.425L63.5153 123.697L71.5925 129.016L77.3647 132.819L80.1087 134.622L80.2263 134.7C80.7065 135.018 81.4023 134.796 81.6845 134.308C81.97 133.799 81.8011 133.155 81.3023 132.852L81.2984 132.844Z" fill="#080A12"/>
    <path d="M94.8383 110.502L92.9449 109.253L87.8293 105.884L80.2226 100.88L70.9988 94.8041L60.897 88.1401L50.6403 81.386L41.1343 75.1238L33.0571 69.8043L27.283 66.0019L24.539 64.1968L24.4194 64.1184C23.9138 63.8486 23.2854 64.0267 22.9966 64.5217C22.7077 65.0166 22.8617 65.6513 23.3453 65.9588L25.2387 67.2054L30.368 70.5785L37.9669 75.5961L47.1926 81.6721L57.2945 88.3244L67.5492 95.0785L77.0552 101.351L85.1343 106.672L90.9065 110.474L93.6505 112.278L93.7701 112.356C94.0985 112.548 94.5043 112.55 94.8347 112.361C95.1651 112.173 95.3698 111.823 95.3717 111.442C95.3737 111.062 95.1726 110.709 94.8442 110.517L94.8383 110.502Z" fill="#080A12"/>
  </g>
  <path d="M12.5324 73.789L13.1596 75.9293L14.857 81.725L17.3383 90.1981L20.3371 100.431L23.5947 111.558L26.7993 122.501L29.6961 132.391L32.0187 140.315L33.477 145.3C33.9454 146.897 34.4119 148.51 35.7859 149.612C37.652 151.129 40.3433 151.067 42.1382 149.467C43.0653 148.659 43.62 147.534 43.9591 146.372L44.9077 143.136L46.8501 136.505L49.5019 127.454L52.5929 116.901L55.8582 105.747L59.0158 94.9668L61.7813 85.5294L63.8844 78.3401L65.0604 74.3162L65.2113 73.7988C65.296 73.4785 65.2281 73.1371 65.0274 72.8735C64.8267 72.61 64.5156 72.4538 64.1843 72.4503H15.6292C14.9707 72.4503 14.3082 72.4346 13.6496 72.4503H13.5634C12.9928 72.4748 12.5429 72.9445 12.5429 73.5156C12.5429 74.0867 12.9928 74.5564 13.5634 74.5808H62.1302C62.7868 74.5808 63.4513 74.6083 64.1098 74.5808H64.1941L63.1671 73.2324L62.5477 75.3472L60.8699 81.0763L58.4141 89.4651L55.4329 99.6394L52.2067 110.653L49.0178 121.546L46.1209 131.437L43.7807 139.425L42.2774 144.557L41.9246 145.758C41.905 145.829 41.8854 145.899 41.8638 145.97V145.982C41.8266 146.105 41.7893 146.227 41.7443 146.348C41.7227 146.407 41.7011 146.466 41.6776 146.525C41.7599 146.311 41.6619 146.56 41.6404 146.605C41.5189 146.866 41.3753 147.117 41.2111 147.354L41.1151 147.487C41.2543 147.291 41.1465 147.448 41.1053 147.487C41.0093 147.595 40.9093 147.705 40.8093 147.804C40.7094 147.904 40.6133 147.971 40.5251 148.057C40.7309 147.861 40.4487 148.108 40.3781 148.153C40.3076 148.198 40.1919 148.267 40.0959 148.318C40.043 148.347 39.9881 148.371 39.9352 148.398C39.7274 148.514 40.1527 148.33 39.9352 148.398C39.7176 148.467 39.4883 148.524 39.2629 148.594C39.1825 148.616 39.1218 148.669 39.3393 148.594C39.2829 148.608 39.2249 148.614 39.1669 148.612C39.0402 148.619 38.9133 148.619 38.7866 148.612C38.671 148.616 38.5553 148.606 38.4417 148.585C38.6945 148.653 38.473 148.585 38.3495 148.557C38.2261 148.53 38.1535 148.506 38.0457 148.475C37.9791 148.453 37.9125 148.424 37.8497 148.404C37.6537 148.342 38.0457 148.512 37.8497 148.404C37.6537 148.296 37.4479 148.185 37.2617 148.055C37.2049 148.018 37.0795 147.901 37.2617 148.055C37.2225 148.024 37.1833 147.993 37.1461 147.959C37.0288 147.857 36.9176 147.749 36.8129 147.634C36.7717 147.591 36.5601 147.336 36.6385 147.438C36.7169 147.54 36.5189 147.267 36.4817 147.209C36.4033 147.087 36.3307 146.964 36.2641 146.838C36.2288 146.772 36.1975 146.707 36.1641 146.642C36.1308 146.578 36.023 146.299 36.1073 146.521C36.0367 146.325 35.974 146.15 35.9113 145.96C35.8878 145.884 35.8662 145.805 35.8427 145.729L34.8372 142.297L32.8772 135.588L30.2195 126.515L27.1168 115.931L23.8808 104.879L20.7566 94.2181L18.0126 84.8395L15.9232 77.7051L14.7649 73.7478L14.6139 73.2363C14.4613 72.6615 13.8716 72.3193 13.2968 72.4719C12.722 72.6245 12.3798 73.2142 12.5324 73.789V73.789Z" fill="#080A12"/>
  <path d="M46.9541 73.5049C46.9541 73.5049 63.1006 77.3778 59.0669 91.0136C61.8325 81.5566 64.1943 73.5049 64.1943 73.5049H46.9541Z" fill="#080A12"/>
  <path d="M46.6719 74.5318C47.1952 74.6592 47.7087 74.8297 48.2164 75.0081C48.4771 75.1002 48.7338 75.2041 48.9906 75.2962C49.1317 75.3511 49.2728 75.406 49.412 75.4648L49.5237 75.5118C49.6962 75.5824 49.3512 75.4373 49.3983 75.4569L49.6452 75.5628C50.3057 75.8528 50.9545 76.1704 51.5856 76.5173C52.3076 76.9134 53.0047 77.3532 53.673 77.8344L53.92 78.0167L54.0337 78.1029C54.2297 78.2499 53.8377 77.952 53.9984 78.0755C54.1591 78.199 54.3335 78.344 54.4982 78.4832C54.8366 78.7693 55.1633 79.0699 55.4782 79.3848C55.7898 79.6984 56.0897 80.0296 56.37 80.3648L56.4778 80.5L56.519 80.551C56.615 80.6705 56.4288 80.4334 56.4327 80.4392C56.5013 80.5333 56.5719 80.6235 56.6405 80.7176C56.7796 80.9136 56.911 81.1096 57.0325 81.3056C57.2818 81.6942 57.5076 82.0973 57.7087 82.5129C57.7577 82.6148 57.8047 82.7089 57.8498 82.8226C57.8674 82.8618 57.9635 83.0852 57.8792 82.8834C57.7949 82.6815 57.8929 82.9186 57.9125 82.9676C58.0007 83.1911 58.0811 83.4165 58.1536 83.6458C58.3065 84.1176 58.4257 84.5997 58.5103 85.0884C58.5319 85.2099 58.5515 85.3314 58.5691 85.4549C58.5946 85.6195 58.5515 85.3177 58.5515 85.3196L58.5632 85.4196C58.573 85.4941 58.5809 85.5705 58.5887 85.645C58.6162 85.9116 58.6318 86.1781 58.6416 86.4447C58.658 87.0099 58.6371 87.5756 58.5789 88.1381C58.5789 88.2146 58.5632 88.291 58.5534 88.3655C58.5436 88.44 58.4966 88.7183 58.5534 88.3655C58.526 88.5203 58.5083 88.6771 58.4809 88.832C58.428 89.1436 58.3633 89.4533 58.2849 89.763C58.2065 90.0726 58.1242 90.4058 58.0301 90.7253L60.0842 91.2918L63.0242 81.2448C63.6449 79.1241 64.2668 77.0034 64.8901 74.8826C64.9979 74.5161 65.1037 74.1496 65.2115 73.7831C65.2954 73.4629 65.2272 73.1219 65.0266 72.8586C64.8261 72.5952 64.5155 72.4389 64.1845 72.4346H49.0847C48.3849 72.4346 47.6833 72.417 46.9855 72.4346H46.9541C46.3836 72.4591 45.9336 72.9288 45.9336 73.4999C45.9336 74.071 46.3836 74.5406 46.9541 74.5651H62.0638C62.7615 74.5651 63.4671 74.5945 64.1649 74.5651H64.1943L63.1673 73.2166L62.2029 76.5075C61.3967 79.2515 60.5918 82.0001 59.7882 84.7532C59.2041 86.7446 58.6214 88.7353 58.0399 90.7253C57.9101 91.2826 58.2433 91.8429 58.7949 91.995C59.3465 92.1471 59.9198 91.8368 60.094 91.2918C60.8015 88.881 61.0211 86.3094 60.4292 83.8438C59.916 81.8338 58.9187 79.9799 57.5244 78.444C56.2913 77.0895 54.8567 75.9333 53.2712 75.0159C51.9782 74.2569 50.6197 73.6154 49.2121 73.099C48.5775 72.8489 47.9273 72.6401 47.2658 72.4738H47.2364C46.6974 72.3444 46.0604 72.6443 45.9271 73.2186C45.7774 73.786 46.1081 74.3691 46.6719 74.5318V74.5318Z" fill="#080A12"/>
  <path d="M10.6918 62.4641C11.2008 62.4737 11.7041 62.3558 12.1559 62.1211C15.1214 60.4433 14.0845 53.2462 15.0194 50.4336C16.1331 47.0643 17.8964 43.946 20.2095 41.2549C24.6607 36.106 31.1189 32.8916 37.9671 32.8916H39.7762C46.1795 32.8916 52.2732 35.7003 56.6734 40.3082C58.9505 42.7053 60.7646 45.5029 62.0242 48.5598C63.3628 51.788 63.6862 55.316 64.9191 58.5794C64.998 58.8304 65.1222 59.0649 65.2856 59.2712C65.5227 59.4951 65.8009 59.6708 66.1049 59.7887C68.593 61.018 70.6325 62.9971 71.9359 65.4472C73.059 67.5209 73.6685 69.9376 73.2726 72.2621C72.8767 74.5867 71.3636 76.7721 69.1762 77.6482C66.9888 78.5243 64.1782 77.8442 62.8944 75.8685C62.7278 76.4134 62.1535 76.7172 61.6106 76.8818C59.938 77.3754 58.1323 77.0943 56.689 76.1155C55.6698 75.4118 54.7976 73.7635 53.5981 73.4362C52.6985 73.1853 51.3578 73.5048 50.4112 73.5048H10.6859C7.789 73.5048 5.43896 70.943 5.43896 67.7816C5.43896 65.9921 6.22296 64.1752 7.67924 63.0893C8.69452 62.3288 9.7196 62.4817 10.6918 62.4641V62.4641Z" fill="#0A6375"/>
  <path d="M10.692 63.5189C11.7406 63.4797 12.7108 63.1857 13.4712 62.4389C13.9697 61.9183 14.3565 61.3013 14.608 60.6259C15.1764 59.2539 15.3313 57.7114 15.4548 56.2414C15.5743 54.8145 15.6076 53.3778 15.7762 51.9568C15.7791 51.9114 15.7849 51.8662 15.7938 51.8216C15.7938 51.8118 15.7566 52.0587 15.7782 51.9411C15.7919 51.8667 15.7997 51.7902 15.8115 51.7177C15.835 51.5766 15.8605 51.4355 15.8899 51.2943C15.9615 50.9836 16.0511 50.6773 16.1584 50.3771C16.4896 49.4146 16.8824 48.4745 17.3344 47.5625C17.8019 46.6016 18.3255 45.669 18.9024 44.7695C19.4592 43.8949 20.0734 43.0581 20.7409 42.2646C21.3791 41.5056 22.0625 40.7856 22.7871 40.1086C23.1491 39.7676 23.5228 39.4377 23.9082 39.1188C24.0846 38.9718 24.265 38.8268 24.4472 38.6857C24.4859 38.652 24.5265 38.6206 24.5688 38.5916C24.6824 38.5073 24.7961 38.4211 24.9118 38.3387C25.7124 37.7536 26.5483 37.2181 27.4147 36.7355C27.8315 36.5042 28.2549 36.2853 28.6848 36.0789C28.8925 35.9789 29.1003 35.8829 29.31 35.7888L29.506 35.7025C29.506 35.7025 29.6667 35.6339 29.5726 35.6731C29.4786 35.7123 29.6393 35.6457 29.6412 35.6457L29.8862 35.5457C30.7861 35.1839 31.7078 34.8789 32.6459 34.6324C33.1261 34.5069 33.6083 34.3991 34.0963 34.3051C34.3237 34.2619 34.551 34.2227 34.7784 34.1855L35.1469 34.1306L35.2174 34.1208L35.3938 34.0993C36.7708 33.9676 38.1544 33.9172 39.5373 33.9483C40.3076 33.9483 41.0759 33.9738 41.8422 34.0463C42.0774 34.0679 42.3107 34.0953 42.5439 34.1247C42.6713 34.1404 42.5537 34.1247 42.5302 34.1247L42.7458 34.1561L43.1202 34.2149C43.618 34.2992 44.1139 34.3991 44.6039 34.5148C45.5669 34.7422 46.5143 35.0316 47.44 35.3811C47.9829 35.5771 48.1652 35.6633 48.6787 35.8985C49.1347 36.1076 49.5855 36.3317 50.0311 36.5708C50.9041 37.0409 51.7472 37.5646 52.5556 38.1388C52.7516 38.276 52.9378 38.4132 53.126 38.5543L53.2984 38.6857C53.2788 38.6719 53.2024 38.6112 53.2984 38.6857C53.3945 38.7601 53.5258 38.864 53.6375 38.9561C54.0178 39.2639 54.3882 39.5853 54.7488 39.9146C57.8319 42.7409 60.28 46.4355 61.5481 50.3594C62.2498 52.5291 62.6418 54.7812 63.269 56.9705C63.4277 57.5291 63.6041 58.0818 63.8021 58.6267C64.049 59.3049 64.3078 59.8948 64.9016 60.3358C65.2936 60.6239 65.7621 60.7925 66.1835 61.0257C66.6205 61.2681 67.0427 61.5365 67.4477 61.8293C67.481 61.8548 67.7417 62.0508 67.6162 61.9528C67.7005 62.0195 67.7848 62.0861 67.8671 62.1488C68.0729 62.3193 68.2748 62.4957 68.4708 62.68C68.8235 63.0095 69.1585 63.3576 69.4743 63.7227C69.7701 64.0572 70.0419 64.4122 70.2877 64.785C70.5726 65.2028 70.8344 65.636 71.0717 66.0825C71.5708 67.01 71.9326 68.0049 72.1458 69.0363C72.2576 69.5264 72.3174 70.0271 72.3242 70.5298V71.3138C72.3242 71.4529 72.3046 71.5901 72.2908 71.7293C72.2908 71.7881 72.2771 71.8489 72.2693 71.9077C72.285 71.7979 72.2595 71.9527 72.2556 71.9802C72.1737 72.4397 72.053 72.8915 71.8949 73.3306C71.8714 73.3933 71.8479 73.4561 71.8224 73.5168C71.8224 73.5168 71.7558 73.6775 71.8008 73.5756C71.8459 73.4737 71.7773 73.6246 71.7734 73.6325C71.744 73.6932 71.7166 73.754 71.6872 73.8128C71.5852 74.0225 71.4716 74.2283 71.35 74.4282C71.2285 74.6281 71.1168 74.7908 70.9894 74.9653C70.9169 75.0633 70.9894 74.9653 71.0051 74.9476C70.9639 75.0005 70.9208 75.0515 70.8796 75.1025C70.7934 75.2024 70.7052 75.2985 70.615 75.3984C70.468 75.5552 70.3132 75.7042 70.1525 75.8453L70.0408 75.9413L69.9937 75.9805C70.0878 75.9061 69.9271 76.0315 69.9055 76.0472L69.7428 76.1589C69.5602 76.276 69.3711 76.3827 69.1764 76.4784C69.0745 76.5333 68.9706 76.5823 68.8667 76.6313C68.7628 76.6803 68.8667 76.6313 68.8922 76.6313L68.6746 76.7136C68.4821 76.78 68.2857 76.835 68.0866 76.8782C67.9788 76.9017 67.871 76.9174 67.7652 76.939C67.6594 76.9605 67.8005 76.939 67.8162 76.939L67.6319 76.9586C67.4141 76.9756 67.1956 76.9808 66.9773 76.9743C66.8832 76.9743 66.7911 76.9645 66.697 76.9566L66.5108 76.939C66.6127 76.9488 66.6264 76.9566 66.5108 76.939C66.2968 76.902 66.0849 76.8542 65.8758 76.7959C65.7876 76.7704 65.6994 76.743 65.6112 76.7116C65.523 76.6803 65.2407 76.5607 65.4348 76.6509C65.2544 76.5666 65.0761 76.4784 64.9036 76.3765C64.8134 76.3216 64.7213 76.2647 64.6331 76.204C64.5763 76.1628 64.4175 76.0354 64.5567 76.1511C64.3908 76.0162 64.2343 75.8702 64.0882 75.714C64.0255 75.6473 63.9667 75.5768 63.906 75.5082C64.0471 75.6728 63.8276 75.3906 63.8001 75.3494C63.5757 74.992 63.1637 74.7981 62.7453 74.8528C62.3269 74.9076 61.9787 75.2011 61.8538 75.6042C61.8715 75.5513 61.9518 75.4513 61.8538 75.6042C61.8538 75.5905 61.9636 75.4807 61.8813 75.5689C61.8617 75.5905 61.7206 75.7238 61.8166 75.6434C61.9126 75.5631 61.7852 75.663 61.7715 75.6709L61.6049 75.7669C61.5951 75.7669 61.4501 75.8453 61.5559 75.7963C61.6618 75.7473 61.5148 75.812 61.503 75.8159L61.2678 75.8904C61.1463 75.9276 61.0228 75.959 60.8974 75.9864L60.6818 76.0276C60.6818 76.0276 60.5034 76.057 60.6073 76.0413C60.4995 76.057 60.0957 76.0785 59.8762 76.0766C59.7488 76.0766 59.6194 76.0668 59.4842 76.057L59.3215 76.0413C59.4862 76.0589 59.3058 76.0413 59.2784 76.0413C59.0087 75.9927 58.7422 75.9273 58.4807 75.8453C58.3592 75.8081 58.2376 75.7649 58.1181 75.7199C58.0985 75.7199 57.9338 75.6375 58.071 75.7003L57.9221 75.6297C57.6809 75.5004 57.4466 75.3584 57.2204 75.2044C57.1773 75.1769 57.0793 75.0809 57.2341 75.2181C57.2028 75.1887 57.1675 75.1632 57.1342 75.1338C57.0577 75.0613 56.9793 74.9927 56.9048 74.9202C56.7343 74.7536 56.5756 74.5791 56.4168 74.4027C56.1032 74.0539 55.7974 73.6971 55.4544 73.3796C55.0557 72.9955 54.5865 72.692 54.0726 72.4859C53.5682 72.317 53.0351 72.2503 52.5046 72.2899C51.9813 72.3095 51.4639 72.3839 50.9366 72.4251C50.3486 72.4721 49.7606 72.4506 49.1726 72.4506H13.9377C12.7068 72.4506 11.4603 72.5113 10.2333 72.429C10.0216 72.4153 10.3686 72.4604 10.1628 72.429C10.0608 72.4094 9.96676 72.3918 9.85896 72.3683C9.64507 72.3148 9.43436 72.2494 9.22784 72.1723C9.04164 72.1037 9.20432 72.1625 9.24156 72.1723L9.122 72.1174C9.02988 72.0703 8.93972 72.0253 8.84956 71.9763C8.65356 71.8704 8.48304 71.7411 8.2988 71.6235C8.16944 71.5411 8.41836 71.7352 8.2988 71.6235C8.26744 71.5921 8.2302 71.5666 8.19688 71.5392C8.11848 71.4725 8.04204 71.402 7.96952 71.3314C7.81006 71.1769 7.65893 71.014 7.51676 70.8434C7.38936 70.6905 7.4952 70.814 7.51676 70.8434L7.43836 70.7336C7.3776 70.6474 7.3188 70.5611 7.26196 70.471C7.14175 70.278 7.03247 70.0784 6.93464 69.8732C6.92092 69.8457 6.84056 69.6772 6.89348 69.7909C6.9464 69.9045 6.88172 69.7615 6.8778 69.7458C6.8386 69.6452 6.80136 69.5433 6.76608 69.44C6.69159 69.2159 6.63072 68.9875 6.5838 68.756C6.5838 68.7168 6.52108 68.4149 6.53676 68.5188C6.5332 68.4368 6.52535 68.355 6.51324 68.2738C6.49397 68.0234 6.48939 67.7721 6.49952 67.5212C6.49952 67.4016 6.5152 67.2801 6.525 67.1605C6.525 67.1272 6.5544 66.9528 6.525 67.1351C6.525 67.0841 6.54068 67.0331 6.55048 66.9822C6.59569 66.7265 6.65656 66.4738 6.73276 66.2256C6.76804 66.11 6.8092 65.9963 6.85036 65.8826C6.86016 65.8591 6.94052 65.6611 6.89348 65.7689C6.84644 65.8767 6.92092 65.7121 6.92288 65.7082C7.03447 65.4745 7.15946 65.2474 7.29724 65.0281C7.36192 64.9261 7.43052 64.8321 7.49324 64.7282C7.39132 64.8673 7.58732 64.6165 7.61672 64.5812C7.79008 64.3882 7.97463 64.2056 8.16944 64.0343C8.18708 64.0187 8.32624 63.9109 8.19884 64.0069C8.2498 63.9677 8.30272 63.9324 8.35564 63.8971C8.4722 63.8173 8.59549 63.7478 8.72412 63.6894C8.6026 63.7423 8.90248 63.6345 8.94168 63.6227L9.09848 63.5835C9.09848 63.5835 9.38464 63.5345 9.27096 63.5483C9.15728 63.562 9.36504 63.5483 9.39052 63.5483L9.54732 63.5385C9.66688 63.5385 9.7884 63.5385 9.90796 63.5287H10.6724C11.229 63.5169 11.7641 63.0485 11.7366 62.4644C11.7282 61.8798 11.2569 61.4076 10.6724 61.3981C9.41992 61.4275 8.18708 61.3981 7.1228 62.1821C6.15484 62.8935 5.39981 63.8559 4.93936 64.9653C4.05976 67.04 4.19225 69.4053 5.29804 71.3687C6.33236 73.2002 8.20743 74.3999 10.3039 74.5713C10.9174 74.6164 11.5406 74.585 12.1561 74.585H47.3596C48.6356 74.585 49.9351 74.6575 51.2071 74.536C51.761 74.4642 52.3186 74.4256 52.877 74.4204C52.9417 74.4204 53.2436 74.4478 53.0397 74.4204C53.1586 74.4411 53.2764 74.468 53.3925 74.5007C53.4592 74.5184 53.5415 74.5909 53.371 74.489C53.4082 74.5105 53.4494 74.5243 53.4846 74.5478C53.5983 74.6164 53.71 74.683 53.8159 74.7614C53.6512 74.6379 53.8688 74.8143 53.9178 74.8594C53.9982 74.9339 54.0785 75.0103 54.1569 75.0887C54.3392 75.273 54.5136 75.467 54.6861 75.6591C54.9986 76.0304 55.3373 76.3788 55.6994 76.7018C56.6275 77.4654 57.7502 77.9548 58.9413 78.115C60.1878 78.2914 61.55 78.1953 62.6829 77.6015C63.2642 77.2999 63.7071 76.7861 63.9197 76.1667L61.9734 76.4196C63.1063 78.1228 65.0486 79.0695 67.0694 79.1048C69.1171 79.1052 71.0579 78.1909 72.3614 76.6117C73.7631 74.9284 74.5031 72.7919 74.4429 70.6023C74.388 68.2758 73.5707 65.9845 72.3242 64.0363C71.1722 62.2094 69.6283 60.6615 67.8044 59.5048C67.3614 59.2284 66.9008 58.9971 66.4324 58.7659C66.3344 58.7169 66.2364 58.6659 66.1443 58.611C65.962 58.5032 66.0639 58.5542 66.1012 58.5855C66.1012 58.5855 66.0032 58.4581 66.0424 58.5248C66.0816 58.5914 65.9052 58.2367 65.9718 58.3915C65.9071 58.2445 65.8581 58.0877 65.8032 57.9348C65.4178 56.8184 65.0907 55.6827 64.8232 54.5323C64.2548 52.1901 63.7276 49.8596 62.7672 47.637C61.8937 45.605 60.7747 43.6876 59.4352 41.9275C56.8343 38.523 53.4768 35.7221 49.5529 33.966C47.6318 33.0925 45.604 32.4757 43.522 32.1314C41.8917 31.8967 40.2453 31.7919 38.5984 31.8178C36.8634 31.8043 35.1311 31.9592 33.426 32.2804C31.389 32.6893 29.4129 33.3579 27.546 34.2698C23.7613 36.1347 20.4873 38.8928 18.0067 42.3058C16.6695 44.142 15.5587 46.1327 14.6982 48.2348C14.3321 49.0387 14.0408 49.8745 13.828 50.7318C13.6896 51.4307 13.5959 52.1378 13.5477 52.8486C13.4222 54.3598 13.385 55.8807 13.1988 57.388C13.1988 57.4409 13.1851 57.4938 13.1792 57.5487C13.1792 57.5487 13.2086 57.3409 13.191 57.4644C13.1753 57.5565 13.1635 57.6487 13.1498 57.7408C13.1184 57.9368 13.0851 58.1328 13.0479 58.319C12.9811 58.6741 12.8953 59.0255 12.7911 59.3715C12.746 59.5185 12.699 59.6635 12.6461 59.8086C12.6284 59.8556 12.5442 59.9909 12.5579 60.032C12.5579 60.032 12.652 59.836 12.599 59.9321C12.5716 59.9811 12.552 60.034 12.5285 60.083C12.4638 60.2182 12.3913 60.3515 12.3129 60.475C12.2815 60.5279 12.2462 60.5808 12.211 60.6318C12.1757 60.6827 12.1639 60.7004 12.1404 60.7337C12.0483 60.8709 12.1894 60.6592 12.1953 60.6631C12.1069 60.7708 12.0127 60.8735 11.913 60.9709C11.8621 61.0179 11.8052 61.0591 11.7562 61.1081C11.7072 61.1571 11.8503 61.0277 11.8562 61.0297C11.8231 61.0502 11.791 61.0725 11.7602 61.0963C11.4354 61.2928 11.0617 61.3934 10.6822 61.3864C10.1255 61.4079 9.59044 61.8627 9.61788 62.4526C9.62535 63.0414 10.1031 63.5157 10.692 63.5189V63.5189Z" fill="#080A12"/>
  <path d="M37.9672 32.8818H39.7763C47.9044 32.8818 55.1035 37.2193 59.539 43.8872V44.5968C59.539 53.0052 49.8154 52.0722 46.4442 58.2854C41.4894 67.419 50.2702 79.6494 45.3016 88.785C43.1573 92.7226 35.0664 94.0907 35.0664 87.9774C35.0664 85.6254 36.4228 77.5894 32.6909 77.6424C30.8622 77.6659 30.3389 80.1355 30.3879 81.9642L30.7192 94.2357C30.7603 95.7234 30.7936 97.2541 30.2664 98.6457C29.7392 100.037 28.5024 101.27 27.0206 101.331C25.4722 101.394 24.1081 100.167 23.5103 98.7398C22.9125 97.3129 22.9223 95.7116 22.9223 94.1632L23.034 81.8564C23.0732 77.4248 23.0164 72.6659 20.4566 69.0478C19.0552 67.0682 17.0246 65.6236 15.4684 63.7656C10.6037 57.964 15.437 47.2369 19.4746 42.1311C23.9395 36.4863 30.7152 32.8818 37.9672 32.8818Z" fill="#D0624C"/>
  <path d="M37.9672 33.9481C38.9864 33.9481 40.0095 33.9265 41.0287 33.9834C41.4775 34.0069 41.9264 34.0461 42.3733 34.097L42.681 34.1343C42.485 34.1108 42.8025 34.1539 42.8574 34.1617C43.0769 34.195 43.2964 34.2303 43.5159 34.2715C44.3847 34.4282 45.2434 34.6364 46.0875 34.8948C46.5069 35.0241 46.9205 35.1633 47.3321 35.3162C47.5379 35.3926 47.7417 35.471 47.9436 35.5533L48.0847 35.6102C48.0847 35.6102 48.2454 35.6768 48.1435 35.6337L48.2023 35.6592L48.3865 35.7395C49.1847 36.0929 49.9627 36.49 50.717 36.9292C51.4726 37.3706 52.2041 37.8522 52.9083 38.3718L53.1905 38.5854C53.2885 38.658 53.1905 38.5854 53.1768 38.5737L53.2963 38.6658C53.4669 38.803 53.6374 38.9402 53.8079 39.0813C54.145 39.3616 54.4763 39.6536 54.7997 39.9516C55.5367 40.6347 56.233 41.3605 56.8851 42.1252C57.0399 42.3094 57.1948 42.4937 57.3437 42.6799L57.6005 43.0033C57.675 43.0993 57.6005 43.0033 57.6005 42.9915L57.724 43.1562C58.0376 43.5697 58.3355 43.9931 58.6236 44.4243L58.4786 43.8872C58.4786 44.3968 58.4786 44.9064 58.4453 45.416C58.4453 45.4984 58.4296 45.5787 58.4217 45.661C58.4217 45.7022 58.4119 45.7414 58.408 45.7826C58.408 45.7826 58.4413 45.5748 58.4198 45.6963C58.3884 45.8629 58.3649 46.0295 58.3296 46.1942C58.2651 46.5052 58.18 46.8117 58.0748 47.1114C58.0513 47.1781 58.0258 47.2447 58.0003 47.3074C57.9141 47.5309 58.0003 47.3074 58.0003 47.3074C58.0003 47.3074 57.8259 47.674 57.8043 47.6994C57.6714 47.9557 57.5221 48.2032 57.3575 48.4403L57.2438 48.5991C57.1203 48.7696 57.2928 48.5442 57.2438 48.5991C57.1497 48.7049 57.0635 48.8186 56.9694 48.9244C56.7838 49.1349 56.5875 49.3358 56.3814 49.5262C56.2853 49.6144 56.1854 49.7006 56.0854 49.7849L55.9345 49.9123C55.8992 49.9397 55.7013 50.0946 55.8345 49.9926C55.9678 49.8907 55.7895 50.026 55.7561 50.0495L55.5954 50.1671C55.468 50.2592 55.3387 50.3474 55.2034 50.4356C54.7193 50.759 54.2234 51.055 53.7079 51.3392C52.6711 51.9272 51.6049 52.4485 50.5719 53.0404C48.2631 54.3674 46.2345 56.0608 45.1192 58.5284C43.759 61.5527 43.6159 64.8749 43.9648 68.1324C44.1451 69.8239 44.4293 71.5036 44.7272 73.1794C44.8742 74.0026 45.0232 74.8239 45.1623 75.6471C45.2349 76.0646 45.3035 76.484 45.3681 76.9015L45.4563 77.4797L45.4975 77.7678C45.4975 77.8325 45.5426 78.1186 45.5171 77.9148C45.7429 79.5043 45.834 81.11 45.7895 82.7148C45.7725 83.1068 45.7425 83.5028 45.6994 83.9026C45.6896 83.9947 45.6778 84.0849 45.668 84.175C45.6896 83.979 45.668 84.175 45.6543 84.2515C45.6249 84.4475 45.5935 84.6435 45.5563 84.8395C45.4113 85.5989 45.1995 86.344 44.9232 87.066C44.8919 87.1503 44.8566 87.2366 44.8213 87.3208C44.8899 87.1484 44.8213 87.3404 44.7841 87.4051C44.7017 87.5894 44.6155 87.7716 44.5234 87.95C44.3906 88.2226 44.2373 88.4847 44.0647 88.734C44.0412 88.7673 43.9158 88.93 44.0216 88.7987C44.1275 88.6674 43.9961 88.8281 43.9687 88.8594C43.8825 88.9633 43.7923 89.0554 43.7002 89.1613C43.5042 89.3573 43.3082 89.5356 43.0926 89.716C42.9475 89.8394 43.2631 89.5944 43.1063 89.7062L42.9495 89.8198C42.8358 89.9002 42.7182 89.9766 42.5987 90.0511C42.3595 90.2014 42.1122 90.3381 41.8578 90.4608L41.6794 90.5431C41.6422 90.5607 41.4403 90.6548 41.5971 90.5803C41.7539 90.5058 41.552 90.598 41.5128 90.6136L41.2972 90.692C41.0326 90.7865 40.7631 90.8663 40.4897 90.9312C40.3662 90.9606 40.2408 90.986 40.1134 91.0096L39.9174 91.0409C39.741 91.0742 40.1604 91.0174 39.9174 91.0409C39.6505 91.0699 39.3822 91.0843 39.1138 91.084C38.9922 91.084 38.8707 91.084 38.7492 91.0684L38.5708 91.0527C38.3337 91.0331 38.7669 91.0899 38.5885 91.0527C38.3505 91.0127 38.1155 90.9571 37.8849 90.8861L37.6889 90.8214C37.5183 90.7626 37.6653 90.7724 37.7339 90.843C37.6363 90.7808 37.5325 90.7289 37.4243 90.6881C37.3282 90.6332 37.2283 90.5744 37.142 90.5117C37.0558 90.449 37.0107 90.3628 37.093 90.4784C37.1753 90.594 37.0813 90.4647 37.0283 90.4196C36.9379 90.3376 36.8522 90.2506 36.7716 90.1589C36.7324 90.1178 36.6991 90.0707 36.6599 90.0296C36.5913 89.9551 36.7402 90.1295 36.7383 90.1315C36.7363 90.1334 36.6814 90.0492 36.6716 90.0354C36.6069 89.9355 36.5423 89.8394 36.4854 89.7316L36.4031 89.569C36.3894 89.5415 36.3796 89.5121 36.3639 89.4847C36.3012 89.373 36.4345 89.6905 36.3992 89.565C36.3068 89.289 36.229 89.0083 36.1659 88.7242C36.1561 88.6713 36.1542 88.4616 36.1463 88.6125C36.1385 88.7634 36.1463 88.54 36.1463 88.4929C36.1326 88.3224 36.1267 88.1499 36.1267 87.9774C36.1267 87.5854 36.1561 87.1934 36.1816 86.8014C36.2581 85.6784 36.3463 84.5533 36.3639 83.4263C36.4125 82.1796 36.3038 80.9317 36.0405 79.7121C35.7818 78.642 35.2428 77.5189 34.2373 76.9681C33.6924 76.6674 33.069 76.5396 32.4498 76.6016C31.5701 76.7004 30.7783 77.1805 30.284 77.9148C29.3177 79.2574 29.2922 81.0724 29.3353 82.6541L29.5313 89.6082L29.6254 93.0852C29.6548 94.175 29.7175 95.2706 29.6509 96.3604C29.6509 96.4838 29.6333 96.6093 29.6215 96.7328C29.6215 96.77 29.5882 97.0326 29.6019 96.9386C29.5652 97.2028 29.5129 97.4646 29.4451 97.7226C29.3825 97.9743 29.3019 98.2213 29.204 98.4615C29.2707 98.3027 29.1707 98.5222 29.1472 98.5712C29.0943 98.6751 29.0374 98.779 28.9767 98.879C28.9159 98.9789 28.8708 99.0495 28.814 99.1338L28.7258 99.2553C28.7375 99.2396 28.8159 99.1455 28.7375 99.2376C28.5991 99.4048 28.4491 99.562 28.2887 99.708C28.2475 99.7433 28.0613 99.8884 28.1966 99.7904C28.1045 99.857 28.0104 99.9197 27.9104 99.9864C27.8105 100.053 27.7419 100.08 27.6537 100.126C27.5655 100.171 27.6693 100.126 27.687 100.116L27.5047 100.18C27.4126 100.21 27.3087 100.231 27.2244 100.255C27.0284 100.306 27.3244 100.255 27.1205 100.274C27.0225 100.274 26.9245 100.274 26.8246 100.274C26.7775 100.274 26.7266 100.274 26.6795 100.274C26.5247 100.274 26.8246 100.314 26.6795 100.274C26.4917 100.232 26.3065 100.179 26.1249 100.116C25.9681 100.057 26.2601 100.186 26.1131 100.116L25.9837 100.049C25.8835 99.9945 25.786 99.935 25.6917 99.8707L25.5702 99.7884C25.5859 99.7982 25.6839 99.8805 25.5898 99.8021C25.4957 99.7237 25.4389 99.6747 25.3683 99.6061C25.2093 99.4581 25.0625 99.2975 24.9293 99.1259C25.0292 99.2553 24.8861 99.0573 24.8587 99.0162C24.8038 98.9319 24.7509 98.8476 24.6999 98.7594C24.649 98.6712 24.6039 98.585 24.5588 98.4948C24.5294 98.436 24.5 98.3772 24.4745 98.3164C24.5216 98.4262 24.4745 98.289 24.453 98.2518C24.0923 97.2424 24.0218 96.425 24.0022 95.3549C23.9826 94.2847 24.0022 93.1616 24.0198 92.068L24.0825 85.0943C24.1198 81.0626 24.3942 76.8623 23.3632 72.9266C22.8703 70.9896 21.9606 69.1836 20.6976 67.6346C19.4471 66.1156 17.887 64.8906 16.5816 63.4324C16.4366 63.2716 16.2955 63.107 16.1563 62.9384L16.074 62.8365C16.0838 62.8483 16.1759 62.9796 16.1093 62.8796C16.0426 62.7797 15.9917 62.717 15.9348 62.6327C15.7253 62.3276 15.5367 62.0087 15.3703 61.6782C15.2939 61.5253 15.2233 61.3704 15.1547 61.2156C15.2292 61.3881 15.1665 61.2372 15.1351 61.1548C15.1038 61.0725 15.0665 60.9686 15.0332 60.8746C14.9172 60.5365 14.8197 60.1923 14.7412 59.8436C14.7 59.6613 14.6647 59.4771 14.6334 59.2909C14.6197 59.2066 14.6079 59.1184 14.5942 59.0341C14.5726 58.9087 14.5942 59.089 14.5942 59.0988C14.5942 59.042 14.5805 58.9832 14.5746 58.9244C14.5334 58.5559 14.5119 58.1854 14.504 57.815C14.4962 57.4446 14.504 57.031 14.5295 56.639C14.5413 56.4548 14.5569 56.2705 14.5746 56.0863C14.5746 55.9942 14.5922 55.8903 14.604 55.808C14.6157 55.7256 14.6451 55.463 14.6177 55.6727C14.8538 54.0459 15.2639 52.4492 15.8407 50.9099C15.9884 50.5179 16.1426 50.1226 16.3033 49.7241C16.3163 49.688 16.3313 49.6527 16.3484 49.6183L16.466 49.3498C16.5503 49.1538 16.6365 48.9578 16.7247 48.7755C17.0657 48.0411 17.4329 47.3225 17.8262 46.6195C18.5332 45.3394 19.3323 44.1125 20.2174 42.9484C20.1096 43.0895 20.1723 43.0092 20.239 42.9229L20.435 42.674C20.58 42.4937 20.729 42.3153 20.8799 42.1409C21.1798 41.79 21.4914 41.449 21.8109 41.1158C22.4342 40.4631 23.0931 39.8454 23.7846 39.2656C23.9453 39.1303 24.11 38.9951 24.2746 38.8638L24.5255 38.6678C24.4079 38.7579 24.649 38.5737 24.6882 38.5462C25.039 38.2816 25.3997 38.0288 25.7662 37.7838C26.5111 37.2869 27.2832 36.8321 28.079 36.4216C28.4847 36.2119 28.8943 36.0139 29.3118 35.8336L29.5999 35.7062C29.7136 35.6592 29.6097 35.7062 29.5882 35.7062L29.7332 35.6454C29.9449 35.5592 30.1566 35.4769 30.3702 35.3965C31.2089 35.0806 32.0656 34.8148 32.9359 34.6008C33.3631 34.4949 33.793 34.4015 34.2255 34.3205C34.4353 34.2832 34.643 34.246 34.8527 34.2146C34.9566 34.197 35.0625 34.1813 35.1683 34.1676L35.3055 34.15C36.1907 34.0429 37.0814 33.9885 37.9731 33.9873C38.5436 33.9628 38.9936 33.4931 38.9936 32.922C38.9936 32.3509 38.5436 31.8812 37.9731 31.8568C33.7066 31.8849 29.524 33.0449 25.8524 35.2182C22.3766 37.2843 19.4215 40.1207 17.2147 43.509C15.1626 46.6293 13.5279 50.173 12.7773 53.8499C12.0266 57.5269 12.2049 61.4528 14.6393 64.4574C16.0505 66.1979 17.885 67.5425 19.2943 69.2869C19.2943 69.2869 19.4158 69.4437 19.3393 69.3437C19.3746 69.3908 19.4099 69.4358 19.4432 69.4829C19.5216 69.5907 19.5961 69.6985 19.6706 69.8063C19.8378 70.0519 19.9933 70.3028 20.1371 70.5589C20.2645 70.7824 20.384 71.0097 20.4957 71.239C20.5428 71.339 20.5898 71.435 20.6349 71.537L20.7231 71.733C20.6682 71.6016 20.7427 71.7878 20.7603 71.8329C21.1475 72.8277 21.4319 73.8594 21.609 74.9121C21.7848 75.9492 21.8921 76.9968 21.9305 78.0481C21.9814 79.1418 21.9873 80.2374 21.9795 81.333C21.9638 83.981 21.9344 86.625 21.9089 89.2769L21.8736 93.242C21.8638 94.4788 21.8148 95.7253 21.9736 96.9562C22.1284 98.142 22.4401 99.3298 23.1594 100.308C23.8356 101.229 24.7489 101.993 25.872 102.295C28.2593 102.936 30.38 101.219 31.2365 99.1024C31.703 97.9578 31.803 96.6798 31.8049 95.4548C31.8049 94.1514 31.7461 92.8461 31.7109 91.5446L31.4953 83.5674C31.4796 82.9638 31.4502 82.3581 31.4502 81.7544C31.4502 81.5584 31.4502 81.3624 31.4717 81.1664C31.4717 81.0665 31.4874 80.9704 31.4972 80.8646C31.4972 80.8293 31.5227 80.6431 31.4972 80.7901C31.4717 80.9371 31.5149 80.6764 31.5168 80.6725C31.5501 80.4765 31.5913 80.2805 31.6423 80.0845C31.6677 79.9885 31.6952 79.8885 31.7265 79.8003L31.7657 79.6827C31.7775 79.6533 31.8579 79.4318 31.801 79.5808C31.7442 79.7298 31.8579 79.4652 31.8814 79.4181C31.9219 79.3384 31.967 79.26 32.0166 79.1829C32.0735 79.0908 32.1871 78.9712 32.046 79.1241C32.1107 79.0536 32.1813 78.985 32.242 78.9144C32.3616 78.7831 32.0793 79.0026 32.2773 78.885C32.3498 78.8419 32.4204 78.8027 32.4949 78.7635C32.3126 78.8615 32.4321 78.8007 32.5458 78.7635C32.5831 78.7517 32.7418 78.7223 32.5889 78.7478C32.4361 78.7733 32.6615 78.7478 32.6811 78.7478H32.8496C33.1103 78.7478 32.7007 78.7066 32.832 78.7478C32.9633 78.789 33.075 78.8184 33.1946 78.8478C33.222 78.8478 32.9555 78.7204 33.1377 78.8321L33.2828 78.9164C33.3016 78.9312 33.3212 78.9449 33.3416 78.9575C33.4709 79.034 33.2436 78.8909 33.2397 78.8791C33.2534 78.9183 33.3514 78.9771 33.3827 79.0085C33.4141 79.0398 33.4592 79.0928 33.4984 79.1339C33.6454 79.2848 33.3827 78.9516 33.4709 79.0967C33.5395 79.2084 33.614 79.3142 33.6669 79.4299C33.6963 79.4848 33.7238 79.5416 33.7512 79.5984C33.8531 79.8062 33.7316 79.5396 33.7512 79.5769C33.7943 79.716 33.8512 79.8493 33.8943 79.9904C33.9825 80.2928 34.0513 80.6005 34.1001 80.9116C34.1001 80.9548 34.1373 81.2194 34.1217 81.0332C34.106 80.847 34.1217 81.1076 34.1354 81.1586C34.155 81.3311 34.1707 81.5036 34.1824 81.676C34.2079 82.019 34.2216 82.362 34.2275 82.707C34.2471 84.0398 34.1471 85.3706 34.0531 86.6995C33.959 88.0284 33.9531 89.3102 34.5019 90.545C35.6779 93.2146 38.9393 93.6654 41.4619 92.9206C42.8161 92.5324 44.0554 91.82 45.0722 90.8449C46.2482 89.6905 46.9283 88.0794 47.3615 86.5133C48.3807 82.8285 47.8613 78.936 47.2341 75.2335C46.9146 73.348 46.5441 71.4703 46.2697 69.5789L46.2227 69.2418C46.2227 69.2124 46.1913 69.0105 46.209 69.1438C46.2266 69.2771 46.209 69.1085 46.209 69.0948C46.1757 68.84 46.1443 68.5852 46.1169 68.3304C46.0659 67.8718 46.0228 67.4131 45.9914 66.9584C45.9241 66.0453 45.9123 65.1289 45.9561 64.2144C45.9659 64.0008 45.9816 63.7871 45.9993 63.5735C45.9993 63.4833 46.0169 63.3912 46.0247 63.301C46.0326 63.2109 46.0385 63.1795 46.0463 63.1188C46.0463 63.0913 46.0796 62.8385 46.06 62.9894C46.0463 63.1031 46.0835 62.8287 46.0933 62.7718C46.109 62.666 46.1267 62.5621 46.1463 62.4582C46.1855 62.2348 46.2305 62.0133 46.2815 61.7918C46.3784 61.3634 46.4968 60.9402 46.6363 60.5237C46.7049 60.3277 46.7793 60.1219 46.8577 59.924C46.8695 59.8946 46.9401 59.7162 46.8911 59.8377C46.8421 59.9592 46.9028 59.8103 46.9087 59.7966C46.9597 59.6829 47.0087 59.5712 47.0616 59.4594C47.2379 59.0822 47.4376 58.7163 47.6594 58.3638C47.7515 58.2207 47.8554 58.0796 47.9475 57.9424C47.9769 57.9032 48.0063 57.866 48.0337 57.8268C48.0337 57.8268 47.9005 57.9894 47.9769 57.8993C48.0533 57.8091 48.0965 57.7503 48.1572 57.6778C48.6104 57.1501 49.1132 56.667 49.6586 56.2352C49.8056 56.1157 49.4822 56.3666 49.6939 56.2078L49.8899 56.0628C50.031 55.9589 50.176 55.857 50.323 55.759C50.6072 55.563 50.8973 55.3846 51.1893 55.2082C51.7891 54.8495 52.4026 54.5163 53.02 54.187C54.2097 53.552 55.419 52.9366 56.5284 52.1624C57.6926 51.347 58.753 50.3748 59.4684 49.1342C60.2681 47.7622 60.5836 46.1942 60.5875 44.6262C60.6003 44.353 60.5944 44.0792 60.5699 43.8069C60.4954 43.262 59.9603 42.7014 59.6369 42.2663C59.0129 41.4213 58.3429 40.6113 57.6299 39.8398C56.2388 38.3496 54.6786 37.0268 52.9808 35.8983C49.5708 33.6094 45.633 32.2291 41.5403 31.8881C40.3486 31.794 39.153 31.8176 37.9593 31.8176C37.3888 31.842 36.9388 32.3117 36.9388 32.8828C36.9388 33.4539 37.3888 33.9236 37.9593 33.9481H37.9672Z" fill="#080A12"/>
  <path d="M54.3568 43.8856V38.723C54.3568 30.4498 47.9143 23.7427 39.9684 23.7427C32.0226 23.7427 25.582 30.4498 25.582 38.723V39.311" fill="#D0624C"/>
  <path d="M55.4209 43.8855V40.8906C55.4209 39.7989 55.4581 38.6954 55.3817 37.6037C55.0936 33.5425 53.3296 29.6343 50.3484 26.8374C47.4383 24.0619 43.5382 22.5668 39.5185 22.6858C35.4988 22.8047 31.694 24.5278 28.9531 27.4705C26.1404 30.4795 24.5578 34.4336 24.5176 38.5523V39.3206C24.5421 39.8912 25.0117 40.3412 25.5828 40.3412C26.1539 40.3412 26.6236 39.8912 26.6481 39.3206C26.6373 38.5657 26.6667 37.8106 26.7363 37.0588C26.7578 36.9462 26.7716 36.8322 26.7775 36.7177C26.7873 36.9745 26.7579 36.8589 26.7775 36.7648C26.7775 36.7079 26.7931 36.6511 26.8029 36.5943C26.8402 36.3493 26.8853 36.1043 26.9343 35.8593C27.0303 35.3987 27.1459 34.942 27.2812 34.4873C27.4164 34.0325 27.5791 33.5837 27.7594 33.1447C27.7888 33.0702 27.8731 32.9487 27.7398 33.1858C27.7712 33.129 27.7927 33.0643 27.8182 33.0055C27.8633 32.9055 27.9084 32.8095 27.9554 32.7056C28.0573 32.4881 28.1632 32.2744 28.2749 32.0627C28.4892 31.659 28.7192 31.267 28.9648 30.8867C29.0824 30.7064 29.2039 30.5281 29.3294 30.3517C29.3921 30.2635 29.4548 30.1772 29.5254 30.091C29.5667 30.0415 29.6053 29.9898 29.641 29.9361C29.4921 30.1851 29.5842 30.0106 29.641 29.9499C30.2112 29.2288 30.8477 28.5628 31.5422 27.9605C31.7029 27.8213 31.8676 27.6841 32.0342 27.5528C32.0557 27.5351 32.2302 27.4038 32.0773 27.5175C31.9244 27.6312 32.1008 27.5018 32.1224 27.4842C32.2243 27.4077 32.3282 27.3333 32.4321 27.2588C32.794 26.9975 33.1697 26.7564 33.5591 26.5355C33.9511 26.3062 34.3646 26.0965 34.7801 25.9064C34.8585 25.8731 35.2329 25.7339 34.9095 25.8476C35.0095 25.8123 35.1055 25.7653 35.2055 25.7261C35.4269 25.6398 35.6484 25.5595 35.8719 25.485C36.3031 25.3419 36.7401 25.2184 37.1831 25.1185C37.3948 25.0695 37.6084 25.0263 37.824 24.9871L38.1474 24.9342C38.2121 24.9342 38.2787 24.9205 38.3434 24.9048C38.0377 24.9754 38.2454 24.9185 38.3219 24.9048C39.2539 24.7931 40.1949 24.7754 41.1305 24.8519C41.3501 24.8695 41.5696 24.9107 41.7891 24.9225C41.4402 24.9029 41.8185 24.9225 41.8989 24.9401L42.2909 25.0067C42.7404 25.093 43.1833 25.1995 43.6197 25.3262C44.0647 25.4575 44.4998 25.6085 44.929 25.7829C44.978 25.8025 45.027 25.826 45.078 25.8437C44.8075 25.7476 44.9604 25.7947 45.029 25.8241L45.3504 25.9691C45.5621 26.0691 45.7718 26.1749 45.9796 26.2847C46.3716 26.495 46.7564 26.7224 47.134 26.9667C47.3104 27.0843 47.4868 27.2059 47.6593 27.3293L47.9141 27.5253C48.1003 27.6625 47.7181 27.3705 47.9004 27.5155C47.9513 27.5547 48.0023 27.5939 48.0513 27.6351C48.7626 28.2127 49.4188 28.855 50.0113 29.5539C50.1485 29.7147 50.272 29.8969 50.417 30.0518C50.1936 29.8146 50.4366 30.0831 50.4837 30.1439C50.5601 30.2478 50.6365 30.3536 50.7091 30.4595C50.9704 30.8319 51.2134 31.2147 51.4382 31.608C51.6655 32 51.8733 32.4136 52.0654 32.8291C52.1144 32.9389 52.1634 33.0486 52.2104 33.1603C52.2575 33.2721 52.1085 32.9055 52.1928 33.1172C52.2183 33.178 52.2418 33.2407 52.2673 33.3015C52.3555 33.5269 52.4397 33.7542 52.5181 33.9835C52.8232 34.8759 53.0457 35.7945 53.1826 36.7275C53.1963 36.8255 53.1649 36.9921 53.1826 36.7158C53.1848 36.7618 53.19 36.8076 53.1983 36.853C53.212 36.9667 53.2257 37.0803 53.2355 37.194C53.261 37.4469 53.2786 37.7017 53.2923 37.9545C53.3061 38.2073 53.31 38.517 53.31 38.7973V43.8933C53.3345 44.4639 53.8041 44.9138 54.3752 44.9138C54.9463 44.9138 55.416 44.4639 55.4405 43.8933L55.4209 43.8855Z" fill="#080A12"/>
  <path d="M32.3622 46.8905C31.9324 46.4607 31.9324 45.7639 32.3622 45.3341V45.3341C32.792 44.9043 33.4888 44.9043 33.9186 45.3341L36.9108 48.3263C37.3406 48.7561 37.3406 49.4529 36.9108 49.8827V49.8827C36.481 50.3125 35.7842 50.3125 35.3544 49.8827L32.3622 46.8905Z" fill="#9F69FC"/>
  <path d="M42.5171 39.9072C42.2132 39.3808 42.3935 38.7077 42.9199 38.4038L46.5846 36.288C47.111 35.9841 47.7841 36.1645 48.088 36.6908V36.6908C48.3919 37.2172 48.2115 37.8903 47.6851 38.1942L44.0204 40.31C43.4941 40.6139 42.821 40.4336 42.5171 39.9072V39.9072Z" fill="#9F69FC"/>
  <path d="M19.9961 62.4126C19.4697 62.1087 19.2893 61.4356 19.5932 60.9092L21.7091 57.2445C22.013 56.7181 22.686 56.5378 23.2124 56.8417V56.8417C23.7388 57.1456 23.9192 57.8187 23.6152 58.345L21.4994 62.0097C21.1955 62.5361 20.5224 62.7165 19.9961 62.4126V62.4126Z" fill="#9F69FC"/>
  <path d="M30.2405 62.3595C30.0435 61.7845 30.3499 61.1587 30.9249 60.9617L34.9282 59.5903C35.5032 59.3933 36.129 59.6998 36.326 60.2748V60.2748C36.523 60.8498 36.2165 61.4756 35.6415 61.6726L31.6383 63.044C31.0633 63.241 30.4374 62.9345 30.2405 62.3595V62.3595Z" fill="#9F69FC"/>
  <path d="M35.2297 73.9954C34.9524 73.4546 35.166 72.7913 35.7068 72.5139V72.5139C36.2477 72.2366 36.9109 72.4502 37.1883 72.991L39.1193 76.7564C39.3966 77.2972 39.183 77.9605 38.6422 78.2378V78.2378C38.1014 78.5152 37.4381 78.3016 37.1607 77.7608L35.2297 73.9954Z" fill="#9F69FC"/>
  <path d="M19.1509 57.531H19.0431C18.1062 57.4549 17.4028 56.6425 17.4614 55.7043C17.5526 53.4127 17.9826 51.1472 18.7374 48.9815C18.9334 48.4386 19.1549 47.9094 19.394 47.4135C19.6174 46.947 19.8624 46.4923 20.1231 46.0631C21.2344 44.2305 22.9063 42.8251 24.1725 41.9471C24.5884 41.6555 25.1135 41.5667 25.6022 41.705C26.091 41.8433 26.4915 42.1942 26.693 42.6605C27.0238 43.426 26.7466 44.3183 26.0403 44.7616L25.9345 44.8283C25.8718 44.8577 24.3841 45.5691 23.018 47.8231C22.822 48.1563 22.626 48.5111 22.4477 48.8796C22.2509 49.2919 22.0749 49.7138 21.9204 50.1438C21.2759 52.0104 20.9113 53.9622 20.8385 55.9356C20.7886 56.831 20.0477 57.5314 19.1509 57.531V57.531Z" fill="white"/>
  <path d="M32.0247 38.5364C31.1038 38.5356 30.3524 37.799 30.3332 36.8783C30.2607 33.3718 31.4563 30.6651 33.6123 29.4499C34.4205 29.046 35.4035 29.3478 35.8458 30.1357C36.2882 30.9235 36.0341 31.9199 35.2685 32.3997C34.2493 32.974 33.6672 34.6223 33.7122 36.8077C33.7217 37.2569 33.5523 37.6914 33.2413 38.0156C32.9303 38.3398 32.5032 38.5272 32.0541 38.5364H32.0247Z" fill="white"/>
  <path d="M1.67969 44.146L5.58401 46.0982Z" fill="#E8AA4A"/>
  <path d="M1.14281 45.0654L4.56301 46.7843L5.04713 47.0254C5.54497 47.2743 6.22313 47.1744 6.50341 46.6432C6.75821 46.161 6.65433 45.4535 6.11141 45.1869L2.69121 43.4758L2.20709 43.2348C1.70925 42.9858 1.03109 43.0858 0.750805 43.6268C0.494045 44.1089 0.599885 44.8165 1.13301 45.083L1.14281 45.0654Z" fill="#080A12"/>
  <path d="M7.71436 35.9805L8.957 38.8205Z" fill="#E8AA4A"/>
  <path d="M6.79543 36.5177L7.88323 39.0069L8.03807 39.3577C8.17759 39.5978 8.40554 39.7737 8.67311 39.8477C8.94576 39.9229 9.23709 39.8866 9.483 39.7469C9.72891 39.6072 9.90926 39.3756 9.98435 39.1029L10.0216 38.8207C10.0224 38.6319 9.97228 38.4464 9.87655 38.2837L8.78679 35.7945L8.63391 35.4436C8.4941 35.203 8.26532 35.027 7.99691 34.9536C7.42978 34.7984 6.84404 35.1316 6.68763 35.6984L6.65039 35.9807C6.6499 36.1694 6.69998 36.3549 6.79543 36.5177V36.5177Z" fill="#080A12"/>
  <path d="M5.58401 54.4399L1.67969 55.3278Z" fill="#E8AA4A"/>
  <path d="M5.30179 53.4148L1.88355 54.1988L1.39551 54.3085C0.831357 54.4694 0.500645 55.0532 0.652666 55.6198C0.81964 56.1781 1.39699 56.5057 1.96195 56.3626L5.38019 55.5786L5.86823 55.4669C6.43211 55.3069 6.76298 54.7237 6.61107 54.1576C6.44494 53.5986 5.86688 53.2706 5.30179 53.4148V53.4148Z" fill="#080A12"/>
  <path d="M76.1438 16.1885H76.036C75.5577 22.4899 71.8455 27.4977 67.1748 28.1445V28.2856C71.8455 28.9324 75.5577 33.9402 76.036 40.2416H76.1418C76.62 33.9422 80.3323 28.9344 85.003 28.2856V28.1445C80.3342 27.4977 76.624 22.4899 76.1438 16.1885Z" fill="#F9DF77"/>
  <path d="M76.1441 15.1245H76.0363C75.4541 15.138 74.9854 15.6067 74.972 16.1888C74.9504 16.475 74.9191 16.7592 74.8857 17.0434C74.8524 17.3276 74.923 16.8023 74.8857 17.0669C74.874 17.1433 74.8642 17.2198 74.8524 17.2942C74.8289 17.4445 74.8034 17.5954 74.776 17.747C74.6738 18.3119 74.543 18.8712 74.384 19.4228C74.2291 19.9559 74.041 20.4773 73.8371 20.9908C73.7431 21.224 73.9351 20.7693 73.8371 20.9908L73.7529 21.1868L73.6059 21.5063C73.4863 21.7552 73.3589 22.0022 73.2256 22.2452C72.977 22.6975 72.7028 23.1353 72.4044 23.5564C72.317 23.6553 72.2383 23.7615 72.1692 23.874C72.2672 23.6662 72.2593 23.7583 72.1966 23.8387C72.1613 23.8798 72.128 23.923 72.0947 23.9641C71.9314 24.164 71.7628 24.36 71.589 24.5521C71.2621 24.9022 70.9117 25.2296 70.5404 25.5321C70.4953 25.5713 70.4424 25.6066 70.3973 25.6478C70.6169 25.44 70.4816 25.5831 70.4189 25.6282C70.3562 25.6732 70.2562 25.7477 70.1739 25.8065C69.9779 25.9437 69.7819 26.0731 69.5663 26.1985C69.3507 26.324 69.1175 26.4474 68.8842 26.5572L68.7235 26.6297C68.5275 26.7218 68.9646 26.5337 68.7607 26.614C68.6333 26.665 68.5059 26.714 68.3785 26.7591C67.8993 26.9261 67.4051 27.0462 66.9027 27.1178C66.4479 27.1824 66.1187 27.7214 66.1187 28.1448V28.2859C66.1187 28.7034 66.446 29.2483 66.9027 29.313C67.3418 29.376 67.7746 29.477 68.1963 29.6148C68.3923 29.6814 68.5883 29.7638 68.7999 29.8382C68.4569 29.7128 68.8411 29.8598 68.9215 29.899C69.0018 29.9382 69.1331 30.0029 69.239 30.0578C69.6451 30.2743 70.0343 30.5213 70.4032 30.7967C70.4659 30.8437 70.5992 30.9927 70.3817 30.779C70.4267 30.8202 70.4797 30.8555 70.5247 30.8947C70.6051 30.9594 70.6835 31.026 70.7619 31.0907C70.9579 31.2534 71.1323 31.4258 71.3087 31.6022C71.4851 31.7786 71.6341 31.9374 71.787 32.1118C71.8732 32.2079 71.9555 32.3078 72.0379 32.4058C72.0731 32.447 72.1065 32.4901 72.1398 32.5313L72.2005 32.6077C72.2691 32.6959 72.2554 32.6763 72.1535 32.547C72.2804 32.7528 72.4219 32.9493 72.5769 33.135C72.7278 33.3584 72.8709 33.5858 73.0081 33.819C73.2762 34.276 73.5196 34.7471 73.7372 35.2302L73.8215 35.4262C73.9234 35.6555 73.7313 35.2008 73.8215 35.4262L73.9528 35.7574C74.0547 36.0279 74.1488 36.3023 74.2389 36.5767C74.4357 37.1915 74.5966 37.8171 74.7211 38.4505C74.7939 38.7738 74.8482 39.101 74.8838 39.4305C74.8642 39.1698 74.8701 39.3188 74.8838 39.3776C74.8955 39.4795 74.9093 39.5834 74.921 39.6853C74.9406 39.8676 74.9563 40.0498 74.97 40.2302C75.0151 40.8044 75.4208 41.2964 76.0343 41.2964H76.1401C76.723 41.2829 77.192 40.813 77.2044 40.2302C77.2279 39.946 77.2573 39.6618 77.2907 39.3776C77.324 39.0934 77.2534 39.6186 77.2907 39.354L77.3259 39.1247C77.3495 38.9738 77.3749 38.8229 77.4024 38.6739C77.5045 38.109 77.6353 37.5497 77.7944 36.9981C77.9512 36.465 78.1374 35.9436 78.3432 35.4301C78.4353 35.1969 78.2452 35.6516 78.3432 35.4301L78.4294 35.2341C78.4765 35.1283 78.5255 35.0224 78.5764 34.9166C78.694 34.6677 78.8214 34.4207 78.9547 34.1777C79.2035 33.7251 79.4784 33.2872 79.7779 32.8664C79.8647 32.7675 79.9427 32.6613 80.0111 32.5489C79.9151 32.7567 79.921 32.6626 79.9857 32.5842L80.0856 32.4588C80.2483 32.2628 80.4169 32.0668 80.5933 31.8708C80.9185 31.5198 81.2683 31.1923 81.6399 30.8908C81.6869 30.8516 81.7399 30.8163 81.783 30.7751C81.5635 30.9829 81.6987 30.8398 81.7614 30.7928C81.8241 30.7457 81.9241 30.6732 82.0084 30.6164C82.2044 30.4792 82.4004 30.3498 82.616 30.2244C82.8316 30.0989 83.0648 29.9754 83.2981 29.8657L83.4588 29.7932C83.6548 29.701 83.2157 29.8892 83.4196 29.8088C83.547 29.7579 83.6744 29.7069 83.8116 29.6618C84.2907 29.4949 84.785 29.3754 85.2875 29.3051C85.7402 29.2404 86.0715 28.7014 86.0715 28.2781V28.137C86.0715 27.7195 85.7441 27.1746 85.2875 27.1099C84.843 27.0479 84.4049 26.9469 83.9782 26.8081C83.7822 26.7414 83.5862 26.6572 83.3725 26.5846C83.7155 26.7101 83.3333 26.5631 83.251 26.5239C83.1687 26.4847 83.0393 26.42 82.9355 26.3632C82.5249 26.1477 82.1317 25.9007 81.7595 25.6242C81.6967 25.5792 81.5635 25.4282 81.781 25.6438C81.7379 25.6027 81.685 25.5674 81.6379 25.5282C81.5576 25.4635 81.4792 25.3969 81.4027 25.3322C81.2067 25.1676 81.0303 24.997 80.8539 24.8206C80.6775 24.6442 80.5305 24.4855 80.3757 24.311C80.2914 24.215 80.2071 24.115 80.1248 24.017L80.0229 23.8916L79.9621 23.8152L80.0092 23.8759C79.8828 23.6697 79.7413 23.4732 79.5858 23.2879C79.4349 23.0664 79.2918 22.8371 79.1546 22.6058C78.8859 22.1488 78.6431 21.677 78.4275 21.1927L78.3412 20.9967C78.2413 20.7693 78.4333 21.2221 78.3412 20.9967C78.2961 20.885 78.253 20.7752 78.2099 20.6635C78.106 20.393 78.0139 20.1206 77.9218 19.8442C77.7255 19.2301 77.5651 18.6051 77.4416 17.9724C77.3672 17.6493 77.3122 17.322 77.2769 16.9924C77.2985 17.2531 77.2907 17.1041 77.2769 17.0453C77.2652 16.9434 77.2515 16.8395 77.2417 16.7376C77.2221 16.5553 77.2064 16.373 77.1907 16.1908C77.1476 15.638 76.7321 15.099 76.1264 15.1265C75.5874 15.15 75.0151 15.5969 75.0621 16.1908C75.4169 20.7497 77.4141 25.6399 81.5301 28.039C82.5048 28.6183 83.5823 29.0037 84.7034 29.1738L83.9194 28.1468V28.2879L84.7034 27.2608C80.2326 27.8978 77.1554 31.9786 75.8579 36.022C75.4303 37.3932 75.1626 38.8092 75.0602 40.2419L76.1245 39.1776H76.0363L77.1025 40.2419C76.7458 35.6849 74.7407 30.7947 70.6345 28.3937C69.66 27.8159 68.5833 27.4313 67.4632 27.2608L68.2472 28.2879V28.1468L67.4632 29.1738C71.934 28.5368 75.0092 24.4561 76.3067 20.4106C76.7363 19.0398 77.0047 17.6237 77.1064 16.1908L76.0363 17.255H76.1421C76.7127 17.2306 77.1626 16.7609 77.1626 16.1898C77.1626 15.6187 76.7127 15.149 76.1421 15.1245L76.1441 15.1245Z" fill="#F9DF77"/>
  <path d="M15.4487 1.90039H15.384C15.094 5.71259 12.8478 8.74471 10.0215 9.13475V9.22099C12.8478 9.61299 15.094 12.6432 15.384 16.4554H15.4487C15.7368 12.6432 17.985 9.61103 20.8113 9.22099V9.13475C17.985 8.74471 15.7368 5.71259 15.4487 1.90039Z" fill="#F9DF77"/>
  <path d="M15.4486 0.835938H15.3839C14.8014 0.848403 14.3321 1.31767 14.3196 1.90022C14.3059 2.06878 14.2863 2.23734 14.2687 2.40394C14.251 2.57054 14.3 2.20794 14.2687 2.35102L14.251 2.4647C14.2354 2.56466 14.2177 2.6607 14.2001 2.76654C14.1374 3.09582 14.0609 3.42314 13.9668 3.74654C13.8728 4.06994 13.7708 4.3659 13.6474 4.6697C13.5768 4.8461 13.7316 4.4737 13.6297 4.70694C13.5964 4.78338 13.5611 4.8559 13.5258 4.93038C13.4572 5.07542 13.3828 5.2185 13.3044 5.35962C13.1594 5.6255 12.9991 5.8827 12.8242 6.1299C12.7791 6.19262 12.7281 6.25142 12.687 6.3259C12.687 6.3259 12.8281 6.15146 12.7536 6.23966L12.6928 6.3161C12.5929 6.43958 12.487 6.5611 12.3773 6.6787C12.1853 6.8837 11.9804 7.07618 11.7638 7.25494L11.6932 7.31374C11.5894 7.39998 11.8736 7.18242 11.7638 7.25886C11.7128 7.29218 11.6658 7.32942 11.6148 7.3647C11.4933 7.45094 11.3659 7.5313 11.2366 7.60774C11.1072 7.68418 10.9778 7.75082 10.8446 7.80374L10.7642 7.84098C10.5976 7.92134 10.9602 7.77042 10.8289 7.81354C10.7642 7.83706 10.7015 7.8645 10.6329 7.88606C10.3389 7.98903 10.0357 8.0632 9.72736 8.10754C9.27264 8.17418 8.94336 8.71122 8.94336 9.13458V9.22082C8.94336 9.6383 9.27068 10.1812 9.72736 10.2479C9.99751 10.2858 10.2638 10.3474 10.5231 10.4321L10.6878 10.4889C10.7289 10.5046 10.9582 10.5967 10.7799 10.5203C10.6015 10.4439 10.8014 10.534 10.8406 10.5517C10.9112 10.585 10.9818 10.6203 11.0504 10.6575C11.2875 10.7861 11.5161 10.9302 11.7344 11.0887C11.8794 11.1906 11.5541 10.9397 11.7344 11.0887C11.7893 11.1338 11.8461 11.1808 11.899 11.2279C12.0088 11.3239 12.1146 11.4239 12.2185 11.5258C12.3224 11.6277 12.4145 11.7218 12.5008 11.8276C12.5498 11.8825 12.5988 11.9413 12.6458 11.9981C12.6928 12.055 12.83 12.2275 12.7242 12.0942C12.6184 11.9609 12.7752 12.1628 12.7987 12.1961L12.9124 12.3607C13.0064 12.4999 13.0946 12.641 13.1809 12.7861C13.3376 13.0541 13.4802 13.3302 13.6082 13.6132C13.6238 13.6465 13.6376 13.6779 13.6513 13.7112C13.712 13.8405 13.5748 13.5152 13.6278 13.6504L13.7062 13.8464C13.7708 14.015 13.8316 14.1855 13.8865 14.358C13.999 14.7119 14.0919 15.0718 14.1648 15.436C14.204 15.632 14.2118 15.8495 14.2687 16.0377C14.2687 16.0377 14.2432 15.8221 14.255 15.9456L14.2726 16.0985C14.2863 16.2161 14.2961 16.3317 14.3059 16.4493C14.351 17.0236 14.7567 17.5136 15.3702 17.5136H15.4349C16.0174 17.5011 16.4867 17.0318 16.4992 16.4493C16.5129 16.2807 16.5305 16.1141 16.5501 15.9456C16.5697 15.777 16.5188 16.1416 16.5501 15.9985L16.5678 15.8848C16.5834 15.7849 16.5991 15.6888 16.6187 15.5849C16.6798 15.2545 16.7577 14.9274 16.852 14.6049C16.9441 14.2913 17.048 13.9856 17.1714 13.6818C17.242 13.5073 17.0872 13.8778 17.1891 13.6445C17.2224 13.5701 17.2577 13.4956 17.293 13.4211C17.3616 13.2761 17.436 13.133 17.5144 12.9919C17.6594 12.726 17.8197 12.4688 17.9946 12.2216C18.0397 12.1608 18.0907 12.1001 18.1318 12.0256C18.1318 12.0256 17.9888 12.2 18.0632 12.1118C18.0848 12.0883 18.1044 12.0609 18.126 12.0373C18.2259 11.9119 18.3318 11.7904 18.4415 11.6728C18.6354 11.4725 18.8423 11.2852 19.0609 11.1122C19.0844 11.0926 19.1079 11.075 19.1314 11.0534C19.2334 10.9672 18.9511 11.1847 19.0609 11.1083C19.1118 11.075 19.1589 11.0377 19.2079 11.0025C19.3314 10.9162 19.4588 10.8359 19.5881 10.7594C19.7175 10.683 19.8468 10.6163 19.9801 10.5634L20.0605 10.5262C20.2271 10.4458 19.8645 10.5967 19.9958 10.5536C20.0605 10.5301 20.1232 10.5027 20.1918 10.4811C20.4858 10.3781 20.789 10.304 21.0973 10.2596C21.552 10.193 21.8813 9.6579 21.8813 9.23258V9.14634C21.8813 8.72886 21.554 8.18594 21.0973 8.1193C20.8274 8.08113 20.5612 8.02016 20.3016 7.93702L20.1369 7.87822C20.0958 7.8645 19.8664 7.77042 20.0448 7.84686C20.2232 7.9233 20.0232 7.8351 19.984 7.8155C19.9135 7.78283 19.8429 7.74755 19.7724 7.70966C19.5358 7.58101 19.308 7.43697 19.0903 7.27846C18.9452 7.17654 19.2686 7.42742 19.0903 7.27846C19.0354 7.23338 18.9786 7.18634 18.9256 7.1393C18.8159 7.04326 18.7081 6.9433 18.6062 6.84138C18.5042 6.73946 18.4102 6.64538 18.3239 6.53954C18.2756 6.48466 18.2266 6.42782 18.1769 6.36902C18.1495 6.3357 17.9946 6.14166 18.0985 6.27298C18.2024 6.4043 18.0495 6.20438 18.026 6.17106L17.9123 6.00838C17.8182 5.86922 17.7281 5.72614 17.6438 5.5811C17.4859 5.31366 17.3433 5.03751 17.2165 4.75398C17.2008 4.72262 17.1871 4.6893 17.1734 4.65794C17.1126 4.52662 17.2498 4.85394 17.1969 4.71674L17.1185 4.52074C17.0538 4.35218 16.9931 4.18166 16.9382 4.00918C16.8257 3.65523 16.7328 3.29535 16.6599 2.93118C16.6207 2.73518 16.6128 2.51958 16.556 2.33142C16.556 2.33142 16.5815 2.54506 16.5697 2.42158C16.5697 2.37062 16.556 2.31966 16.5521 2.2687C16.5384 2.1511 16.5286 2.03546 16.5188 1.91786C16.4756 1.36318 16.0601 0.826138 15.4545 0.853577C14.9155 0.877097 14.3412 1.32398 14.3882 1.91786C14.6195 4.82062 15.8818 7.90174 18.4925 9.43838C19.1184 9.8147 19.8113 10.0663 20.5328 10.1793L19.7488 9.15222V9.23846L20.5328 8.21142C17.6948 8.62302 15.7289 11.2122 14.8959 13.7798C14.6224 14.6546 14.452 15.5584 14.3882 16.4728L15.4545 15.4085H15.3898L16.4521 16.4552C16.2208 13.5524 14.9586 10.4713 12.3479 8.93466C11.7215 8.55918 11.0288 8.30766 10.3075 8.19378L11.0915 9.22082V9.13458L10.3075 10.1616C13.1456 9.75002 15.1115 7.16086 15.9445 4.59326C16.2179 3.7184 16.3883 2.8146 16.4521 1.90022L15.3859 2.9645H15.4506C16.0383 2.9645 16.5148 2.488 16.5148 1.90022C16.5148 1.31243 16.0383 0.835938 15.4506 0.835938L15.4486 0.835938Z" fill="#F9DF77"/>
  <path d="M59.0096 62.7717C59.0281 62.7398 59.0484 62.7091 59.0704 62.6796C59.1155 62.6149 59.0978 62.6384 59.0155 62.7482C59.043 62.7482 59.141 62.611 59.1645 62.5875C59.188 62.564 59.286 62.4424 59.3272 62.4405C59.2566 62.4405 59.1664 62.5581 59.3272 62.4503C59.5649 62.2875 59.8146 62.1427 60.0739 62.0171C60.364 61.8721 60.6619 61.7329 60.954 61.5977C61.1049 61.5271 61.2538 61.4585 61.4048 61.4017C61.4322 61.3899 61.7105 61.2743 61.4832 61.3664L61.7321 61.2645C62.3635 60.986 63.0303 60.7961 63.7136 60.7C63.5608 60.7137 63.6352 60.7098 63.745 60.7C63.8548 60.6902 63.9234 60.6843 64.0135 60.6804C64.1782 60.6712 64.3428 60.6712 64.5074 60.6804C64.5976 60.6804 64.6878 60.6902 64.776 60.698C64.8642 60.7059 65.0837 60.6863 64.8485 60.698C65.0284 60.711 65.2055 60.7506 65.3738 60.8156C65.931 60.9454 66.4914 60.6122 66.6435 60.0606C66.7956 59.509 66.4852 58.9357 65.9402 58.7616C64.3173 58.3108 62.6082 58.6204 61.0755 59.2359C60.3464 59.5299 59.6251 59.8552 58.9195 60.2159C58.212 60.5447 57.6061 61.0579 57.1653 61.7016C56.8731 62.2098 57.0433 62.8586 57.5475 63.1578C58.0574 63.4425 58.701 63.2738 59.0057 62.7756L59.0096 62.7717Z" fill="#080A12"/>
  <path d="M19.6079 117.785C22.899 118.299 26.2353 118.461 29.5608 118.271C33.1084 118.075 36.7187 117.74 40.0174 119.396C41.3149 120.047 42.4596 121.16 42.8006 122.568C43.224 124.332 42.34 126.145 41.1699 127.519C39.9998 128.892 38.5317 129.998 37.4341 131.439C40.3388 131.133 43.661 131.094 45.7112 133.175C47.0362 134.524 47.5203 136.542 47.3243 138.424C47.1283 140.306 46.3247 142.07 45.3643 143.7C47.8319 143.618 50.2447 145.368 50.9326 147.74C51.9224 151.15 49.5861 154.563 49.0255 158.069C50.8229 156.817 53.5022 158.069 54.4646 160.029C56.2286 163.655 54.3234 168.426 51.8342 171.223C48.8942 174.523 42.8555 177.808 33.4475 175.501" fill="#B9A197"/>
  <path d="M19.3257 118.812C21.9045 119.22 24.5118 119.42 27.1226 119.412C29.5079 119.4 31.8873 119.11 34.2727 119.177C34.8313 119.193 35.3899 119.228 35.9445 119.293L36.0543 119.306L36.1621 119.322C36.2954 119.342 36.4287 119.363 36.5541 119.389C36.8383 119.44 37.1186 119.498 37.3989 119.567C37.6791 119.636 37.9575 119.718 38.2319 119.808C38.3632 119.851 38.4925 119.896 38.6239 119.943L38.8199 120.018C38.8747 120.039 39.0394 120.106 38.9022 120.049C39.3948 120.253 39.8645 120.507 40.3036 120.81C40.3526 120.843 40.3996 120.878 40.4467 120.914C40.4133 120.89 40.2879 120.782 40.4467 120.914C40.5349 120.99 40.625 121.064 40.7113 121.145C40.902 121.323 41.0801 121.514 41.2444 121.717C41.1013 121.541 41.2973 121.799 41.3326 121.852C41.3953 121.948 41.4541 122.048 41.5109 122.148C41.5678 122.248 41.6148 122.344 41.6619 122.456C41.6462 122.419 41.5893 122.26 41.6521 122.44C41.6756 122.509 41.6991 122.578 41.7207 122.636C41.756 122.75 41.7855 122.866 41.8089 122.983C41.8089 123.017 41.85 123.213 41.8285 123.073C41.8069 122.934 41.8285 123.13 41.8285 123.164C41.8285 123.287 41.8422 123.411 41.8402 123.536V123.767C41.8402 123.795 41.8128 124.05 41.8304 123.903C41.8481 123.756 41.8187 123.957 41.8128 123.991C41.8069 124.024 41.7893 124.112 41.7775 124.175C41.7501 124.296 41.7167 124.418 41.6815 124.538C41.6462 124.657 41.605 124.779 41.5619 124.896C41.5521 124.924 41.4796 125.11 41.5266 124.99C41.5737 124.871 41.4757 125.104 41.4659 125.128C41.3355 125.404 41.1882 125.671 41.0249 125.929C40.9484 126.053 40.8681 126.174 40.7838 126.292C40.7485 126.345 40.7093 126.398 40.6721 126.449C40.5309 126.645 40.7465 126.364 40.6054 126.539C40.2032 127.024 39.7746 127.486 39.3216 127.924C38.4161 128.816 37.4655 129.663 36.6854 130.668C36.4149 131.019 36.2817 131.396 36.4659 131.833C36.6168 132.189 37.0245 132.53 37.4459 132.487C38.6527 132.342 39.87 132.303 41.0837 132.372C41.2287 132.383 41.3737 132.395 41.5188 132.413L41.7344 132.438C41.4874 132.405 41.6873 132.438 41.7501 132.438C42.0443 132.485 42.3361 132.547 42.6242 132.623C42.8943 132.695 43.1606 132.78 43.4219 132.879C43.6748 132.973 43.2828 132.811 43.4357 132.879L43.6317 132.966C43.7806 133.038 43.9276 133.115 44.0687 133.199C44.2099 133.283 44.3059 133.344 44.4196 133.422L44.5548 133.518C44.3431 133.369 44.5685 133.532 44.6018 133.559C44.8356 133.755 45.052 133.971 45.2487 134.204C45.2839 134.247 45.3996 134.4 45.2761 134.234L45.378 134.379C45.4623 134.502 45.5426 134.628 45.6171 134.755C45.6916 134.882 45.7602 135.016 45.8249 135.147C45.8386 135.178 45.9543 135.453 45.8602 135.22C45.8955 135.302 45.9268 135.386 45.9562 135.47C46.0575 135.753 46.1393 136.043 46.2012 136.337C46.2326 136.484 46.2561 136.633 46.2816 136.782C46.2443 136.562 46.2816 136.721 46.2816 136.768C46.2914 136.889 46.3051 137.009 46.311 137.131C46.3276 137.417 46.3276 137.704 46.311 137.991C46.311 138.144 46.2914 138.295 46.2737 138.448C46.2737 138.497 46.2345 138.718 46.2737 138.522C46.2581 138.622 46.2404 138.718 46.2228 138.826C46.0731 139.6 45.8431 140.357 45.5368 141.084C45.6171 140.888 45.4839 141.201 45.4799 141.209C45.4368 141.306 45.3937 141.4 45.3506 141.492C45.2624 141.688 45.1703 141.866 45.0762 142.05C44.8802 142.419 44.6842 142.779 44.4764 143.136C44.0844 143.82 44.5823 144.759 45.3957 144.739C45.6439 144.709 45.8954 144.719 46.1405 144.769C45.9209 144.69 46.0621 144.757 46.1405 144.769C46.2189 144.78 46.2757 144.792 46.3365 144.808C46.4697 144.835 46.605 144.869 46.7285 144.906C46.8519 144.943 46.9656 144.98 47.0832 145.022L47.2792 145.096C47.2459 145.082 47.0832 145.002 47.2537 145.086C47.4921 145.197 47.7237 145.321 47.9476 145.459C48.0534 145.523 48.1573 145.594 48.2592 145.666L48.3925 145.764C48.1965 145.623 48.3592 145.741 48.4043 145.778C48.6061 145.947 48.7967 146.129 48.9746 146.323C49.0667 146.425 49.1569 146.531 49.2431 146.639C49.1001 146.462 49.2725 146.688 49.3215 146.756C49.476 146.985 49.6136 147.225 49.7331 147.473C49.7567 147.522 49.7782 147.573 49.8017 147.624C49.7037 147.405 49.7802 147.581 49.8017 147.638C49.8449 147.756 49.8841 147.873 49.9193 147.993C49.9546 148.112 49.9938 148.271 50.0252 148.412C50.0409 148.489 50.0526 148.567 50.0703 148.644C50.1173 148.875 50.0605 148.479 50.084 148.734C50.1333 149.292 50.1267 149.853 50.0644 150.41C50.0879 150.186 50.0644 150.396 50.0644 150.453C50.0644 150.51 50.0409 150.608 50.0252 150.686C50.0036 150.811 49.9801 150.935 49.9527 151.058C49.886 151.374 49.8076 151.686 49.7214 151.993C49.5528 152.595 49.3549 153.185 49.1549 153.775C48.71 155.082 48.2455 156.39 48.0201 157.756C47.9159 158.171 48.0647 158.609 48.4003 158.875C48.7389 159.139 49.2035 159.172 49.5763 158.959C49.7029 158.878 49.8337 158.803 49.9683 158.736C50.1839 158.618 49.7449 158.8 49.9801 158.736C50.0389 158.718 50.0938 158.696 50.1506 158.681C50.2075 158.665 50.2663 158.649 50.3251 158.636C50.5818 158.581 50.3251 158.636 50.3251 158.636C50.4681 158.619 50.6122 158.611 50.7563 158.614H50.9719C51.2247 158.624 50.7288 158.565 50.9719 158.614C51.1051 158.642 51.2365 158.667 51.3639 158.702C51.4913 158.738 51.6245 158.787 51.7559 158.832C51.9989 158.916 51.5501 158.724 51.7794 158.832L51.9754 158.934C52.106 159.005 52.2367 159.084 52.3674 159.169L52.5634 159.3C52.7692 159.445 52.4419 159.192 52.5634 159.3C52.784 159.496 52.9934 159.704 53.1906 159.923C53.3611 160.119 53.0671 159.727 53.2102 159.951C53.2533 160.014 53.2964 160.074 53.3376 160.147C53.4126 160.264 53.4813 160.385 53.5434 160.509C53.5747 160.572 53.6041 160.637 53.6355 160.705C53.7609 160.962 53.563 160.509 53.661 160.768C53.7198 160.929 53.7805 161.088 53.8295 161.25C53.9251 161.562 53.9984 161.881 54.0491 162.203C54.0589 162.268 54.0765 162.464 54.0491 162.215C54.0589 162.301 54.0686 162.385 54.0765 162.469C54.0902 162.642 54.0981 162.812 54.102 162.983C54.1089 163.315 54.0971 163.646 54.0667 163.977L54.0432 164.194C54.0157 164.486 54.0843 163.967 54.0432 164.257C54.0157 164.431 53.9863 164.604 53.9511 164.776C53.8111 165.445 53.6144 166.101 53.363 166.736C53.3317 166.819 53.2964 166.901 53.2631 166.985C53.3572 166.75 53.2455 167.026 53.2317 167.058C53.1651 167.209 53.0965 167.356 53.0259 167.503C52.877 167.808 52.7182 168.108 52.5497 168.402C52.3831 168.69 52.2067 168.975 52.0205 169.251C51.9342 169.38 51.8441 169.51 51.7519 169.643L51.603 169.839C51.4579 170.035 51.7049 169.714 51.5638 169.888C51.2566 170.27 50.9295 170.635 50.5838 170.982C50.2845 171.284 49.9709 171.57 49.643 171.842L49.3803 172.077C49.3235 172.122 49.1471 172.238 49.4097 172.056C49.3705 172.083 49.3313 172.115 49.2921 172.144C49.1059 172.283 48.9178 172.418 48.7257 172.548C48.3232 172.82 47.9084 173.072 47.4811 173.306C47.2577 173.428 47.0323 173.543 46.8029 173.653C46.6912 173.708 46.5795 173.761 46.4658 173.812L46.2698 173.896L46.1424 173.951L46.2698 173.898C46.2228 173.967 45.9601 174.024 45.8778 174.055L45.5113 174.192C45.25 174.286 44.9854 174.374 44.7175 174.457C44.1569 174.627 43.5892 174.768 43.0143 174.882C42.832 174.917 42.6477 174.951 42.4655 174.982C42.4027 174.982 42.0343 175.098 41.9833 175.055L42.1029 175.039L41.9402 175.06L41.6089 175.098C41.4404 175.115 41.2718 175.131 41.1013 175.143C40.3319 175.203 39.5598 175.22 38.7885 175.194C38.3769 175.181 37.9659 175.157 37.5557 175.121L36.9677 175.064L36.6697 175.029L36.4737 175.004C36.5894 175.019 36.5835 175.019 36.4541 175.004C35.5388 174.866 34.6333 174.692 33.7337 174.472C33.1927 174.341 32.5577 174.645 32.4224 175.217C32.2773 175.783 32.6067 176.362 33.1672 176.527C38.6082 177.852 44.643 177.703 49.4783 174.594C51.3977 173.375 53.0128 171.733 54.2 169.794C55.768 167.23 56.7147 164.01 55.964 161.029C55.5543 159.406 54.592 157.977 53.1141 157.16C51.6971 156.376 49.8821 156.201 48.4905 157.142L50.0585 158.346C50.4917 155.713 51.799 153.318 52.1557 150.668C52.3643 149.295 52.1886 147.891 51.6481 146.611C51.1255 145.472 50.297 144.5 49.2549 143.804C48.1148 143.014 46.7551 142.603 45.3682 142.628L46.2875 144.232C47.8417 141.572 48.9981 138.442 48.1279 135.353C47.7291 133.898 46.854 132.619 45.6426 131.721C44.5274 130.892 43.1671 130.506 41.8069 130.327C40.3529 130.168 38.8852 130.181 37.4341 130.365L38.1868 132.184C39.6529 130.288 41.7148 128.93 42.9594 126.846C43.5866 125.792 44.0217 124.549 43.9707 123.309C43.9046 122.08 43.4126 120.913 42.5791 120.008C40.9523 118.173 38.3436 117.45 35.9935 117.168C33.5514 116.874 31.0935 117.158 28.6553 117.25C27.1814 117.305 25.7035 117.293 24.2316 117.209C23.4763 117.169 22.7224 117.108 21.9697 117.029C21.5934 116.99 21.2191 116.945 20.8427 116.897C20.8231 116.897 20.635 116.87 20.7898 116.897L20.5076 116.858C20.3018 116.829 20.096 116.799 19.8902 116.766C19.3433 116.682 18.7142 116.905 18.5809 117.511C18.4653 118.021 18.7357 118.73 19.3257 118.82V118.812Z" fill="#080A12"/>
  <path d="M52.8203 109.884C53.9615 112.198 55.8601 114.051 58.2005 115.135L57.8183 113.679C55.9955 117.552 55.6525 121.844 55.576 126.066C55.5015 130.235 55.4545 134.657 57.5223 138.414C58.516 140.225 60.0056 141.836 61.8813 142.74C62.3831 142.981 63.0573 142.895 63.3396 142.348C63.5905 141.872 63.4925 141.15 62.9574 140.892C62.5803 140.71 62.218 140.5 61.8735 140.263L61.6363 140.09C61.4835 139.978 61.6618 140.102 61.6775 140.121C61.6417 140.088 61.6037 140.057 61.5638 140.029C61.3933 139.89 61.2287 139.743 61.0679 139.592C60.7691 139.299 60.4871 138.99 60.2232 138.665C60.1056 138.52 60.2389 138.681 60.2526 138.704C60.2256 138.663 60.1961 138.624 60.1644 138.587L59.9899 138.346C59.8625 138.161 59.7391 137.973 59.6234 137.783C59.4031 137.421 59.2016 137.047 59.0197 136.664L58.8963 136.39C58.8737 136.345 58.8534 136.299 58.8355 136.252C58.9139 136.488 58.8786 136.354 58.8571 136.299C58.7747 136.092 58.6944 135.882 58.6199 135.67C58.2996 134.727 58.068 133.756 57.928 132.769C57.928 132.711 57.9065 132.648 57.9025 132.589C57.9025 132.628 57.93 132.807 57.9025 132.589C57.8869 132.466 57.8712 132.344 57.8594 132.223C57.8281 131.948 57.8026 131.672 57.781 131.397C57.7418 130.876 57.7163 130.353 57.7007 129.829C57.6713 128.789 57.6811 127.746 57.7007 126.705C57.7018 124.723 57.8111 122.742 58.028 120.772C58.028 120.713 58.0417 120.655 58.0495 120.598C58.0633 120.48 58.0633 120.429 58.0495 120.576C58.0613 120.431 58.0907 120.286 58.1123 120.143C58.1554 119.869 58.2005 119.596 58.2514 119.324C58.3514 118.783 58.469 118.244 58.6081 117.709C58.7473 117.174 58.9061 116.65 59.0883 116.131C59.1805 115.87 59.2843 115.614 59.3804 115.357C59.4019 115.304 59.4235 115.249 59.447 115.196C59.3431 115.429 59.4647 115.159 59.4764 115.129C59.5352 114.996 59.5979 114.865 59.6587 114.737C59.8841 114.257 59.8371 113.534 59.2765 113.279C58.7475 113.039 58.24 112.755 57.7595 112.429C57.634 112.344 57.5105 112.254 57.389 112.166C57.2263 112.048 57.4949 112.252 57.389 112.166L57.2205 112.052C56.9957 111.865 56.7795 111.669 56.5717 111.464C56.3757 111.268 56.1797 111.072 55.9974 110.861C55.8975 110.747 55.8014 110.629 55.7054 110.512C55.5407 110.316 55.8406 110.708 55.6858 110.488L55.5505 110.304C55.2122 109.832 54.9139 109.332 54.6587 108.81C54.4137 108.309 53.6611 108.132 53.2025 108.418C52.7063 108.724 52.538 109.365 52.8203 109.875V109.884Z" fill="#080A12"/>
  <path d="M34.8941 123.438C34.87 124.511 35.262 125.551 35.9877 126.341C36.4041 126.757 37.0787 126.757 37.495 126.341C37.694 126.141 37.806 125.871 37.8066 125.588C37.7962 125.308 37.6856 125.04 37.495 124.834C37.4401 124.773 37.3872 124.712 37.3382 124.638L37.5048 124.853C37.3473 124.649 37.2156 124.426 37.1128 124.189L37.2206 124.444C37.1173 124.196 37.0456 123.936 37.0069 123.67L37.0461 123.952C37.023 123.778 37.0145 123.603 37.0207 123.429C37.0186 123.147 36.9068 122.877 36.709 122.676C36.5093 122.476 36.2386 122.364 35.9564 122.364C35.3726 122.375 34.9016 122.845 34.8901 123.429L34.8941 123.438Z" fill="#080A12"/>
  <path d="M39.9212 135.909C39.6473 136.649 39.6521 137.464 39.9349 138.201C40.2171 139.012 40.7916 139.688 41.546 140.098C41.7963 140.236 42.0898 140.275 42.3673 140.206C42.6345 140.13 42.8624 139.955 43.0043 139.716C43.2591 139.234 43.1532 138.524 42.6123 138.259C42.4823 138.193 42.3583 138.116 42.2418 138.028L42.4574 138.195C42.3124 138.079 42.1809 137.948 42.0654 137.803L42.232 138.018C42.0934 137.838 41.9788 137.64 41.891 137.43L41.9988 137.685C41.9124 137.476 41.8538 137.257 41.8244 137.032L41.8616 137.317C41.8386 137.121 41.8386 136.924 41.8616 136.729L41.8224 137.013C41.8467 136.829 41.8941 136.648 41.9635 136.476C42.0396 136.199 42.0008 135.904 41.8557 135.657C41.7145 135.417 41.4863 135.242 41.2187 135.167C40.9422 135.091 40.647 135.13 40.3994 135.274C40.1695 135.425 39.9969 135.649 39.9094 135.909H39.9212Z" fill="#080A12"/>
  <path d="M43.3692 149.865C43.5076 150.449 43.7984 150.986 44.212 151.421C44.4137 151.634 44.6416 151.821 44.8901 151.978C45.1475 152.138 45.4258 152.263 45.7173 152.348C46.1363 152.466 46.5849 152.317 46.85 151.971C47.115 151.626 47.143 151.154 46.9207 150.78C46.7744 150.545 46.5482 150.371 46.2837 150.29C46.2032 150.266 46.1241 150.238 46.0465 150.206L46.2994 150.312C46.1214 150.234 45.9535 150.136 45.7996 150.018L46.0152 150.184C45.856 150.059 45.7119 149.915 45.5859 149.757L45.7525 149.972C45.6288 149.812 45.5254 149.637 45.4448 149.451L45.5526 149.704C45.496 149.573 45.4527 149.436 45.4233 149.296C45.3481 149.029 45.1726 148.8 44.9333 148.659C44.6843 148.517 44.3893 148.478 44.112 148.551C43.8451 148.627 43.6176 148.802 43.477 149.041C43.3412 149.292 43.3028 149.584 43.3692 149.861V149.865Z" fill="#080A12"/>
  <path d="M48.2042 163.542C48.2389 163.744 48.2967 163.941 48.3767 164.13C48.4792 164.397 48.6107 164.652 48.7687 164.89C49.0933 165.365 49.5199 165.761 50.0172 166.05C50.2668 166.191 50.5611 166.23 50.8385 166.158C51.2518 166.045 51.5566 165.694 51.6118 165.269C51.667 164.844 51.4619 164.427 51.0913 164.212C50.9769 164.147 50.8669 164.074 50.762 163.994L50.9776 164.159C50.7998 164.019 50.6398 163.858 50.5014 163.679L50.668 163.894C50.5304 163.713 50.4152 163.516 50.325 163.306L50.4328 163.561C50.353 163.372 50.2945 163.175 50.2583 162.973C50.1852 162.705 50.01 162.477 49.7703 162.336C49.5251 162.194 49.2333 162.155 48.9596 162.229C48.6859 162.302 48.4528 162.482 48.312 162.728L48.2062 162.983C48.1552 163.168 48.1552 163.364 48.2062 163.55L48.2042 163.542Z" fill="#080A12"/>
  <path d="M97.912 106.368C98.0061 106.869 98.0943 107.371 98.1766 107.874C98.2119 108.093 98.2452 108.313 98.2785 108.532C98.2981 108.66 98.3158 108.785 98.3334 108.911C98.3334 108.973 98.351 109.038 98.3608 109.107C98.3608 109.132 98.4 109.391 98.3804 109.248C98.3608 109.105 98.3804 109.312 98.3922 109.344C98.404 109.375 98.4059 109.438 98.4118 109.485L98.4588 109.865C98.4882 110.118 98.5176 110.371 98.5451 110.624C98.6 111.129 98.6477 111.636 98.6882 112.145C98.8472 114.127 98.9035 116.117 98.8567 118.105C98.8293 119.235 98.7692 120.364 98.6764 121.49C98.6294 122.046 99.1978 122.58 99.7407 122.554C100.322 122.54 100.791 122.072 100.805 121.49C101.142 117.459 101.052 113.403 100.536 109.391C100.382 108.191 100.197 106.996 99.9739 105.808C99.87 105.259 99.1801 104.896 98.6627 105.065C98.105 105.233 97.7778 105.81 97.9198 106.374L97.912 106.368Z" fill="#080A12"/>
  <path d="M97.8158 134.879H98.2078C98.3507 134.885 98.4928 134.853 98.6194 134.786C98.7505 134.744 98.8685 134.668 98.9624 134.567C99.1513 134.36 99.2616 134.094 99.274 133.814L99.2348 133.53C99.1866 133.352 99.0926 133.19 98.9624 133.06L98.7468 132.893C98.5828 132.799 98.397 132.749 98.2078 132.748H97.8158C97.5361 132.76 97.2697 132.871 97.0631 133.06C96.9615 133.153 96.8853 133.271 96.8416 133.403C96.7755 133.529 96.7444 133.672 96.7515 133.814L96.7887 134.097C96.8377 134.275 96.9323 134.437 97.0631 134.567L97.2787 134.734C97.4414 134.829 97.627 134.879 97.8158 134.879V134.879Z" fill="#080A12"/>
</svg>