<svg xmlns="http://www.w3.org/2000/svg" width="170" height="152" viewBox="0 0 170 152" fill="none">
  <rect x="1.20996" y="1.62598" width="136.107" height="98.2848" rx="49.1424" fill="white"/>
  <path d="M128.394 99.1382H10.6613C10.1129 99.1533 9.56418 99.1303 9.01899 99.0694C5.54857 98.5601 2.77934 95.9126 2.1147 92.4686C1.83246 90.9797 1.98416 89.3233 1.98416 87.8169V13.2773C1.98416 11.3916 1.84128 9.46178 2.51336 7.66074C3.67937 4.49965 6.79812 2.42871 10.1338 2.40049H126.177C127.382 2.40049 128.685 2.30347 129.881 2.53103C133.326 3.19491 135.974 5.96549 136.482 9.43709C136.547 10.061 136.57 10.6887 136.551 11.3157V90.537C136.577 91.6734 136.397 92.8052 136.022 93.878C134.847 97.0426 131.73 99.1083 128.394 99.1382C127.398 99.1488 127.396 100.696 128.394 100.685C131.943 100.648 135.284 98.7025 136.955 95.5432C137.729 94.0418 138.121 92.3725 138.096 90.6834V11.2734C138.112 10.5217 138.071 9.76977 137.973 9.02431C137.443 5.50513 134.877 2.5275 131.531 1.37031C129.871 0.798778 128.198 0.853462 126.491 0.853462H10.7565C10.4214 0.853462 10.0845 0.853462 9.75105 0.862282C6.18153 1.02064 2.98286 3.11408 1.4091 6.32186C0.378922 8.47923 0.43537 10.6542 0.43537 12.9474V87.8822C0.43537 89.5262 0.31189 91.2637 0.622354 92.8866C1.28738 96.3705 3.97395 99.2688 7.35025 100.295C8.37494 100.584 9.43646 100.72 10.5008 100.699H128.394C129.389 100.685 129.391 99.1382 128.394 99.1382V99.1382Z" fill="#080A12"/>
  <rect x="41.8398" y="24.8438" width="89.1279" height="63.8462" rx="31.9231" fill="white"/>
  <path d="M124.845 87.9155H48.3243C48.0174 87.9155 47.7122 87.9155 47.4053 87.8908C45.2823 87.6618 43.4961 86.1982 42.8541 84.1617C42.5172 83.061 42.6142 81.8509 42.6142 80.7114V32.6053C42.6142 31.2947 42.519 29.9593 43.0976 28.7404C43.9818 26.8518 45.8704 25.6373 47.9556 25.6163H123.381C124.108 25.6163 124.882 25.5599 125.602 25.664C127.722 25.9871 129.451 27.5312 130.012 29.6012C130.147 30.179 130.207 30.772 130.188 31.3652V82.3448C130.213 83.1938 130.048 84.0375 129.705 84.8144C128.816 86.7012 126.925 87.9116 124.84 87.9279C123.843 87.9385 123.841 89.4873 124.84 89.4767C127.244 89.4581 129.47 88.2057 130.735 86.1604C131.411 85.0313 131.761 83.7367 131.746 82.4207C131.746 81.2576 131.746 80.0951 131.746 78.9332V31.3335C131.762 30.6121 131.685 29.8917 131.516 29.1902C130.889 26.8909 129.131 25.0714 126.854 24.3657C125.78 24.0358 124.697 24.0693 123.594 24.0693H48.3666C48.1497 24.0693 47.9309 24.0693 47.714 24.0693C45.3177 24.1727 43.1432 25.5015 41.958 27.5867C41.1007 29.1179 41.076 30.709 41.076 32.383V80.7466C41.076 82.022 40.9931 83.338 41.3724 84.5728C42.0784 86.846 43.8955 88.602 46.1916 89.2297C46.8539 89.3937 47.5345 89.4714 48.2167 89.4608H124.845C125.84 89.4643 125.842 87.9155 124.845 87.9155V87.9155Z" fill="#080A12"/>
  <rect x="75.3755" y="62.1191" width="48.2401" height="21.0251" rx="10.5126" fill="#0A6375"/>
  <path d="M1.20996 15.3378V8.15131C1.20996 4.54666 4.13211 1.62451 7.73676 1.62451H130.793C134.398 1.62451 137.32 4.54666 137.32 8.15131V15.3378H1.20996Z" fill="white"/>
  <path d="M1.98418 15.3378C1.98418 12.944 1.95243 10.5485 1.98418 8.15474C2.02476 4.89487 4.65488 2.41116 7.87771 2.40057H13.9723H129.959C131.056 2.40057 132.107 2.43056 133.145 2.89802C135.206 3.84191 136.532 5.89656 136.542 8.16356C136.558 9.42482 136.542 10.6861 136.542 11.9456V15.3378L137.317 14.5634H6.73464C4.97064 14.5634 3.20664 14.5298 1.44264 14.5634H1.20979C0.213128 14.5634 0.211364 16.1121 1.20979 16.1121H131.792C133.556 16.1121 135.32 16.1457 137.084 16.1121H137.315C137.739 16.1055 138.082 15.7624 138.087 15.3378C138.087 12.9123 138.133 10.4815 138.087 8.05596C138.012 4.04286 134.706 0.887063 130.726 0.851783C128.816 0.835907 126.904 0.851783 124.993 0.851783H8.34517C6.66231 0.851783 5.02003 1.14284 3.6053 2.13421C1.63495 3.50895 0.451815 5.75231 0.4301 8.15474C0.415988 9.38954 0.4301 10.6367 0.4301 11.8785V15.3378C0.435392 16.3326 1.98418 16.3344 1.98418 15.3378V15.3378Z" fill="#080A12"/>
  <circle cx="7.90941" cy="8.32591" r="1.40062" fill="#FF5757"/>
  <path d="M8.53762 8.32567V8.44386C8.53762 8.57087 8.54821 8.34684 8.54997 8.35213C8.56585 8.39094 8.51998 8.49325 8.50763 8.52853C8.50083 8.56496 8.48833 8.60008 8.47059 8.63261C8.47059 8.63261 8.56408 8.44386 8.50234 8.5497C8.46706 8.61321 8.43178 8.67671 8.39121 8.73845C8.31536 8.85311 8.50234 8.6185 8.43355 8.682C8.41061 8.70317 8.39297 8.72787 8.37181 8.74903C8.31712 8.80548 8.15131 8.9025 8.37181 8.77197C8.32065 8.80548 8.27302 8.84253 8.2201 8.87251L8.15483 8.90779C8.03488 8.97483 8.34887 8.84429 8.18659 8.89368C8.12485 8.91132 8.06663 8.93073 8.01019 8.94484C7.95374 8.95895 7.88141 8.94484 8.08427 8.94484C8.05252 8.94484 8.02077 8.94484 7.98902 8.94484C7.92375 8.94484 7.85848 8.94484 7.79321 8.94484C7.69267 8.94484 8.00666 8.98365 7.8673 8.95366C7.83026 8.94484 7.79321 8.93778 7.75617 8.9272L7.65033 8.89368C7.58859 8.87251 7.58153 8.83018 7.73324 8.92896C7.68208 8.89545 7.62387 8.87251 7.57095 8.84076C7.54625 8.82489 7.52156 8.80372 7.49686 8.78961C7.41395 8.74021 7.65209 8.92543 7.55331 8.83018C7.50215 8.78079 7.45276 8.72081 7.39984 8.67318C7.52861 8.78784 7.49157 8.79843 7.45453 8.74374C7.41748 8.68906 7.41395 8.68377 7.39455 8.65201C7.37515 8.62026 7.36985 8.60968 7.35927 8.58675C7.32399 8.52148 7.31693 8.42975 7.37515 8.6379C7.35751 8.57793 7.33281 8.52148 7.31693 8.4615L7.30106 8.38741C7.26931 8.24629 7.3187 8.60086 7.30106 8.42269C7.29753 8.36395 7.29753 8.30504 7.30106 8.24629C7.30106 8.17397 7.34516 8.06989 7.29047 8.29921C7.29047 8.27452 7.29047 8.24982 7.30459 8.22513C7.3187 8.16339 7.3381 8.10517 7.35751 8.04873C7.40161 7.91113 7.26754 8.22513 7.3381 8.09812C7.35574 8.06637 7.37162 8.03285 7.39102 8.0011C7.41043 7.96935 7.42454 7.94994 7.44041 7.92525C7.48099 7.85998 7.53567 7.85645 7.39631 7.97993C7.44218 7.93936 7.47746 7.8882 7.52156 7.84763C7.56566 7.80706 7.64151 7.75061 7.52156 7.83705C7.40161 7.92348 7.50921 7.84763 7.53214 7.83705C7.55507 7.82646 7.67503 7.72239 7.72442 7.72768C7.72442 7.72768 7.52332 7.80177 7.64151 7.76296L7.73677 7.73297C7.77734 7.72239 7.97314 7.68887 7.81967 7.70827C7.66621 7.72768 7.88847 7.70827 7.92904 7.70827H8.02783C8.17247 7.70827 7.84084 7.66947 7.97314 7.70827C8.04547 7.72591 8.11779 7.74532 8.19011 7.76825C8.32065 7.81235 8.04194 7.69063 8.12308 7.74179C8.16013 7.76472 8.2007 7.7806 8.23774 7.80177L8.29948 7.84234C8.46001 7.94994 8.19541 7.74179 8.28713 7.83175C8.32947 7.87409 8.37357 7.91643 8.41591 7.96053C8.51469 8.06284 8.30654 7.79824 8.38592 7.91819C8.40532 7.94994 8.42649 7.97817 8.44589 8.00992L8.49705 8.10694C8.56055 8.2216 8.43531 7.93054 8.47765 8.05755C8.50234 8.12987 8.52175 8.20043 8.53939 8.27452C8.55703 8.34861 8.52704 8.38389 8.5288 8.18279C8.5288 8.23395 8.5288 8.2851 8.53762 8.33626C8.524 8.62142 8.66838 8.89095 8.91332 9.03761C9.15826 9.18427 9.46402 9.18427 9.70896 9.03761C9.95389 8.89095 10.0983 8.62142 10.0847 8.33626C10.0764 7.40923 9.49133 6.58555 8.61877 6.27238C7.7831 5.98286 6.85534 6.22999 6.27441 6.89683C5.96922 7.26315 5.78443 7.71467 5.74521 8.18985C5.68578 9.0656 6.16287 9.89006 6.95179 10.2749C7.39235 10.4792 7.88569 10.5409 8.36299 10.4513C9.36494 10.2749 10.0688 9.31528 10.0829 8.33449C10.0632 7.92164 9.7227 7.59705 9.30937 7.59705C8.89605 7.59705 8.55558 7.92164 8.53586 8.33449L8.53762 8.32567Z" fill="#FF5757"/>
  <circle cx="15.2619" cy="8.32591" r="1.40062" fill="#D0624C"/>
  <path d="M15.8879 8.32577V8.44395C15.8879 8.57096 15.8985 8.34693 15.9002 8.35223C15.9143 8.39103 15.8702 8.49335 15.8579 8.52863C15.8503 8.56484 15.8379 8.59986 15.8208 8.6327C15.8208 8.6327 15.9126 8.44395 15.8526 8.54979C15.8173 8.6133 15.7803 8.6768 15.7397 8.73854C15.6656 8.8532 15.8526 8.61859 15.782 8.68209C15.7609 8.70326 15.7415 8.72796 15.7221 8.74913C15.6656 8.80557 15.5016 8.90259 15.7221 8.77206C15.6709 8.80557 15.6233 8.84262 15.5686 8.87261L15.5051 8.90789C15.3851 8.97492 15.6991 8.84438 15.5351 8.89377C15.4751 8.91141 15.4169 8.93082 15.3587 8.94493C15.3005 8.95904 15.2299 8.94493 15.4328 8.94493C15.401 8.94493 15.3693 8.94493 15.3357 8.94493C15.2705 8.94493 15.207 8.94493 15.1417 8.94493C15.0412 8.94493 15.3552 8.98374 15.2158 8.95375C15.1788 8.94493 15.1417 8.93787 15.1047 8.92729L14.9988 8.89377C14.9371 8.87261 14.93 8.83027 15.0817 8.92905C15.0306 8.89554 14.9706 8.87261 14.9194 8.84085C14.8947 8.82498 14.8701 8.80381 14.8436 8.7897C14.7624 8.74031 14.9988 8.92553 14.9018 8.83027C14.8489 8.78088 14.8013 8.7209 14.7483 8.67327C14.8771 8.78793 14.8401 8.79852 14.803 8.74383C14.766 8.68915 14.7624 8.68386 14.743 8.65211C14.7236 8.62035 14.7183 8.60977 14.7078 8.58684C14.6725 8.52157 14.6654 8.42984 14.7236 8.63799C14.706 8.57802 14.6813 8.52157 14.6654 8.46159L14.6496 8.38751C14.6178 8.24639 14.6672 8.60095 14.6496 8.42279C14.646 8.36404 14.646 8.30513 14.6496 8.24639C14.6496 8.17406 14.6937 8.06999 14.639 8.29931C14.639 8.27461 14.639 8.24991 14.6531 8.22522C14.6672 8.16348 14.6866 8.10527 14.706 8.04882C14.7501 7.91123 14.616 8.22522 14.6866 8.09821C14.7042 8.06646 14.7201 8.03294 14.7395 8.00119C14.7589 7.96944 14.773 7.95003 14.7889 7.92534C14.8295 7.86007 14.8842 7.85654 14.7448 7.98002C14.7889 7.93945 14.826 7.88829 14.8701 7.84772C14.9142 7.80715 14.9882 7.7507 14.8701 7.83714C14.7519 7.92357 14.8577 7.84772 14.8806 7.83714C14.9036 7.82655 15.0235 7.72248 15.0729 7.72777C15.0729 7.72777 14.8718 7.80186 14.99 7.76305L15.0958 7.72953C15.1364 7.71895 15.3322 7.68543 15.1788 7.70484C15.0253 7.72424 15.2475 7.70484 15.2881 7.70484H15.3851C15.5316 7.70484 15.2087 7.66603 15.3322 7.70484C15.4045 7.72248 15.4769 7.74188 15.5474 7.76481C15.6797 7.80891 15.401 7.6872 15.4822 7.73835C15.5174 7.76129 15.5598 7.77716 15.5951 7.79833L15.6568 7.8389C15.8191 7.94651 15.5545 7.73835 15.6462 7.82832C15.6885 7.87065 15.7326 7.91299 15.775 7.95709C15.8738 8.0594 15.6656 7.7948 15.7432 7.91475C15.7644 7.94651 15.7856 7.97473 15.8032 8.00648C15.8208 8.03823 15.8385 8.07175 15.8561 8.1035C15.9196 8.21816 15.7944 7.9271 15.8367 8.05411C15.8597 8.12643 15.8791 8.19699 15.8967 8.27108C15.9143 8.34517 15.8861 8.38045 15.8967 8.17935V8.33282C15.8967 8.76051 16.2434 9.10722 16.6711 9.10722C17.0988 9.10722 17.4455 8.76051 17.4455 8.33282C17.433 7.40907 16.8478 6.59033 15.9778 6.27953C15.1427 5.9903 14.2156 6.23743 13.6353 6.90398C13.3301 7.2703 13.1453 7.72182 13.1061 8.19699C13.0466 9.07275 13.5237 9.89721 14.3126 10.282C14.7532 10.4865 15.2465 10.5481 15.7238 10.4584C16.7258 10.282 17.4296 9.32243 17.4437 8.34164C17.4447 8.13378 17.3627 7.9341 17.2161 7.78679C17.0694 7.63948 16.8701 7.55666 16.6623 7.55666C16.2398 7.5641 15.8982 7.90331 15.8879 8.32577V8.32577Z" fill="#D0624C"/>
  <circle cx="23.9035" cy="8.32591" r="1.40062" fill="#7BD85A"/>
  <path d="M24.53 8.32577V8.44395C24.53 8.57096 24.5406 8.34693 24.5424 8.35223C24.5565 8.39103 24.5124 8.49335 24.5 8.52863C24.4925 8.56484 24.48 8.59986 24.463 8.6327C24.463 8.6327 24.5547 8.44395 24.4948 8.54979C24.4595 8.6133 24.4224 8.6768 24.3819 8.73854C24.3078 8.8532 24.4948 8.61859 24.4242 8.68209C24.403 8.70326 24.3836 8.72796 24.3642 8.74913C24.3095 8.80557 24.1437 8.90259 24.3554 8.77206C24.3042 8.80557 24.2566 8.84262 24.2019 8.87261L24.1384 8.90789C24.0185 8.97492 24.3325 8.84438 24.1684 8.89377C24.1084 8.91141 24.0502 8.93082 23.992 8.94493C23.9338 8.95904 23.8632 8.94493 24.0661 8.94493C24.0343 8.94493 24.0026 8.94493 23.9691 8.94493C23.9038 8.94493 23.8403 8.94493 23.775 8.94493C23.6745 8.94493 23.9885 8.98374 23.8491 8.95375C23.8121 8.94493 23.775 8.93787 23.738 8.92729L23.6322 8.89377C23.5704 8.87261 23.5634 8.83027 23.7151 8.92905C23.6639 8.89554 23.6057 8.87261 23.5528 8.84085C23.5281 8.82498 23.5034 8.80381 23.4769 8.7897C23.3958 8.74031 23.6322 8.92553 23.5351 8.83027C23.484 8.78088 23.4346 8.7209 23.3817 8.67327C23.5104 8.78793 23.4734 8.79852 23.4364 8.74383C23.3993 8.68915 23.3958 8.68386 23.3764 8.65211C23.357 8.62035 23.3517 8.60977 23.3411 8.58684C23.3058 8.52157 23.2988 8.42984 23.357 8.63799C23.3393 8.57802 23.3146 8.52157 23.2988 8.46159L23.2829 8.38751C23.2511 8.24639 23.3005 8.60095 23.2829 8.42279C23.2794 8.36404 23.2794 8.30513 23.2829 8.24639C23.2829 8.17406 23.327 8.06999 23.2723 8.29931C23.2723 8.27461 23.2723 8.24991 23.2864 8.22522C23.3005 8.16348 23.3199 8.10527 23.3393 8.04882C23.3834 7.91123 23.2494 8.22522 23.3199 8.09821C23.3376 8.06646 23.3534 8.03294 23.3728 8.00119C23.3923 7.96944 23.4064 7.95003 23.4222 7.92534C23.4628 7.86007 23.5175 7.85654 23.3781 7.98002C23.424 7.93945 23.4593 7.88829 23.5034 7.84772C23.5475 7.80715 23.6233 7.7507 23.5034 7.83714C23.3834 7.92357 23.491 7.84772 23.514 7.83714C23.5369 7.82655 23.6569 7.72248 23.7062 7.72777C23.7062 7.72777 23.5051 7.80186 23.6233 7.76305L23.7292 7.72953C23.7697 7.71895 23.9656 7.68543 23.8121 7.70484C23.6586 7.72424 23.8809 7.70484 23.9215 7.70484H24.0185C24.1649 7.70484 23.8333 7.66603 23.9656 7.70484C24.0379 7.72248 24.1102 7.74188 24.1808 7.76481C24.3131 7.80891 24.0343 7.6872 24.1155 7.73835C24.1525 7.76129 24.1931 7.77716 24.2284 7.79833L24.2919 7.8389C24.4524 7.94651 24.1878 7.73835 24.2795 7.82832L24.4083 7.95709C24.5071 8.0594 24.2989 7.7948 24.3766 7.91475C24.3977 7.94651 24.4189 7.97473 24.4365 8.00648C24.4542 8.03823 24.4718 8.07175 24.4895 8.1035C24.553 8.21816 24.4277 7.9271 24.4701 8.05411C24.493 8.12643 24.5124 8.19699 24.5318 8.27108C24.5512 8.34517 24.5194 8.38045 24.5212 8.17935V8.33282C24.5212 8.76051 24.8679 9.10722 25.2956 9.10722C25.7233 9.10722 26.07 8.76051 26.07 8.33282C26.0576 7.40907 25.4723 6.59033 24.6024 6.27953C23.7672 5.9903 22.8401 6.23743 22.2598 6.90398C21.9546 7.2703 21.7698 7.72182 21.7306 8.19699C21.6711 9.07275 22.1482 9.89721 22.9371 10.282C23.3777 10.4865 23.871 10.5481 24.3483 10.4584C25.3503 10.282 26.0541 9.32243 26.0682 8.34164C26.0635 7.91624 25.7193 7.57282 25.2938 7.56901C24.8801 7.58165 24.5465 7.91212 24.53 8.32577V8.32577Z" fill="#7BD85A"/>
  <path d="M143.843 110.356L131.938 95.2046L49.7515 95.6209L143.843 110.356Z" fill="#D0624C"/>
  <path d="M144.39 109.809L138.148 101.871L134.05 96.6566L132.815 95.0937C132.561 94.7709 132.397 94.4657 131.933 94.4375C130.765 94.3669 129.569 94.4498 128.405 94.4551L119.469 94.501L106.874 94.5574L92.4088 94.6315L77.7129 94.7056L64.5799 94.7727L54.7739 94.822L49.9723 94.8467H49.7641C48.9244 94.8467 48.6704 96.228 49.5577 96.3673L52.0802 96.7624L58.9422 97.8367L69.0517 99.4243L81.382 101.354L94.9313 103.471L108.609 105.612L121.321 107.604L132.099 109.292L139.843 110.504C141.06 110.695 142.275 110.889 143.494 111.076L143.649 111.1C144.062 111.166 144.482 110.994 144.602 110.56C144.703 110.192 144.477 109.678 144.06 109.608L141.54 109.213L134.676 108.138L124.567 106.551L112.238 104.621L98.6869 102.504L85 100.363L72.2904 98.3712L61.5123 96.6848L53.7684 95.4712C52.5565 95.2824 51.3376 95.0302 50.1169 94.8997C50.064 94.8997 50.0128 94.8838 49.9617 94.875L49.7553 96.3955L51.9532 96.3849L57.9332 96.3532L66.7779 96.3091L77.57 96.2544L89.3888 96.1944L101.321 96.1345L112.446 96.078L121.848 96.0286L128.606 95.9951C129.664 95.9951 130.744 96.041 131.804 95.9792H131.94L131.393 95.757L135.406 100.864L141.815 109.019L143.298 110.908C143.558 111.238 144.122 111.18 144.394 110.908C144.715 110.575 144.65 110.139 144.39 109.809V109.809Z" fill="#080A12"/>
  <path d="M49.7515 95.6211L123.257 138.41C126.052 140.039 129.619 139.368 131.631 136.835L148.417 115.724L49.7515 95.6211Z" fill="#D0624C"/>
  <path d="M49.367 96.2857L52.9956 98.4025L62.3889 103.871L75.5183 111.514L90.1154 120.012L104.212 128.214L115.535 134.811L122.061 138.615C122.623 138.963 123.208 139.271 123.811 139.539C126.845 140.784 130.301 139.735 132.31 137.207L139.922 127.634L148.467 116.886L148.957 116.27C149.287 115.854 149.245 115.104 148.615 114.977L145.969 114.436L138.802 112.975L128.183 110.812L115.222 108.166L101.029 105.282L86.7039 102.363L73.3874 99.6497L62.0678 97.3441L53.9781 95.6966C52.6939 95.4337 51.4098 95.1674 50.1238 94.9116L49.9633 94.8781C48.9895 94.6805 48.575 96.1711 49.5505 96.3704L52.2071 96.912L59.3707 98.3708L69.9917 100.535L82.9501 103.181L97.1432 106.072L111.46 108.987L124.775 111.7L136.101 114.007L144.191 115.654C145.47 115.916 146.754 116.245 148.045 116.439C148.098 116.439 148.153 116.462 148.206 116.473L147.864 115.178L141.448 123.248L132.24 134.829C131.264 136.064 130.375 137.336 128.888 138.015C127.061 138.853 125.067 138.576 123.374 137.592L118.128 134.536L107.628 128.424L94.0827 120.539L79.4432 112.01L65.9328 104.146L55.5075 98.0762L50.369 95.0774L50.1414 94.9451C49.2788 94.4512 48.4992 95.7883 49.367 96.2857V96.2857Z" fill="#080A12"/>
  <path d="M139.363 118.92L143.843 110.356L49.7515 95.6211L139.363 118.92Z" fill="#080A12"/>
  <path d="M140.036 119.31L143.958 111.809L144.51 110.751C144.718 110.356 144.57 109.692 144.048 109.615L141.527 109.22L134.663 108.145L124.554 106.558L112.225 104.628L98.6741 102.511L84.9995 100.363L72.2899 98.371L61.5119 96.6846L53.7679 95.471C52.5508 95.2804 51.3336 95.0864 50.1164 94.8994L49.9612 94.8747C49.5484 94.8112 49.1286 94.9806 49.0087 95.4163C48.901 95.8271 49.1405 96.2489 49.5484 96.3671L51.951 96.9915L58.4672 98.685L68.1339 101.199L79.8839 104.256L92.7611 107.607L105.753 110.985L117.909 114.146L128.14 116.808L135.524 118.728C136.683 119.029 137.84 119.35 139.004 119.632L139.154 119.671C140.117 119.922 140.53 118.436 139.565 118.179L137.159 117.553L130.643 115.859L120.985 113.34L109.232 110.285L96.3544 106.933L83.3626 103.555L71.2068 100.394L60.9756 97.7324L53.5915 95.8132C52.4361 95.5133 51.2789 95.1552 50.1112 94.9082C50.0618 94.8977 50.0124 94.8818 49.963 94.8694L49.5431 96.3671L52.0657 96.7622L58.9276 97.8365L69.0371 99.4241L81.3675 101.354L94.9168 103.471L108.595 105.612L121.306 107.604L132.084 109.292L139.828 110.504C141.038 110.694 142.259 110.948 143.48 111.075C143.531 111.075 143.584 111.091 143.635 111.1L143.173 109.964L139.244 117.472L138.692 118.53C138.234 119.41 139.569 120.193 140.036 119.31V119.31Z" fill="#080A12"/>
  <path d="M148.417 115.724L168.79 140.593L49.7515 95.6211L148.417 115.724Z" fill="#D0624C"/>
  <path d="M147.869 116.27L154.761 124.686L165.735 138.084L168.243 141.145L168.996 139.852L165.791 138.638L157.124 135.364L144.323 130.525L128.701 124.623L111.59 118.16L94.2661 111.613L78.2137 105.551L64.5638 100.393L54.8072 96.7076C53.2637 96.1238 51.7272 95.4534 50.1537 94.9436C50.0885 94.9225 50.0232 94.8943 49.9579 94.8696L49.5434 96.3672L52.1894 96.8964L59.3794 98.3623L70.0058 100.537L82.9271 103.166L97.129 106.059L111.46 108.987L124.774 111.7L136.075 113.993L144.2 115.648C145.48 115.909 146.759 116.186 148.043 116.431L148.206 116.464C149.178 116.662 149.594 115.17 148.617 114.972L145.971 114.432L138.782 112.968L128.149 110.802L115.242 108.175L101.038 105.282L86.702 102.361L73.3874 99.6482L62.0872 97.355L53.964 95.7004C52.6833 95.4393 51.4044 95.1712 50.1202 94.9172L49.9579 94.8837C48.9718 94.6826 48.619 96.0267 49.5451 96.376L52.7433 97.5844L61.4098 100.858L74.2182 105.697L89.8402 111.599L106.951 118.063L124.275 124.609L140.328 130.672L153.972 135.821L163.734 139.504C165.283 140.09 166.823 140.719 168.388 141.268L168.583 141.342C169.384 141.644 169.771 140.578 169.337 140.049L162.439 131.633L151.464 118.237L148.957 115.175C148.327 114.404 147.243 115.514 147.869 116.27V116.27Z" fill="#080A12"/>
  <rect x="17.4614" y="34.2603" width="39.9846" height="29.7957" rx="14.8979" fill="#7BCDEA"/>
  <path d="M53.5845 63.2813H22.0777C21.8255 63.2813 21.575 63.2813 21.3227 63.2813C21.201 63.2813 21.0775 63.2813 20.9558 63.2637C20.9152 63.2637 20.7194 63.2231 20.9205 63.2637C20.8623 63.2531 20.8023 63.2443 20.7441 63.2319C20.5125 63.1838 20.2858 63.1147 20.0668 63.0255C20.2432 63.0996 20.0668 63.0255 20.0385 63.0079C20.0103 62.9902 19.9345 62.9567 19.8833 62.9285C19.781 62.8738 19.6822 62.8138 19.5852 62.7521C19.5358 62.7204 19.4899 62.6851 19.4423 62.6533C19.2818 62.5422 19.5622 62.7609 19.4176 62.6322C19.3153 62.544 19.2147 62.4558 19.1195 62.3605C19.0242 62.2652 18.9643 62.1841 18.8884 62.1047C18.7596 61.9583 18.9784 62.2388 18.8672 62.0783C18.8355 62.0306 18.802 61.9848 18.7684 61.9371C18.7049 61.8401 18.645 61.7396 18.592 61.639L18.5127 61.4838L18.4633 61.3779C18.5038 61.4732 18.5074 61.4803 18.4739 61.4009C18.3902 61.179 18.3247 60.9507 18.2781 60.7182C18.2781 60.6829 18.2428 60.4801 18.2675 60.6865C18.2675 60.6265 18.2534 60.5665 18.2498 60.5101C18.2498 60.4077 18.2375 60.3054 18.2375 60.2031C18.2375 58.8925 18.2375 57.5818 18.2375 56.2712V38.4124C18.2375 38.3154 18.2375 38.2184 18.2375 38.1214C18.2375 38.0244 18.2375 37.9167 18.2498 37.8127C18.2498 37.7527 18.2604 37.6927 18.2675 37.6363C18.2428 37.8409 18.2675 37.6363 18.2781 37.6028C18.3262 37.3509 18.3994 37.1044 18.4968 36.8672C18.4209 37.0542 18.4968 36.8672 18.5127 36.8389L18.592 36.6837C18.6467 36.5814 18.7067 36.4826 18.7684 36.3856C18.802 36.338 18.8355 36.2921 18.8672 36.2445C18.9784 36.084 18.7596 36.3644 18.8884 36.218C18.9766 36.1175 19.0648 36.0152 19.1601 35.9199C19.2553 35.8246 19.3365 35.7664 19.4176 35.6888C19.5622 35.5618 19.2818 35.7788 19.4423 35.6694C19.4899 35.6359 19.5358 35.6024 19.5852 35.5706C19.6822 35.5071 19.781 35.4471 19.8833 35.3942C19.9345 35.366 19.9856 35.3395 20.0385 35.3148L20.1444 35.2655C20.0491 35.3043 20.0403 35.3078 20.1214 35.276C20.3428 35.1924 20.5705 35.1263 20.8023 35.0785C20.8394 35.0785 21.0405 35.0432 20.8341 35.0697C20.8941 35.0608 20.9558 35.0555 21.0105 35.0502C21.1128 35.0502 21.2151 35.0397 21.3192 35.0379H53.6463C53.7697 35.0379 53.8915 35.0485 54.0132 35.0608C54.216 35.0785 53.8491 35.0238 54.0467 35.0608L54.2231 35.0961C54.3377 35.1226 54.4524 35.1526 54.5653 35.1896C54.6217 35.2072 54.6782 35.2266 54.7329 35.2478L54.8422 35.2902C54.747 35.2496 54.7382 35.2478 54.8176 35.2902C55.0268 35.3922 55.2279 35.5101 55.4191 35.643C55.4473 35.6641 55.5955 35.7858 55.4455 35.6606C55.4914 35.6976 55.5355 35.7329 55.5796 35.7717C55.6808 35.8602 55.7773 35.9538 55.8689 36.0522L55.9836 36.181C56.0065 36.2074 56.1229 36.3574 56.0065 36.2039C56.0735 36.2974 56.1406 36.3927 56.2005 36.4897C56.2605 36.5867 56.3187 36.6908 56.3769 36.7948L56.451 36.9518C56.3628 36.7649 56.4687 36.9995 56.481 37.0383C56.5582 37.2631 56.6171 37.4937 56.6574 37.728C56.6204 37.5269 56.6574 37.728 56.6574 37.7633C56.6574 37.7986 56.6662 37.885 56.6698 37.9397C56.6733 37.9944 56.6698 38.0632 56.6698 38.1267V56.3647C56.6698 57.6612 56.6909 58.9595 56.6698 60.2543C56.6698 60.3778 56.6574 60.4995 56.6468 60.6212C56.6292 60.8241 56.6839 60.4571 56.6468 60.6547C56.6345 60.7129 56.6239 60.7729 56.6115 60.8311C56.5851 60.9458 56.5551 61.0604 56.518 61.1733C56.5004 61.2298 56.481 61.2862 56.4598 61.3409C56.4387 61.3956 56.3646 61.5526 56.4493 61.3727C56.3513 61.5829 56.2381 61.7857 56.1106 61.9795L56.01 62.1206C56.1264 61.9601 56.01 62.1206 55.9871 62.1435C55.9112 62.2317 55.8336 62.3199 55.7507 62.3958C55.6678 62.4716 55.5743 62.551 55.4949 62.6269C55.3485 62.7556 55.629 62.5369 55.4685 62.648L55.3274 62.7468C55.2303 62.8103 55.1315 62.8703 55.0292 62.9232C54.9781 62.9514 54.9252 62.9779 54.874 63.0026C54.8228 63.0273 54.6588 63.0943 54.8458 63.0202C54.6265 63.1089 54.3999 63.178 54.1684 63.2266L53.992 63.2584C54.1949 63.2213 53.992 63.2584 53.9585 63.2584C53.835 63.269 53.7133 63.2742 53.5898 63.276C53.3046 63.2624 53.0351 63.4068 52.8885 63.6517C52.7418 63.8966 52.7418 64.2024 52.8885 64.4473C53.0351 64.6923 53.3046 64.8367 53.5898 64.823C54.7377 64.8142 55.8432 64.3878 56.6997 63.6235C57.5364 62.856 58.065 61.81 58.1868 60.6812C58.225 60.2088 58.235 59.7347 58.2168 59.2611V38.1214C58.2066 37.0238 57.8156 35.9639 57.1108 35.1226C56.2146 34.0342 54.844 33.4873 53.4557 33.4873H21.5062C20.2691 33.462 19.0695 33.9122 18.1546 34.7451C17.3271 35.5285 16.8129 36.5863 16.7081 37.7209C16.6904 37.9262 16.6834 38.1323 16.6869 38.3383V59.0918V60.1925C16.6965 61.3308 17.1161 62.4274 17.8688 63.2813C18.6294 64.1273 19.6737 64.6652 20.8041 64.7931C21.1922 64.8295 21.5823 64.8413 21.9719 64.8283H53.5845C53.8697 64.842 54.1392 64.6976 54.2859 64.4526C54.4325 64.2077 54.4325 63.9019 54.2859 63.657C54.1392 63.4121 53.8697 63.2677 53.5845 63.2813V63.2813Z" fill="#080A12"/>
  <path d="M17.2621 47.1462L19.2219 47.7901L23.8648 49.3142L29.4214 51.1364L34.0448 52.6552C34.7098 52.8722 35.3713 53.1033 36.0399 53.3079C37.041 53.6013 38.1083 53.5772 39.0952 53.2391L40.0953 52.911L44.2284 51.5545L49.7197 49.7499L54.7436 48.1006L57.5184 47.1903L57.6507 47.1462C58.0492 47.0218 58.2774 46.6039 58.1665 46.2014C58.0557 45.7989 57.6457 45.5567 57.2397 45.6539L55.2993 46.2925L50.6617 47.8148L45.1474 49.6246L40.5028 51.1487C39.8501 51.3622 39.1992 51.5827 38.5448 51.7908C38.3676 51.8495 38.1867 51.896 38.0032 51.9302C37.9503 51.939 37.8974 51.9496 37.8462 51.9549C37.968 51.9408 37.8321 51.9549 37.8145 51.9549C37.6822 51.9549 37.5499 51.9725 37.4176 51.9708C37.2853 51.969 37.2059 51.9708 37.1001 51.9549C36.9448 51.9443 37.033 51.9549 37.0701 51.9549C37.0172 51.9549 36.9642 51.939 36.9131 51.9302C36.7292 51.8952 36.5478 51.8486 36.3698 51.7908L36.2234 51.7432L35.202 51.4081L31.0443 50.0427L25.5529 48.2434L20.5537 46.6029L17.7913 45.6962L17.6643 45.6539C17.2522 45.5443 16.8283 45.7853 16.7118 46.1954C16.608 46.6058 16.846 47.025 17.2515 47.1462H17.2621Z" fill="#080A12"/>
  <path d="M44.7119 50.5806L57.4462 60.0497Z" fill="white"/>
  <path d="M44.3201 51.2476L45.5884 52.1913L48.6348 54.4563L52.3004 57.1817L55.4844 59.5507C55.9978 59.9318 56.5005 60.3516 57.035 60.7026L57.0562 60.7185C57.3825 60.9619 57.9382 60.782 58.1146 60.4416C58.3161 60.071 58.1948 59.6076 57.8376 59.3832L56.5693 58.4412L53.5229 56.1762L49.8573 53.4508L46.6821 51.0818C46.1688 50.7008 45.6678 50.2809 45.1333 49.9299L45.1104 49.914C44.784 49.6706 44.2284 49.8505 44.052 50.191C43.8486 50.5613 43.9702 51.0261 44.3289 51.2494L44.3201 51.2476Z" fill="#080A12"/>
  <path d="M30.2309 50.5806L17.4966 60.0497Z" fill="white"/>
  <path d="M29.8414 49.9122L28.5731 50.8559L25.5266 53.1191L21.861 55.8445L18.6858 58.2135C18.169 58.5981 17.6504 58.9791 17.1353 59.3654L17.1141 59.3813C16.7913 59.623 16.5849 60.0622 16.8372 60.4397C17.0436 60.759 17.5428 60.9689 17.8956 60.7167L19.1639 59.7729L22.2015 57.5115L25.8671 54.7843L29.0529 52.417C29.5697 52.0325 30.0866 51.6515 30.6017 51.2651L30.6228 51.2475C30.9474 51.0076 31.152 50.5684 30.9015 50.1891C30.6952 49.8698 30.1959 49.6599 29.8431 49.9122H29.8414Z" fill="#080A12"/>
  <circle cx="36.486" cy="47.2219" r="1.86984" fill="white"/>
  <path d="M37.5833 47.222V47.379C37.5833 47.5272 37.5833 47.3279 37.5921 47.3243C37.6009 47.3208 37.5445 47.5378 37.5339 47.5695C37.5233 47.6013 37.481 47.7053 37.4845 47.7106C37.488 47.7159 37.5727 47.5342 37.5021 47.6612C37.4545 47.7459 37.4069 47.8288 37.3522 47.9117C37.264 48.0458 37.4474 47.8271 37.3681 47.8906C37.3387 47.9189 37.311 47.9489 37.2852 47.9805C37.264 48.0035 37.2393 48.0264 37.2164 48.0476L37.1793 48.0811C37.1176 48.134 37.1317 48.1234 37.2234 48.0511C37.1517 48.0901 37.0832 48.135 37.0188 48.1852L36.9324 48.231C36.8036 48.3051 37.0964 48.1834 36.9112 48.2398C36.8318 48.2628 36.7542 48.2892 36.6713 48.3069C36.5125 48.3404 36.6907 48.2857 36.7013 48.3069C36.7119 48.328 36.5866 48.3157 36.5725 48.3175C36.4843 48.3175 36.3961 48.3175 36.3114 48.3175C36.2268 48.3175 36.509 48.3563 36.3414 48.3175C36.292 48.3069 36.2426 48.2963 36.195 48.2822C36.1474 48.2681 36.0997 48.2522 36.0521 48.2363C35.941 48.201 36.1015 48.2363 36.0997 48.2575C36.0997 48.2487 35.911 48.1569 35.8845 48.1411C35.8581 48.1252 35.8193 48.0917 35.784 48.0723C35.694 48.0193 35.9216 48.1993 35.8069 48.0864C35.7893 48.0687 35.6058 47.8765 35.6041 47.8765C35.6023 47.8765 35.6993 48.014 35.6358 47.917C35.6094 47.8765 35.5811 47.8376 35.5547 47.7953L35.507 47.7089L35.4841 47.6665C35.4506 47.5907 35.4559 47.6066 35.5017 47.7159C35.4817 47.635 35.4563 47.5554 35.4259 47.4778C35.4171 47.446 35.4118 47.4125 35.4047 47.3808C35.3694 47.2255 35.4153 47.5572 35.4047 47.3578C35.4003 47.2797 35.4003 47.2014 35.4047 47.1232C35.4047 47.0386 35.4647 46.9556 35.4047 47.1232C35.4147 47.0911 35.4213 47.058 35.4241 47.0244C35.4435 46.9415 35.47 46.8639 35.4947 46.7845C35.5476 46.6205 35.41 46.9362 35.4947 46.7845C35.5194 46.7422 35.5406 46.6963 35.5653 46.654C35.5899 46.6117 35.6111 46.587 35.6323 46.5517C35.7134 46.4212 35.6411 46.5834 35.6146 46.5729C35.6146 46.5729 35.7699 46.407 35.7822 46.3965L35.8175 46.3629C35.8687 46.3224 35.8669 46.3206 35.8175 46.3629L35.7787 46.3929C35.8034 46.3735 35.8316 46.3541 35.8581 46.3365C35.8845 46.3188 36.1156 46.2007 36.1139 46.1918C36.1121 46.183 35.9286 46.2571 36.0662 46.213L36.2091 46.1671L36.3061 46.1424C36.3414 46.1424 36.4737 46.1424 36.3538 46.1301C36.2338 46.1177 36.3785 46.1301 36.4032 46.1301C36.4278 46.1301 36.4896 46.1301 36.5337 46.1301C36.5778 46.1301 36.6201 46.1301 36.6642 46.1301C36.83 46.1301 36.5125 46.0931 36.6642 46.1301C36.7612 46.1548 36.8565 46.1813 36.9535 46.2112C37.1088 46.2606 36.8442 46.1407 36.9271 46.2007C36.9712 46.2324 37.0311 46.2536 37.0788 46.2818L37.1617 46.3347L37.2411 46.3912C37.1493 46.3188 37.1352 46.31 37.197 46.3612C37.2587 46.4123 37.3134 46.4758 37.3734 46.5376C37.4933 46.6575 37.2816 46.3912 37.3734 46.5376C37.3998 46.5782 37.428 46.6187 37.4527 46.6593C37.4774 46.6999 37.4986 46.7457 37.5233 46.7898C37.5974 46.9186 37.4757 46.6328 37.5233 46.7898C37.555 46.8851 37.5797 46.9803 37.6044 47.0791C37.6291 47.1779 37.5709 47.0368 37.6044 47.0244C37.6044 47.0244 37.6168 47.2132 37.6168 47.2308C37.6032 47.516 37.7475 47.7855 37.9925 47.9322C38.2374 48.0788 38.5432 48.0788 38.7881 47.9322C39.0331 47.7855 39.1774 47.516 39.1638 47.2308C39.1505 46.1143 38.4484 45.1222 37.3998 44.7383C36.3747 44.3798 35.2347 44.684 34.5245 45.5056C33.8108 46.3591 33.7071 47.5678 34.2651 48.5302C34.8231 49.4927 35.9235 50.0034 37.0188 49.808C38.243 49.5893 39.1074 48.4339 39.1232 47.222C39.1369 46.9368 38.9925 46.6673 38.7475 46.5207C38.5026 46.374 38.1968 46.374 37.9519 46.5207C37.707 46.6673 37.5626 46.9368 37.5762 47.222H37.5833Z" fill="#080A12"/>
  <rect x="75.3755" y="34.2603" width="48.2401" height="21.0251" rx="10.5126" fill="#0A6375"/>
  <rect x="6.88477" y="81.209" width="23.3465" height="7.48112" rx="3.74056" fill="#0A6375"/>
  <path d="M48.8676 71.1471C51.9091 71.3639 54.9637 71.3131 57.9963 70.9954C58.8936 70.9025 59.7891 70.7849 60.6829 70.6426C61.0833 70.5809 61.3408 70.0569 61.2226 69.69C61.0815 69.2543 60.6934 69.085 60.2718 69.1503L59.7162 69.2332L59.4604 69.2684C59.3687 69.2808 59.4339 69.2684 59.4516 69.2684L59.2752 69.2914C58.9047 69.3384 58.5337 69.3825 58.1621 69.4237C57.42 69.5025 56.6756 69.5666 55.9289 69.6159C54.4224 69.7124 52.9136 69.7441 51.4024 69.7112C50.5557 69.6918 49.7072 69.6512 48.8623 69.5913C48.4358 69.5941 48.0908 69.9392 48.0879 70.3656C48.0981 70.789 48.4389 71.1298 48.8623 71.14L48.8676 71.1471Z" fill="#080A12"/>
  <path d="M49.2451 75.1728C51.2243 75.2411 53.2052 75.1045 55.1563 74.7653C55.5567 74.6965 55.8178 74.1832 55.6978 73.8128C55.5751 73.4076 55.1559 73.1701 54.7453 73.273C54.5213 73.31 54.2955 73.3471 54.0697 73.3806C53.8439 73.4141 53.7469 73.4264 53.4699 73.46C52.9995 73.5152 52.5291 73.5576 52.0587 73.587C51.1192 73.6476 50.1772 73.6605 49.2363 73.6258C48.8105 73.6286 48.4658 73.9726 48.4619 74.3984C48.4704 74.8225 48.8122 75.1644 49.2363 75.1728H49.2451Z" fill="#080A12"/>
  <path d="M49.2451 78.7853H50.5769C50.8905 78.7864 51.1737 78.5979 51.2936 78.3082C51.4135 78.0184 51.3464 77.6849 51.1238 77.4641C50.9765 77.3225 50.7812 77.2419 50.5769 77.2383H49.2451C48.8174 77.2383 48.4707 77.585 48.4707 78.0127C48.473 78.2175 48.5545 78.4135 48.6983 78.5595C48.845 78.7018 49.0407 78.7826 49.2451 78.7853V78.7853Z" fill="#080A12"/>
  <path d="M8.16697 93.414C10.578 93.5129 12.9928 93.474 15.3994 93.2976C15.8016 93.2676 16.1914 92.9624 16.172 92.5232C16.1544 92.1298 15.8316 91.717 15.3994 91.7488C12.9928 91.9258 10.5781 91.9653 8.16697 91.867C7.74049 91.8699 7.39546 92.2149 7.39258 92.6414C7.40195 93.0648 7.7435 93.4056 8.16697 93.414V93.414Z" fill="#080A12"/>
  <path d="M19.2028 92.6699C19.5162 92.6706 19.7991 92.4824 19.9195 92.1931C20.0399 91.9038 19.9741 91.5704 19.7528 91.3486C19.5314 91.1267 19.1982 91.0601 18.9086 91.1799C18.619 91.2997 18.4302 91.5821 18.4302 91.8955C18.434 92.3209 18.7774 92.6651 19.2028 92.6699V92.6699Z" fill="#080A12"/>
  <path d="M15.1982 23.6869C16.1049 22.4521 16.3589 20.6511 15.3993 19.3722C15.0402 18.8631 14.513 18.497 13.9105 18.3384C13.3626 18.2139 12.7909 18.2444 12.2594 18.4266C11.1366 18.8055 10.2348 19.6551 9.78979 20.7534C9.5446 21.369 9.55871 22.027 9.64867 22.6708C9.75275 23.4152 10.0703 24.1861 10.6436 24.6959C12.1165 26.0083 14.1539 25.0487 15.1947 23.6869C15.4416 23.3641 15.2547 22.8049 14.9177 22.6285C14.5085 22.4133 14.1222 22.5615 13.8593 22.9072C13.9422 22.7996 13.8858 22.8702 13.8364 22.9266C13.787 22.9831 13.7429 23.0307 13.6935 23.0783C13.5997 23.1731 13.5001 23.262 13.3954 23.3447C13.5154 23.2494 13.3707 23.3606 13.3248 23.3923C13.279 23.4241 13.219 23.4611 13.1643 23.4929C13.1096 23.5246 13.055 23.5564 12.9985 23.5863L12.9138 23.6287C12.9138 23.6287 12.7374 23.7028 12.8345 23.6657L12.7233 23.7028C12.6633 23.7204 12.6051 23.7381 12.5469 23.7522C12.4887 23.7663 12.3247 23.7857 12.4852 23.7716C12.4146 23.7716 12.3458 23.7839 12.277 23.7839C12.2082 23.7839 12.1588 23.7839 12.1006 23.7751C12.0071 23.7751 12.1606 23.7751 12.1606 23.7751C12.1606 23.7751 12.0583 23.7539 12.0442 23.7486C11.9844 23.7339 11.9255 23.7156 11.8678 23.694C12.0142 23.7486 11.8678 23.6816 11.8078 23.6463L11.7302 23.5952C11.8484 23.671 11.7602 23.6199 11.7302 23.5952C11.7002 23.5705 11.6349 23.507 11.5908 23.4576C11.5467 23.4082 11.4797 23.3041 11.5485 23.4135C11.5026 23.3412 11.4532 23.2706 11.4109 23.1965C11.3686 23.1224 11.3527 23.0801 11.3227 23.0201C11.3844 23.1365 11.3227 23.0201 11.3015 22.9619C11.2497 22.8163 11.2084 22.6671 11.1781 22.5156C11.1639 22.4503 11.1551 22.3833 11.1428 22.318C11.1692 22.4697 11.1428 22.281 11.1428 22.2245C11.1322 22.0817 11.1269 21.937 11.1304 21.7924C11.1304 21.7394 11.1304 21.6865 11.1304 21.6336C11.1304 21.6124 11.1304 21.5877 11.1304 21.5666C11.1304 21.5454 11.0987 21.743 11.1198 21.6601C11.141 21.5772 11.1622 21.4537 11.1939 21.3514C11.208 21.309 11.2239 21.2649 11.2398 21.2226C11.291 21.0779 11.2098 21.279 11.2398 21.2385C11.291 21.1432 11.3351 21.0462 11.3897 20.9527C11.4303 20.8857 11.545 20.7763 11.5661 20.7022C11.5661 20.7022 11.4638 20.8257 11.5185 20.7657C11.5326 20.7481 11.5467 20.7287 11.5626 20.711C11.5785 20.6934 11.6349 20.6281 11.672 20.5875C11.7408 20.5135 11.8149 20.4411 11.8907 20.3723L11.9983 20.2806C12.0177 20.263 12.083 20.2242 11.9983 20.2806C11.9136 20.3371 12.0195 20.2665 12.0336 20.2559C12.1977 20.139 12.3718 20.0369 12.554 19.9507L12.6157 19.9225C12.6898 19.8872 12.5346 19.956 12.5363 19.956C12.5811 19.9464 12.6244 19.931 12.6651 19.9102C12.7634 19.8764 12.8635 19.8481 12.965 19.8255C12.9862 19.8255 13.0832 19.8255 13.0955 19.8008C13.0638 19.8431 12.9191 19.8184 13.0197 19.8114H13.0832C13.176 19.8052 13.2691 19.8052 13.3619 19.8114C13.3919 19.8114 13.5753 19.829 13.4289 19.8114C13.2825 19.7937 13.4289 19.8114 13.4713 19.8237L13.5947 19.8573C13.6247 19.8573 13.8099 19.9366 13.6829 19.8819C13.5559 19.8273 13.6988 19.8925 13.727 19.9084C13.7553 19.9243 13.8029 19.9507 13.8399 19.9737C13.877 19.9966 13.8893 20.0072 13.914 20.0213C13.9811 20.0583 13.8488 19.9701 13.8488 19.9684C13.886 20.0073 13.9268 20.0427 13.9705 20.0742C14.011 20.113 14.0499 20.1518 14.0869 20.1942C14.0869 20.1942 14.1522 20.2665 14.1504 20.2683C14.1486 20.27 14.0516 20.1271 14.1204 20.233C14.1976 20.3458 14.2671 20.4637 14.3286 20.5858C14.3427 20.6158 14.3568 20.644 14.3691 20.674C14.3391 20.6052 14.3444 20.6105 14.3691 20.674C14.3938 20.7375 14.415 20.8222 14.4326 20.8998C14.4326 20.9315 14.4468 20.965 14.4538 20.9968C14.4961 21.1979 14.4538 20.9086 14.4538 21.0233C14.4538 21.1026 14.4644 21.1803 14.4644 21.2579C14.4644 21.3355 14.4644 21.4149 14.4644 21.4942C14.4644 21.5172 14.445 21.6601 14.4644 21.5595C14.4838 21.459 14.4538 21.6089 14.452 21.6248C14.4184 21.7932 14.3724 21.9588 14.3145 22.1205C14.3039 22.1522 14.2898 22.1857 14.2792 22.2175C14.2404 22.3286 14.3303 22.1205 14.2792 22.2175C14.2421 22.2898 14.2104 22.3639 14.1716 22.4345C14.08 22.5984 13.9762 22.7553 13.8611 22.9037C13.6212 23.23 13.7958 23.7857 14.1398 23.9621C14.5096 24.1668 14.9749 24.0458 15.1982 23.6869V23.6869Z" fill="#080A12"/>
  <path d="M16.0397 29.1549L16.9834 30.6808C17.0885 30.8516 17.2531 30.9773 17.4456 31.0336C17.6468 31.0873 17.861 31.0594 18.0418 30.956C18.2146 30.8532 18.341 30.6876 18.3946 30.4938C18.4478 30.2924 18.4192 30.0781 18.3152 29.8976L17.3768 28.3717C17.2721 28.2006 17.1073 28.0748 16.9146 28.0189C16.7134 27.9652 16.4991 27.9931 16.3184 28.0965C16.1453 28.1999 16.0189 28.3661 15.9656 28.5605C15.9121 28.7617 15.9399 28.9759 16.0432 29.1567L16.0397 29.1549Z" fill="#080A12"/>
  <path d="M11.0354 34.4509H11.0672L10.8608 34.4791C11.1231 34.4447 11.3888 34.4447 11.6511 34.4791L11.4411 34.4456C11.7026 34.4825 11.9581 34.553 12.2014 34.6555L12.025 34.5779C12.1361 34.626 12.2445 34.6801 12.3496 34.7402C12.531 34.8418 12.7445 34.8696 12.9458 34.8178C13.2427 34.7315 13.4598 34.477 13.4982 34.1702C13.5365 33.8635 13.3887 33.5633 13.1222 33.4066C12.7744 33.2025 12.3944 33.0587 11.9986 32.9815C11.5445 32.8849 11.0759 32.8778 10.6191 32.9603C10.4253 33.0139 10.2598 33.1403 10.1569 33.3131C10.0537 33.4939 10.0258 33.7081 10.0793 33.9094C10.1324 34.1034 10.259 34.2691 10.4321 34.3715L10.6085 34.4509C10.7439 34.4862 10.886 34.4862 11.0213 34.4509H11.0354Z" fill="#080A12"/>
  <path d="M10.2607 42.0571L11.7813 42.2494C11.9866 42.2496 12.1835 42.1676 12.3281 42.0218C12.4738 41.8771 12.5557 41.6803 12.5557 41.475C12.5557 41.2697 12.4738 41.0728 12.3281 40.9281L12.1729 40.8064C12.0542 40.7366 11.9189 40.7001 11.7813 40.7006L10.2607 40.5083C10.0554 40.5081 9.85846 40.59 9.71387 40.7359C9.56823 40.8806 9.48633 41.0774 9.48633 41.2827C9.48633 41.488 9.56823 41.6848 9.71387 41.8295L9.8691 41.9513C9.98778 42.021 10.123 42.0576 10.2607 42.0571V42.0571Z" fill="#080A12"/>
  <path d="M82.4915 45.7085C84.1744 46.2607 86.1272 46.6523 87.84 45.9978C89.3517 45.421 90.5936 44.1809 90.7947 42.528C90.8494 42.0853 90.8106 41.5825 90.5407 41.2103C90.283 40.8454 89.872 40.6191 89.4258 40.5965C88.6277 40.5674 87.9004 41.0519 87.6195 41.7995C87.2843 42.6815 87.7959 43.6711 88.4133 44.285C88.9841 44.8288 89.6757 45.2295 90.4313 45.4545C91.8776 45.8942 93.439 45.7452 94.776 45.04C95.1141 44.8563 95.4312 44.6362 95.7215 44.3838C95.8521 44.2709 95.9756 44.1474 96.099 44.031C96.1625 43.9675 96.2278 43.9057 96.2931 43.8457C96.3178 43.8246 96.346 43.8034 96.3689 43.7805C96.4307 43.7205 96.2754 43.8369 96.3954 43.7628C96.436 43.7364 96.6459 43.6305 96.4924 43.6887C96.533 43.6729 96.5736 43.6623 96.6159 43.6482C96.7464 43.6094 96.6565 43.6482 96.6159 43.6482H96.7641C96.6335 43.6482 96.7464 43.6482 96.7782 43.657C96.8099 43.6658 96.8752 43.6817 96.9228 43.6976C96.9228 43.6976 97.1416 43.7875 97.0234 43.7346C97.3762 43.8916 97.699 44.0874 98.05 44.2338C100.872 45.458 103.961 45.2446 106.946 44.9183C108.435 44.7542 109.925 44.5655 111.425 44.5178C112.161 44.4896 112.899 44.5072 113.633 44.5707L113.896 44.599C113.945 44.599 114.194 44.6378 114.018 44.6113C114.194 44.6378 114.371 44.6642 114.547 44.696C114.915 44.763 115.279 44.8496 115.637 44.9553C115.976 45.0552 116.31 45.173 116.637 45.3081C117.013 45.4651 117.505 45.1405 117.59 44.7683C117.692 44.315 117.45 43.9833 117.048 43.8158C114.459 42.7344 111.58 42.8755 108.842 43.1595C107.45 43.3042 106.064 43.4859 104.669 43.5776C103.988 43.6217 103.305 43.6429 102.622 43.6252C102.282 43.6147 101.943 43.5953 101.603 43.5635C101.451 43.5494 101.299 43.5317 101.149 43.5123C101.338 43.537 101.068 43.4982 101.031 43.4929L100.775 43.4488C100.123 43.3326 99.4842 43.1506 98.8685 42.9055C98.8474 42.8967 98.7186 42.842 98.8085 42.8808L98.7786 42.8685C98.6992 42.8314 98.618 42.7962 98.5387 42.7574C98.3623 42.6744 98.1859 42.581 98.0236 42.4963C97.6187 42.2622 97.1654 42.1246 96.6988 42.0941C95.8009 42.0817 95.2682 42.7327 94.6526 43.2707C94.6085 43.3077 94.4762 43.4153 94.5926 43.3254C94.5273 43.3748 94.4603 43.4224 94.3933 43.4682C94.2569 43.5601 94.1156 43.6443 93.9699 43.7205L93.7759 43.814L93.6929 43.8528C93.8394 43.784 93.7406 43.8334 93.7071 43.8528C93.5518 43.9092 93.3984 43.9657 93.2378 44.0098C93.0773 44.0539 92.9591 44.0804 92.818 44.1068C92.7598 44.1174 92.5393 44.1456 92.7175 44.1262L92.4705 44.1509C92.1512 44.1703 91.8308 44.1633 91.5126 44.1297H91.5656L91.4438 44.1103L91.2022 44.0609C91.0416 44.0246 90.8832 43.9792 90.7277 43.9251C90.6589 43.9022 90.5936 43.8757 90.5248 43.851C90.456 43.8263 90.5601 43.8669 90.5671 43.8704L90.456 43.8193C90.3066 43.7508 90.1617 43.673 90.0221 43.5864C89.9603 43.5494 89.9003 43.5088 89.8457 43.4682C89.791 43.4277 89.6693 43.3289 89.7786 43.4241C89.6332 43.304 89.4959 43.1744 89.3676 43.0361C89.2688 42.9302 89.3341 42.999 89.3553 43.0272C89.327 42.9902 89.3006 42.9514 89.2741 42.9126C89.23 42.8438 89.1965 42.7662 89.1506 42.7009C89.0871 42.6074 89.1806 42.805 89.1506 42.7009C89.1401 42.6674 89.1277 42.6356 89.1171 42.6039C89.1065 42.5721 89.096 42.5174 89.0836 42.4733C89.0466 42.3375 89.0713 42.528 89.0836 42.4469C89.0854 42.4134 89.0854 42.3798 89.0836 42.3463C89.0836 42.1964 89.0836 42.3199 89.0836 42.3463C89.0836 42.3728 89.1083 42.2564 89.1083 42.2546C89.1083 42.2528 89.0113 42.431 89.0871 42.3111C89.1012 42.2919 89.1131 42.2712 89.1224 42.2493C89.1454 42.1682 89.0166 42.3428 89.0871 42.2934C89.1224 42.2687 89.2441 42.117 89.1665 42.2087C89.0889 42.3005 89.1506 42.2211 89.1877 42.1999C89.2163 42.1864 89.2439 42.1711 89.2706 42.1541C89.3341 42.11 89.2053 42.1893 89.1947 42.1841C89.1842 42.1788 89.2706 42.1576 89.2847 42.1541C89.3152 42.1483 89.3452 42.1407 89.3747 42.1311C89.3747 42.1311 89.1983 42.14 89.2829 42.1435C89.3123 42.1452 89.3418 42.1452 89.3711 42.1435C89.4982 42.1435 89.3711 42.1435 89.3182 42.1329C89.3465 42.1378 89.3743 42.1455 89.4011 42.1558C89.4011 42.1558 89.2371 42.0835 89.3129 42.1205C89.4611 42.1929 89.2283 42.0306 89.3129 42.1205L89.2494 42.0359L89.2741 42.0747C89.2741 42.0747 89.2194 41.8983 89.2741 42.0888C89.2865 42.1276 89.2847 42.2264 89.2741 42.0888V42.2352C89.2721 42.3225 89.2656 42.4096 89.2547 42.4963C89.2724 42.3393 89.2547 42.4963 89.2353 42.5651C89.2159 42.6339 89.2 42.7044 89.1789 42.7732C89.1665 42.812 89.1542 42.8508 89.1401 42.8897C89.126 42.9285 89.0642 43.0661 89.1101 42.9673L89.0995 42.9884C89.0801 43.0237 89.0624 43.0608 89.043 43.0978C89.006 43.1701 88.9637 43.2407 88.9196 43.3112C88.8755 43.3818 88.8367 43.4294 88.7978 43.4876C88.759 43.5459 88.819 43.463 88.8243 43.4559C88.7908 43.4965 88.759 43.537 88.7238 43.5758C88.62 43.694 88.5092 43.806 88.3921 43.911C88.3374 43.9604 88.2792 44.0063 88.2157 44.0539C88.1275 44.128 88.3163 43.9869 88.2157 44.0539C88.1699 44.0839 88.1275 44.1156 88.0834 44.1456C87.9599 44.2285 87.8312 44.3044 87.7006 44.3749L87.4713 44.4878C87.4396 44.5019 87.3337 44.5372 87.4801 44.4878L87.3602 44.5337C87.2089 44.5883 87.0546 44.6343 86.898 44.6713C86.8063 44.6942 86.7216 44.7136 86.6211 44.7295L86.4623 44.756C86.5699 44.7401 86.4288 44.756 86.39 44.756C85.9892 44.793 85.5859 44.793 85.1852 44.756C85.0899 44.7471 84.9964 44.7366 84.9029 44.7242C85.0194 44.7401 84.8835 44.7242 84.8677 44.7242L84.7071 44.6978C84.4937 44.6607 84.2802 44.6148 84.0686 44.5637C83.6717 44.4684 83.2818 44.352 82.8937 44.225C82.482 44.1142 82.0577 44.3547 81.9412 44.7648C81.8375 45.1761 82.0763 45.5961 82.4827 45.7173L82.4915 45.7085Z" fill="white"/>
  <path d="M85.1427 73.3663C85.7954 72.853 86.4639 72.255 86.6809 71.4259C86.9049 70.558 86.6385 69.6372 85.8836 69.1327C85.5166 68.8875 85.0509 69.0851 84.8252 69.4114C84.4635 69.93 84.1672 70.6127 84.206 71.2601C84.2193 71.6546 84.3812 72.0295 84.6593 72.3097C85.0121 72.6413 85.4655 72.7277 85.9294 72.7489C87.667 72.8318 89.408 72.8547 91.1456 72.8494C94.6101 72.8377 98.0693 72.6695 101.523 72.3449C103.511 72.1579 105.493 71.9198 107.47 71.6305C107.872 71.5723 108.128 71.0431 108.011 70.6797C107.868 70.2387 107.482 70.0764 107.059 70.1382C106.231 70.2581 105.6 70.3428 104.765 70.4451C103.931 70.5474 103.123 70.6374 102.296 70.7203C100.667 70.8838 99.0348 71.0137 97.3989 71.1101C94.1426 71.2971 90.8827 71.3471 87.6193 71.2601C87.1695 71.2477 86.7215 71.2336 86.2716 71.216L85.9188 71.2019H85.776C85.6613 71.2019 85.7495 71.1754 85.776 71.2019C85.776 71.2019 85.6119 71.1507 85.7601 71.2124C85.7287 71.198 85.6986 71.1809 85.6701 71.1613C85.6701 71.1613 85.7901 71.2636 85.7319 71.2054C85.6736 71.1472 85.8006 71.3536 85.7513 71.2354C85.7371 71.2019 85.7266 71.1507 85.7513 71.2442C85.7812 71.3712 85.7513 71.2336 85.7513 71.2054C85.7513 71.1772 85.7195 71.0925 85.7513 71.2054C85.783 71.3183 85.7513 71.1913 85.7513 71.1595C85.753 71.1337 85.753 71.1078 85.7513 71.0819C85.7354 71.0025 85.7124 71.2583 85.7513 71.1013C85.7671 71.0272 85.783 70.9549 85.8042 70.8826C85.8253 70.8103 85.8518 70.7538 85.8712 70.6903C85.903 70.5862 85.8112 70.8103 85.8624 70.7132C85.88 70.678 85.8959 70.6409 85.9135 70.6056C85.9862 70.4621 86.0694 70.3242 86.1623 70.1929L85.1039 70.4698C85.2273 70.5527 85.0174 70.3675 85.1427 70.5121C85.1797 70.5545 85.1691 70.5404 85.1092 70.4663C85.125 70.4892 85.1391 70.5121 85.1533 70.5368C85.1674 70.5615 85.1815 70.5862 85.1938 70.6127C85.1538 70.5139 85.1486 70.5051 85.178 70.5862C85.1868 70.6303 85.2326 70.7115 85.2185 70.7538C85.2079 70.655 85.2044 70.6339 85.2097 70.6938V70.782V70.9584C85.2273 70.8508 85.2273 70.842 85.2097 70.9284L85.1974 70.9867C85.1974 71.0078 85.1268 71.2283 85.1638 71.119C85.2009 71.0096 85.1145 71.2142 85.1003 71.2389C85.058 71.3112 85.0139 71.38 84.9663 71.4488C85.0421 71.3412 84.9328 71.4876 84.9098 71.5141C84.8622 71.567 84.8128 71.6199 84.7634 71.6711C84.5401 71.8878 84.3045 72.0916 84.0578 72.2814C83.7385 72.5319 83.7756 73.1158 84.0578 73.3751C84.3983 73.6873 84.8128 73.6432 85.1533 73.3751L85.1427 73.3663Z" fill="white"/>
  <path d="M68.1379 117.204C73.9873 123.536 80.0043 129.728 86.4835 135.412C92.287 140.494 98.5969 145.269 105.887 147.971C107.646 148.628 109.457 149.135 111.301 149.487C113.122 149.827 115.006 150.063 116.87 149.998C118.592 149.936 120.377 149.562 121.709 148.411C122.852 147.417 123.317 145.852 122.901 144.396C122.548 143.076 121.513 141.854 120.065 141.824C118.537 141.792 117.419 143.071 117.184 144.498C116.911 146.172 117.597 147.656 118.931 148.672C120.312 149.73 122.083 150.122 123.755 150.451C129.753 151.632 137.172 151.819 141.981 147.403C142.568 146.858 143.1 146.255 143.568 145.604C143.813 145.265 143.625 144.741 143.29 144.546C142.898 144.316 142.478 144.484 142.231 144.823C138.723 149.637 131.972 150.03 126.555 149.349C125.064 149.176 123.59 148.887 122.145 148.485C121.395 148.288 120.681 147.975 120.028 147.559C119.734 147.36 119.47 147.123 119.241 146.853C119.074 146.652 118.938 146.427 118.839 146.186C118.657 145.697 118.62 145.166 118.731 144.657C118.775 144.399 118.875 144.155 119.024 143.941C119.137 143.767 119.289 143.623 119.467 143.517C119.625 143.418 119.809 143.367 119.996 143.369C120.071 143.367 120.147 143.37 120.222 143.378C120.082 143.36 120.206 143.378 120.232 143.378C120.303 143.395 120.372 143.416 120.44 143.44C120.299 143.388 120.486 143.464 120.516 143.482C120.883 143.724 121.163 144.075 121.319 144.486C121.365 144.613 121.404 144.743 121.435 144.875C121.451 144.941 121.465 145.008 121.478 145.075C121.478 145.105 121.502 145.276 121.49 145.154C121.504 145.291 121.51 145.428 121.508 145.565C121.508 145.687 121.497 145.809 121.476 145.929C121.36 146.51 121.026 147.026 120.543 147.37C119.412 148.269 117.833 148.446 116.44 148.451C113.009 148.465 109.569 147.673 106.364 146.493C99.7064 144.039 93.8552 139.725 88.5227 135.129C82.4192 129.871 76.7374 124.145 71.2355 118.266C70.5628 117.546 69.8931 116.825 69.2263 116.103C68.5489 115.369 67.4623 116.466 68.1308 117.197L68.1379 117.204Z" fill="#080A12"/>
  <path d="M55.0629 113.831C57.0186 116.047 59.0213 118.223 61.0711 120.357C63.1209 122.492 65.2171 124.576 67.3597 126.611C68.5698 127.767 69.7941 128.907 71.0324 130.031C71.3349 130.334 71.8253 130.334 72.1278 130.031C72.4303 129.729 72.4303 129.238 72.1278 128.936C69.9405 126.948 67.796 124.914 65.6945 122.834C63.593 120.754 61.538 118.629 59.5293 116.461C58.391 115.233 57.2691 113.992 56.1636 112.737C55.86 112.437 55.3718 112.437 55.0682 112.737C54.7761 113.043 54.7761 113.525 55.0682 113.831H55.0629Z" fill="#080A12"/>
  <path d="M124.637 8.56735H128.913C129.34 8.56735 129.687 8.22064 129.687 7.79295C129.687 7.36526 129.34 7.01855 128.913 7.01855H124.637C124.209 7.01855 123.862 7.36526 123.862 7.79295C123.862 8.22064 124.209 8.56735 124.637 8.56735Z" fill="#080A12"/>
</svg>