<svg xmlns="http://www.w3.org/2000/svg" width="19" height="20" viewBox="0 0 19 20" fill="none">
  <path d="M3.8472 17.5002C4.30744 17.5002 4.68054 17.8733 4.68054 18.3336C4.68054 18.7938 4.30744 19.1669 3.8472 19.1669H3.33301C1.9523 19.1669 0.833008 18.0476 0.833008 16.6669C0.833008 16.5023 0.84927 16.3381 0.881556 16.1766L1.83884 11.3902C2.58194 7.67471 5.84427 5.00024 9.63333 5.00024C13.4224 5.00024 16.6847 7.67471 17.4278 11.3902L18.3851 16.1766C18.6559 17.5305 17.7779 18.8476 16.424 19.1184C16.2625 19.1506 16.0983 19.1669 15.9337 19.1669H3.33301C2.87277 19.1669 2.49967 18.7938 2.49967 18.3336C2.49967 17.8733 2.87277 17.5002 3.33301 17.5002H15.9337C15.9885 17.5002 16.0433 17.4948 16.0971 17.4841C16.5484 17.3938 16.8411 16.9548 16.7508 16.5035L15.7935 11.7171C15.2062 8.78061 12.6279 6.66691 9.63333 6.66691C6.63873 6.66691 4.06043 8.78061 3.47314 11.7171L2.51586 16.5035C2.50509 16.5573 2.49967 16.612 2.49967 16.6669C2.49967 17.1271 2.87277 17.5002 3.33301 17.5002H3.8472Z" fill="#2F7FD0"/>
  <path d="M12.0944 10.8336C12.5546 10.8336 12.9277 10.4605 12.9277 10.0002C12.9277 9.54 12.5546 9.1669 12.0944 9.1669H7.97841C7.05794 9.1669 6.31175 9.91309 6.31175 10.8336V11.6669C6.31175 12.5874 7.05794 13.3336 7.97841 13.3336H11.3001V14.1669H7.13346C6.67323 14.1669 6.30013 14.54 6.30013 15.0002C6.30013 15.4605 6.67323 15.8336 7.13346 15.8336H11.3001C12.2206 15.8336 12.9668 15.0874 12.9668 14.1669V13.3336C12.9668 12.4131 12.2206 11.6669 11.3001 11.6669H7.97841V10.8336H12.0944Z" fill="#2F7FD0"/>
  <path d="M10.4665 15.8263C10.4665 16.2865 10.0934 16.6596 9.63314 16.6596C9.1729 16.6596 8.7998 16.2865 8.7998 15.8263V15.0002C8.7998 14.54 9.1729 14.1669 9.63314 14.1669C10.0934 14.1669 10.4665 14.54 10.4665 15.0002V15.8263Z" fill="#2F7FD0"/>
  <path d="M10.4665 10.0002C10.4665 10.4605 10.0934 10.8336 9.63314 10.8336C9.1729 10.8336 8.7998 10.4605 8.7998 10.0002V9.16689C8.7998 8.70665 9.1729 8.33356 9.63314 8.33356C10.0934 8.33356 10.4665 8.70665 10.4665 9.16689V10.0002Z" fill="#2F7FD0"/>
  <path d="M12.3583 3.02976L11.36 5.5255C11.1891 5.95282 11.3969 6.4378 11.8242 6.60872C12.2516 6.77965 12.7365 6.57181 12.9075 6.14449L14.5741 1.97782C14.8378 1.31865 14.2091 0.652751 13.5359 0.878081L11.3728 1.60205L10.0046 0.922068C9.76986 0.805412 9.49392 0.806001 9.25968 0.923657L7.9095 1.60185L5.72986 0.877517C5.05694 0.653891 4.42997 1.31943 4.69333 1.97782L6.36 6.14449C6.53092 6.57181 7.0159 6.77965 7.44322 6.60872C7.87054 6.4378 8.07839 5.95282 7.90746 5.5255L6.90729 3.02509L7.71189 3.29247C7.92188 3.36225 8.151 3.34565 8.34874 3.24633L9.63571 2.59988L10.9397 3.24792C11.1373 3.34612 11.3658 3.36194 11.5751 3.29191L12.3583 3.02976Z" fill="#2F7FD0"/>
</svg>