<svg width="259" height="92" viewBox="0 0 259 92" fill="none" xmlns="http://www.w3.org/2000/svg">
<g clip-path="url(#clip0_83_10637)">
<path fill-rule="evenodd" clip-rule="evenodd" d="M206.847 55.6106C206.698 55.2841 206.564 54.9577 206.445 54.6271C206.267 54.1313 206.156 53.6133 206.005 53.1102C205.941 52.8968 205.765 52.3428 205.754 52.2594C205.66 51.5311 206.198 51.2715 206.359 51.2078C206.436 51.1747 207.236 50.8617 207.659 51.7284C208.177 52.7879 208.548 53.8948 208.766 55.0181C209.198 55.9072 209.756 56.7582 210.389 57.4944C212.909 60.4222 216.082 59.9222 219.416 58.9959C219.928 58.8504 220.463 59.1394 220.626 59.6432C220.791 60.1508 220.528 60.699 220.029 60.8822C218.209 61.5634 215.295 63.9499 214.567 65.8168C214.415 66.2076 214.487 67.0326 214.509 67.8542C214.539 68.995 214.517 70.1374 214.293 70.675C214.26 70.758 213.824 71.6326 213.665 71.7863C213.282 72.1525 212.885 72.1065 212.646 72.0306C212.407 71.9546 212.107 71.7591 211.901 71.3573C211.685 70.9375 211.521 70.0013 211.454 69.8094C211.209 69.1133 210.693 67.7568 210.082 66.6358C209.752 66.0323 209.426 65.4815 209.071 65.2596C207.756 64.4383 206.167 65.0371 204.84 65.5861C204.687 65.6476 204.536 65.713 204.383 65.7744C203.868 66.0896 203.306 66.3718 202.698 66.6131C201.779 66.9787 201.389 66.1484 201.366 66.093C201.314 65.971 201.073 65.3355 201.718 64.8826C201.789 64.8348 202.33 64.5538 202.539 64.4445C202.829 64.2926 203.127 64.1551 203.427 64.0212C206.396 62.1469 207.397 58.848 206.847 55.6106ZM208.894 58.8051C210.794 61.0055 212.977 61.7301 215.324 61.694L215.324 61.6942C214.143 62.7805 213.135 64.0142 212.715 65.0944C212.555 65.5036 212.509 66.2531 212.508 67.081C212.203 66.3927 211.846 65.6689 211.47 65.0696C211.042 64.3856 210.568 63.8495 210.126 63.5728C209.272 63.0397 208.334 62.8669 207.387 62.9108C208.204 61.6748 208.699 60.2739 208.894 58.8051Z" fill="#0A8DA8"/>
</g>
<g clip-path="url(#clip1_83_10637)">
<path fill-rule="evenodd" clip-rule="evenodd" d="M182.779 9.97569C182.705 9.81359 182.638 9.65152 182.58 9.4874C182.491 9.24123 182.436 8.98404 182.361 8.73425C182.329 8.6283 182.242 8.35323 182.236 8.31179C182.19 7.9502 182.457 7.82129 182.537 7.78968C182.575 7.77327 182.972 7.61783 183.182 8.04815C183.439 8.5742 183.624 9.12378 183.732 9.6815C183.946 10.123 184.223 10.5455 184.538 10.911C185.789 12.3647 187.364 12.1164 189.02 11.6565C189.274 11.5843 189.539 11.7278 189.621 11.9779C189.702 12.2299 189.572 12.5021 189.324 12.593C188.42 12.9312 186.974 14.1162 186.612 15.0431C186.537 15.2371 186.572 15.6467 186.583 16.0546C186.598 16.6211 186.587 17.1883 186.476 17.4552C186.46 17.4963 186.243 17.9306 186.164 18.0069C185.974 18.1887 185.777 18.1659 185.658 18.1282C185.54 18.0905 185.391 17.9934 185.288 17.7939C185.181 17.5855 185.1 17.1207 185.066 17.0254C184.945 16.6798 184.689 16.0063 184.385 15.4497C184.222 15.15 184.06 14.8766 183.883 14.7664C183.231 14.3586 182.441 14.656 181.783 14.9285C181.707 14.9591 181.632 14.9915 181.556 15.022C181.3 15.1785 181.021 15.3186 180.719 15.4384C180.263 15.6199 180.069 15.2077 180.058 15.1802C180.032 15.1196 179.912 14.8041 180.233 14.5792C180.268 14.5555 180.537 14.416 180.64 14.3617C180.784 14.2863 180.932 14.218 181.081 14.1515C182.555 13.221 183.052 11.583 182.779 9.97569ZM183.796 11.5617C184.739 12.6542 185.822 13.014 186.988 12.9961L186.988 12.9962C186.402 13.5355 185.901 14.1481 185.693 14.6844C185.613 14.8876 185.59 15.2597 185.59 15.6707C185.438 15.329 185.261 14.9696 185.074 14.6721C184.862 14.3325 184.627 14.0663 184.407 13.9289C183.983 13.6642 183.518 13.5785 183.047 13.6002C183.453 12.9866 183.699 12.291 183.796 11.5617Z" fill="#D0624C"/>
</g>
<g clip-path="url(#clip2_83_10637)">
<path fill-rule="evenodd" clip-rule="evenodd" d="M68.1745 68.3374C68.11 68.1962 68.0521 68.0551 68.0008 67.9122C67.9238 67.6979 67.8759 67.474 67.8107 67.2565C67.7829 67.1643 67.7068 66.9248 67.702 66.8887C67.6612 66.5739 67.8941 66.4617 67.9636 66.4342C67.997 66.4199 68.3427 66.2845 68.5255 66.6592C68.7493 67.1172 68.9099 67.5957 69.0042 68.0812C69.1907 68.4656 69.432 68.8334 69.7058 69.1516C70.7949 70.4172 72.1663 70.2011 73.6076 69.8007C73.8289 69.7378 74.0601 69.8627 74.1309 70.0805C74.2022 70.2999 74.0884 70.5369 73.8725 70.6161C73.0858 70.9105 71.8265 71.9421 71.5118 72.7491C71.446 72.9181 71.4769 73.2747 71.4867 73.6298C71.4995 74.123 71.49 74.6168 71.3933 74.8492C71.3791 74.885 71.1904 75.2631 71.1217 75.3295C70.9562 75.4878 70.7845 75.4679 70.6812 75.4351C70.5779 75.4023 70.4482 75.3178 70.359 75.1441C70.2657 74.9626 70.195 74.5579 70.1658 74.475C70.0599 74.1741 69.8369 73.5877 69.5727 73.1032C69.4304 72.8423 69.2893 72.6042 69.1358 72.5082C68.5676 72.1532 67.8805 72.4121 67.307 72.6494C67.241 72.676 67.1754 72.7043 67.1096 72.7308C66.8867 72.8671 66.644 72.989 66.381 73.0933C65.9839 73.2514 65.8154 72.8924 65.8051 72.8685C65.7828 72.8158 65.6787 72.5411 65.9575 72.3453C65.9881 72.3247 66.2222 72.2032 66.3122 72.1559C66.4378 72.0903 66.5665 72.0308 66.6963 71.9729C67.9795 71.1628 68.4123 69.7368 68.1745 68.3374ZM69.0594 69.7182C69.8807 70.6694 70.8241 70.9826 71.8388 70.967L71.8386 70.967C71.3283 71.4366 70.8925 71.9699 70.711 72.4368C70.642 72.6138 70.622 72.9377 70.6216 73.2956C70.4897 72.9981 70.3354 72.6852 70.1729 72.4262C69.9878 72.1305 69.7831 71.8987 69.5919 71.7791C69.2229 71.5487 68.8174 71.474 68.4079 71.4929C68.761 70.9587 68.975 70.3531 69.0594 69.7182Z" fill="#FFCEC4"/>
</g>
<g clip-path="url(#clip3_83_10637)">
<path fill-rule="evenodd" clip-rule="evenodd" d="M43.1745 34.3374C43.11 34.1962 43.0521 34.0551 43.0008 33.9122C42.9238 33.6979 42.8759 33.474 42.8107 33.2565C42.7829 33.1643 42.7068 32.9248 42.702 32.8887C42.6612 32.5739 42.8941 32.4617 42.9636 32.4342C42.997 32.4199 43.3427 32.2845 43.5255 32.6592C43.7493 33.1172 43.9099 33.5957 44.0042 34.0812C44.1907 34.4656 44.432 34.8334 44.7058 35.1516C45.7949 36.4172 47.1663 36.2011 48.6076 35.8007C48.8289 35.7378 49.0601 35.8627 49.1309 36.0805C49.2022 36.2999 49.0884 36.5369 48.8725 36.6161C48.0858 36.9105 46.8265 37.9421 46.5118 38.7491C46.446 38.9181 46.4769 39.2747 46.4867 39.6298C46.4995 40.123 46.49 40.6168 46.3933 40.8492C46.3791 40.885 46.1904 41.2631 46.1217 41.3295C45.9562 41.4878 45.7845 41.4679 45.6812 41.4351C45.5779 41.4023 45.4482 41.3178 45.359 41.1441C45.2657 40.9626 45.195 40.5579 45.1658 40.475C45.0599 40.1741 44.8369 39.5877 44.5727 39.1032C44.4304 38.8423 44.2893 38.6042 44.1358 38.5082C43.5676 38.1532 42.8805 38.4121 42.307 38.6494C42.241 38.676 42.1754 38.7043 42.1096 38.7308C41.8867 38.8671 41.644 38.989 41.381 39.0933C40.9839 39.2514 40.8154 38.8924 40.8051 38.8685C40.7828 38.8158 40.6787 38.5411 40.9575 38.3453C40.9881 38.3247 41.2222 38.2032 41.3122 38.1559C41.4378 38.0903 41.5665 38.0308 41.6963 37.9729C42.9795 37.1628 43.4123 35.7368 43.1745 34.3374ZM44.0594 35.7182C44.8807 36.6694 45.8241 36.9826 46.8388 36.967L46.8386 36.967C46.3283 37.4366 45.8925 37.9699 45.711 38.4368C45.642 38.6138 45.622 38.9377 45.6216 39.2956C45.4897 38.9981 45.3354 38.6852 45.1729 38.4262C44.9878 38.1305 44.7831 37.8987 44.5919 37.7791C44.2229 37.5487 43.8174 37.474 43.4079 37.4929C43.761 36.9587 43.975 36.3531 44.0594 35.7182Z" fill="#4ADE80"/>
</g>
<g clip-path="url(#clip4_83_10637)">
<path fill-rule="evenodd" clip-rule="evenodd" d="M4.17451 83.3374C4.11 83.1962 4.05208 83.0551 4.0008 82.9122C3.92379 82.6979 3.8759 82.474 3.81069 82.2565C3.78294 82.1643 3.70685 81.9248 3.70199 81.8887C3.66124 81.5739 3.89407 81.4617 3.96358 81.4342C3.99696 81.4199 4.34267 81.2845 4.52546 81.6592C4.74928 82.1172 4.90989 82.5957 5.00422 83.0812C5.19068 83.4656 5.432 83.8334 5.70576 84.1516C6.79494 85.4172 8.16631 85.2011 9.60756 84.8007C9.82887 84.7378 10.0601 84.8627 10.1309 85.0805C10.2022 85.2999 10.0884 85.5369 9.87251 85.6161C9.08582 85.9105 7.82651 86.9421 7.51178 87.7491C7.44598 87.9181 7.47692 88.2747 7.48665 88.6298C7.49953 89.123 7.48999 89.6168 7.39331 89.8492C7.37907 89.885 7.19041 90.2631 7.12172 90.3295C6.95623 90.4878 6.78449 90.4679 6.68118 90.4351C6.57786 90.4023 6.44824 90.3178 6.35899 90.1441C6.26569 89.9626 6.19499 89.5579 6.16582 89.475C6.05991 89.1741 5.83694 88.5877 5.57273 88.1032C5.43038 87.8423 5.28933 87.6042 5.13583 87.5082C4.56759 87.1532 3.88048 87.4121 3.30703 87.6494C3.241 87.676 3.17542 87.7043 3.10956 87.7308C2.88673 87.8671 2.64405 87.989 2.38098 88.0933C1.98385 88.2514 1.81542 87.8924 1.8051 87.8685C1.78277 87.8158 1.67873 87.5411 1.95752 87.3453C1.98812 87.3247 2.22221 87.2032 2.31225 87.1559C2.43776 87.0903 2.56654 87.0308 2.69627 86.9729C3.97949 86.1628 4.41225 84.7368 4.17451 83.3374ZM5.05945 84.7182C5.88068 85.6694 6.82414 85.9826 7.8388 85.967L7.83864 85.967C7.32831 86.4366 6.89254 86.9699 6.71098 87.4368C6.64197 87.6138 6.62198 87.9377 6.62158 88.2956C6.48971 87.9981 6.33539 87.6852 6.17289 87.4262C5.98775 87.1305 5.78309 86.8987 5.5919 86.7791C5.22294 86.5487 4.8174 86.474 4.40793 86.4929C4.76102 85.9587 4.97504 85.3531 5.05945 84.7182Z" fill="#5EC3D7"/>
</g>
<g clip-path="url(#clip5_83_10637)">
<path fill-rule="evenodd" clip-rule="evenodd" d="M251.674 76.937C251.617 76.8128 251.566 76.6887 251.521 76.5629C251.453 76.3743 251.411 76.1773 251.354 75.9859C251.329 75.9047 251.262 75.694 251.258 75.6622C251.222 75.3852 251.427 75.2864 251.488 75.2622C251.518 75.2497 251.822 75.1306 251.983 75.4602C252.18 75.8633 252.321 76.2843 252.404 76.7116C252.568 77.0498 252.78 77.3736 253.021 77.6536C253.98 78.7673 255.187 78.5771 256.455 78.2247C256.65 78.1694 256.853 78.2793 256.915 78.471C256.978 78.6641 256.878 78.8726 256.688 78.9423C255.996 79.2014 254.888 80.1092 254.611 80.8193C254.553 80.968 254.58 81.2818 254.588 81.5943C254.6 82.0283 254.591 82.4629 254.506 82.6674C254.494 82.6989 254.328 83.0316 254.267 83.0901C254.122 83.2294 253.971 83.2119 253.88 83.183C253.789 83.1541 253.675 83.0797 253.596 82.9269C253.514 82.7672 253.452 82.4111 253.426 82.3381C253.333 82.0733 253.137 81.5573 252.904 81.1309C252.779 80.9013 252.655 80.6918 252.52 80.6074C252.02 80.295 251.415 80.5228 250.91 80.7316C250.852 80.755 250.795 80.7799 250.737 80.8032C250.541 80.9231 250.327 81.0305 250.096 81.1222C249.746 81.2613 249.598 80.9455 249.589 80.9244C249.569 80.878 249.478 80.6362 249.723 80.464C249.75 80.4458 249.956 80.3389 250.035 80.2973C250.145 80.2395 250.259 80.1873 250.373 80.1363C251.502 79.4234 251.883 78.1685 251.674 76.937ZM252.453 78.1522C253.175 78.9892 254.005 79.2648 254.898 79.2511L254.898 79.2511C254.449 79.6644 254.066 80.1336 253.906 80.5445C253.845 80.7002 253.828 80.9853 253.827 81.3002C253.711 81.0384 253.575 80.7631 253.432 80.5351C253.269 80.2749 253.089 80.071 252.921 79.9657C252.596 79.763 252.24 79.6972 251.879 79.7139C252.19 79.2438 252.378 78.7109 252.453 78.1522Z" fill="#E5E7EB"/>
</g>
<circle cx="100" cy="36" r="2.5" stroke="#E5E7EB"/>
<circle opacity="0.5" cx="119" cy="2" r="1.5" stroke="#E5E7EB"/>
<defs>
<clipPath id="clip0_83_10637">
<rect width="22.2734" height="22.2734" fill="white" transform="translate(197.188 53.6543) rotate(-15)"/>
</clipPath>
<clipPath id="clip1_83_10637">
<rect width="11.0587" height="11.0587" fill="white" transform="translate(177.984 9.00439) rotate(-15)"/>
</clipPath>
<clipPath id="clip2_83_10637">
<rect width="9.62799" height="9.62799" fill="white" transform="translate(64 67.4917) rotate(-15)"/>
</clipPath>
<clipPath id="clip3_83_10637">
<rect width="9.62799" height="9.62799" fill="white" transform="translate(39 33.4917) rotate(-15)"/>
</clipPath>
<clipPath id="clip4_83_10637">
<rect width="9.62799" height="9.62799" fill="white" transform="translate(0 82.4917) rotate(-15)"/>
</clipPath>
<clipPath id="clip5_83_10637">
<rect width="8.47256" height="8.47256" fill="white" transform="translate(248 76.1929) rotate(-15)"/>
</clipPath>
</defs>
</svg>
