<svg xmlns="http://www.w3.org/2000/svg" width="14" height="18" viewBox="0 0 14 18" fill="none">
  <path d="M11.167 8.16667H2.83366C1.91318 8.16667 1.16699 8.91286 1.16699 9.83334V14.8333C1.16699 15.7538 1.91318 16.5 2.83366 16.5H11.167C12.0875 16.5 12.8337 15.7538 12.8337 14.8333V9.83334C12.8337 8.91286 12.0875 8.16667 11.167 8.16667Z" stroke="#D0624C" stroke-width="1.5" stroke-linecap="round" stroke-linejoin="round"/>
  <path d="M7.00033 13.1667C7.46056 13.1667 7.83366 12.7936 7.83366 12.3333C7.83366 11.8731 7.46056 11.5 7.00033 11.5C6.54009 11.5 6.16699 11.8731 6.16699 12.3333C6.16699 12.7936 6.54009 13.1667 7.00033 13.1667Z" stroke="#D0624C" stroke-width="1.5" stroke-linecap="round" stroke-linejoin="round"/>
  <path d="M3.66699 8.16667V4.83333C3.66699 3.94928 4.01818 3.10143 4.6433 2.47631C5.26842 1.85119 6.11627 1.5 7.00033 1.5C7.88438 1.5 8.73223 1.85119 9.35735 2.47631C9.98247 3.10143 10.3337 3.94928 10.3337 4.83333V8.16667" stroke="#D0624C" stroke-width="1.5" stroke-linecap="round" stroke-linejoin="round"/>
</svg>