<svg width="12" height="17" viewBox="0 0 12 17" fill="none" xmlns="http://www.w3.org/2000/svg">
<path d="M6 7.66667C7.84095 7.66667 9.33333 6.17428 9.33333 4.33333C9.33333 2.49238 7.84095 1 6 1C4.15905 1 2.66667 2.49238 2.66667 4.33333C2.66667 6.17428 4.15905 7.66667 6 7.66667Z" stroke="#94A3B8" stroke-width="2" stroke-linecap="round" stroke-linejoin="round"/>
<path d="M1 16V14.3333C1 13.4493 1.35119 12.6014 1.97631 11.9763C2.60143 11.3512 3.44928 11 4.33333 11H7.66667C8.55072 11 9.39857 11.3512 10.0237 11.9763C10.6488 12.6014 11 13.4493 11 14.3333V16" stroke="#94A3B8" stroke-width="2" stroke-linecap="round" stroke-linejoin="round"/>
<path d="M0 16C0 15.4477 0.447715 15 1 15H11C11.5523 15 12 15.4477 12 16V16C12 16.5523 11.5523 17 11 17H1C0.447715 17 0 16.5523 0 16V16Z" fill="#94A3B8"/>
</svg>
