<svg xmlns="http://www.w3.org/2000/svg" width="20" height="20" viewBox="0 0 20 20" fill="none">
  <path d="M1.66699 3.3275C1.66852 3.10865 1.75608 2.89918 1.91075 2.74435C2.06543 2.58951 2.27481 2.50175 2.49366 2.5H17.507C17.9637 2.5 18.3337 2.87083 18.3337 3.3275V16.6725C18.3321 16.8914 18.2446 17.1008 18.0899 17.2557C17.9352 17.4105 17.7258 17.4983 17.507 17.5H2.49366C2.27434 17.4998 2.06407 17.4125 1.90907 17.2573C1.75406 17.1022 1.66699 16.8918 1.66699 16.6725V3.3275ZM3.33366 4.16667V15.8333H16.667V4.16667H3.33366ZM5.00033 5.83333H10.0003V10.8333H5.00033V5.83333ZM6.66699 7.5V9.16667H8.33366V7.5H6.66699ZM5.00033 12.5H15.0003V14.1667H5.00033V12.5ZM11.667 5.83333H15.0003V7.5H11.667V5.83333ZM11.667 9.16667H15.0003V10.8333H11.667V9.16667Z" fill="#F91E5A"/>
</svg>