<svg xmlns="http://www.w3.org/2000/svg" width="32" height="32" viewBox="0 0 32 32" fill="none">
  <path d="M16.4775 24.7964C16.1853 24.6418 15.8355 24.6417 15.5432 24.796L8.73967 28.3864C8.00625 28.7734 7.14754 28.151 7.28724 27.3335L8.58874 19.718C8.64408 19.3942 8.53685 19.0638 8.30188 18.8343L2.78036 13.4395C2.18796 12.8607 2.51566 11.8539 3.33525 11.7346L10.9466 10.6274C11.2728 10.58 11.5546 10.3748 11.7 10.079L15.1028 3.15841C15.4691 2.41339 16.5312 2.41338 16.8976 3.15841L20.3003 10.079C20.4457 10.3748 20.7276 10.58 21.0537 10.6274L28.6651 11.7346C29.4847 11.8539 29.8124 12.8607 29.22 13.4395L23.6984 18.8343C23.4635 19.0638 23.3562 19.3942 23.4116 19.718L24.7127 27.3312C24.8525 28.149 23.9929 28.7715 23.2594 28.3836L16.4775 24.7964Z" fill="#D0624C"/>
</svg>