<svg width="327" height="134" viewBox="0 0 327 134" fill="none" xmlns="http://www.w3.org/2000/svg">
<rect x="1" y="1" width="325" height="132" rx="11" stroke="#E3E7EC" stroke-width="2" stroke-dasharray="4 4"/>
<path fill-rule="evenodd" clip-rule="evenodd" d="M170.423 35.5H170.51C171.199 35.5001 171.88 35.636 172.516 35.9C173.152 36.1639 173.729 36.5507 174.215 37.0382C175.198 38.0234 175.75 39.3583 175.75 40.75C175.75 42.1417 175.198 43.4765 174.215 44.4617C173.729 44.9492 173.152 45.336 172.516 45.6C171.88 45.8639 171.199 45.9999 170.51 46H167.019V44.25H170.51C171.412 44.2097 172.262 43.8233 172.886 43.1713C173.509 42.5194 173.857 41.6521 173.857 40.75C173.857 39.8479 173.509 38.9806 172.886 38.3286C172.262 37.6767 171.412 37.2903 170.51 37.25H168.911L168.696 35.7502C168.564 34.8106 168.13 33.9395 167.458 33.2693C166.787 32.5991 165.915 32.1663 164.975 32.0367C164.035 31.9083 163.078 32.0919 162.252 32.5594C161.426 33.027 160.776 33.7526 160.402 34.625L159.82 35.9585L158.404 35.6277C158.08 35.5475 157.749 35.5046 157.415 35.5C156.257 35.5 155.145 35.9602 154.328 36.781C153.719 37.3934 153.305 38.1722 153.137 39.0195C152.969 39.8667 153.056 40.7447 153.386 41.5429C153.716 42.3411 154.274 43.024 154.991 43.5056C155.708 43.9873 156.551 44.2463 157.415 44.25H161.78V46H157.415C156.548 46.0078 155.69 45.8308 154.897 45.4807C154.104 45.1307 153.395 44.6157 152.816 43.97C151.942 42.9961 151.402 41.7679 151.276 40.4652C151.15 39.1624 151.444 37.8536 152.116 36.7302C152.561 35.986 153.159 35.3448 153.87 34.8491C154.582 34.3534 155.39 34.0146 156.243 33.855C157.093 33.6975 157.97 33.7202 158.812 33.9267C159.342 32.7123 160.254 31.7035 161.408 31.0531C162.563 30.4027 163.898 30.146 165.211 30.3217C166.525 30.4996 167.746 31.1015 168.686 32.0362C169.627 32.9709 170.237 34.1871 170.423 35.5ZM167.513 42.2427L165.213 39.945V49.458H163.474V40.008L161.237 42.2445L160 41.0055L163.755 37.25H164.994L168.75 41.0055L167.513 42.2427Z" fill="#64748B"/>
<path d="M96.9447 81V72.2727H102.357V73.4062H98.2615V76.0653H101.969V77.1946H98.2615V81H96.9447ZM106.45 81.1321C105.837 81.1321 105.301 80.9915 104.844 80.7102C104.386 80.429 104.031 80.0355 103.778 79.5298C103.526 79.0241 103.399 78.4332 103.399 77.7571C103.399 77.0781 103.526 76.4844 103.778 75.9759C104.031 75.4673 104.386 75.0724 104.844 74.7912C105.301 74.5099 105.837 74.3693 106.45 74.3693C107.064 74.3693 107.6 74.5099 108.057 74.7912C108.514 75.0724 108.869 75.4673 109.122 75.9759C109.375 76.4844 109.501 77.0781 109.501 77.7571C109.501 78.4332 109.375 79.0241 109.122 79.5298C108.869 80.0355 108.514 80.429 108.057 80.7102C107.6 80.9915 107.064 81.1321 106.45 81.1321ZM106.455 80.0625C106.852 80.0625 107.182 79.9574 107.443 79.7472C107.705 79.5369 107.898 79.2571 108.023 78.9077C108.151 78.5582 108.215 78.1733 108.215 77.7528C108.215 77.3352 108.151 76.9517 108.023 76.6023C107.898 76.25 107.705 75.9673 107.443 75.7543C107.182 75.5412 106.852 75.4347 106.455 75.4347C106.054 75.4347 105.722 75.5412 105.457 75.7543C105.196 75.9673 105.001 76.25 104.874 76.6023C104.749 76.9517 104.686 77.3352 104.686 77.7528C104.686 78.1733 104.749 78.5582 104.874 78.9077C105.001 79.2571 105.196 79.5369 105.457 79.7472C105.722 79.9574 106.054 80.0625 106.455 80.0625ZM111.224 81V74.4545H112.455V75.4943H112.523C112.643 75.142 112.853 74.8651 113.154 74.6634C113.458 74.4588 113.802 74.3565 114.185 74.3565C114.265 74.3565 114.359 74.3594 114.467 74.3651C114.577 74.3707 114.664 74.3778 114.727 74.3864V75.6051C114.675 75.5909 114.585 75.5753 114.454 75.5582C114.323 75.5384 114.192 75.5284 114.062 75.5284C113.761 75.5284 113.492 75.5923 113.256 75.7202C113.023 75.8452 112.839 76.0199 112.702 76.2443C112.566 76.4659 112.498 76.7187 112.498 77.0028V81H111.224ZM116.129 81V74.4545H117.352V75.5199H117.433C117.57 75.1591 117.793 74.8778 118.102 74.6761C118.412 74.4716 118.783 74.3693 119.214 74.3693C119.652 74.3693 120.018 74.4716 120.314 74.6761C120.612 74.8807 120.832 75.1619 120.974 75.5199H121.043C121.199 75.1705 121.447 74.892 121.788 74.6847C122.129 74.4744 122.535 74.3693 123.007 74.3693C123.601 74.3693 124.085 74.5554 124.46 74.9276C124.838 75.2997 125.027 75.8608 125.027 76.6108V81H123.753V76.7301C123.753 76.2869 123.632 75.9659 123.391 75.767C123.149 75.5682 122.861 75.4688 122.525 75.4688C122.111 75.4688 121.788 75.5966 121.558 75.8523C121.328 76.1051 121.213 76.4304 121.213 76.8281V81H119.943V76.6491C119.943 76.294 119.832 76.0085 119.611 75.7926C119.389 75.5767 119.101 75.4688 118.746 75.4688C118.504 75.4688 118.281 75.5327 118.077 75.6605C117.875 75.7855 117.712 75.9602 117.587 76.1847C117.464 76.4091 117.403 76.669 117.403 76.9645V81H116.129ZM128.939 81.1449C128.525 81.1449 128.15 81.0682 127.814 80.9148C127.479 80.7585 127.214 80.5327 127.018 80.2372C126.824 79.9418 126.728 79.5795 126.728 79.1506C126.728 78.7812 126.799 78.4773 126.941 78.2386C127.083 78 127.275 77.8111 127.516 77.6719C127.758 77.5327 128.028 77.4276 128.326 77.3565C128.624 77.2855 128.928 77.2315 129.238 77.1946C129.63 77.1491 129.948 77.1122 130.192 77.0838C130.437 77.0526 130.614 77.0028 130.725 76.9347C130.836 76.8665 130.891 76.7557 130.891 76.6023V76.5724C130.891 76.2003 130.786 75.9119 130.576 75.7074C130.368 75.5028 130.059 75.4006 129.647 75.4006C129.218 75.4006 128.88 75.4957 128.633 75.6861C128.388 75.8736 128.219 76.0824 128.126 76.3125L126.928 76.0398C127.07 75.642 127.278 75.321 127.55 75.0767C127.826 74.8295 128.143 74.6506 128.501 74.5398C128.859 74.4261 129.235 74.3693 129.63 74.3693C129.891 74.3693 130.168 74.4006 130.461 74.4631C130.756 74.5227 131.032 74.6335 131.288 74.7955C131.546 74.9574 131.758 75.1889 131.922 75.4901C132.087 75.7884 132.17 76.1761 132.17 76.6534V81H130.925V80.1051H130.874C130.792 80.2699 130.668 80.4318 130.503 80.5909C130.339 80.75 130.127 80.8821 129.868 80.9872C129.61 81.0923 129.3 81.1449 128.939 81.1449ZM129.216 80.1222C129.569 80.1222 129.87 80.0526 130.12 79.9134C130.373 79.7741 130.564 79.5923 130.695 79.3679C130.829 79.1406 130.895 78.8977 130.895 78.6392V77.7955C130.85 77.8409 130.762 77.8835 130.631 77.9233C130.503 77.9602 130.357 77.9929 130.192 78.0213C130.028 78.0469 129.867 78.071 129.711 78.0938C129.555 78.1136 129.424 78.1307 129.319 78.1449C129.072 78.1761 128.846 78.2287 128.641 78.3026C128.439 78.3764 128.278 78.483 128.155 78.6222C128.036 78.7585 127.976 78.9403 127.976 79.1676C127.976 79.483 128.093 79.7216 128.326 79.8835C128.559 80.0426 128.856 80.1222 129.216 80.1222ZM137.222 74.4545V75.4773H133.647V74.4545H137.222ZM134.606 72.8864H135.88V79.0781C135.88 79.3253 135.917 79.5114 135.991 79.6364C136.064 79.7585 136.16 79.8423 136.276 79.8878C136.395 79.9304 136.525 79.9517 136.664 79.9517C136.766 79.9517 136.856 79.9446 136.932 79.9304C137.009 79.9162 137.069 79.9048 137.111 79.8963L137.341 80.9489C137.268 80.9773 137.162 81.0057 137.026 81.0341C136.89 81.0653 136.719 81.0824 136.515 81.0852C136.179 81.0909 135.867 81.0312 135.577 80.9062C135.287 80.7812 135.053 80.5881 134.874 80.3267C134.695 80.0653 134.606 79.7372 134.606 79.3423V72.8864ZM145.335 81H142.51V72.2727H145.424C146.279 72.2727 147.014 72.4474 147.627 72.7969C148.241 73.1435 148.711 73.642 149.038 74.2926C149.368 74.9403 149.532 75.7173 149.532 76.6236C149.532 77.5327 149.366 78.3139 149.034 78.9673C148.704 79.6207 148.227 80.1236 147.602 80.4759C146.977 80.8253 146.221 81 145.335 81ZM143.826 79.8494H145.262C145.927 79.8494 146.48 79.7244 146.92 79.4744C147.36 79.2216 147.69 78.8565 147.909 78.3793C148.127 77.8991 148.237 77.3139 148.237 76.6236C148.237 75.9389 148.127 75.358 147.909 74.8807C147.693 74.4034 147.37 74.0412 146.941 73.794C146.512 73.5469 145.98 73.4233 145.343 73.4233H143.826V79.8494ZM159.051 76.6364C159.051 77.5682 158.88 78.3693 158.539 79.0398C158.198 79.7074 157.731 80.2216 157.137 80.5824C156.546 80.9403 155.875 81.1193 155.122 81.1193C154.366 81.1193 153.691 80.9403 153.098 80.5824C152.507 80.2216 152.041 79.706 151.7 79.0355C151.359 78.3651 151.188 77.5653 151.188 76.6364C151.188 75.7045 151.359 74.9048 151.7 74.2372C152.041 73.5668 152.507 73.0526 153.098 72.6946C153.691 72.3338 154.366 72.1534 155.122 72.1534C155.875 72.1534 156.546 72.3338 157.137 72.6946C157.731 73.0526 158.198 73.5668 158.539 74.2372C158.88 74.9048 159.051 75.7045 159.051 76.6364ZM157.747 76.6364C157.747 75.9261 157.632 75.3281 157.402 74.8423C157.174 74.3537 156.862 73.9844 156.464 73.7344C156.069 73.4815 155.622 73.3551 155.122 73.3551C154.619 73.3551 154.17 73.4815 153.775 73.7344C153.38 73.9844 153.068 74.3537 152.838 74.8423C152.61 75.3281 152.497 75.9261 152.497 76.6364C152.497 77.3466 152.61 77.946 152.838 78.4347C153.068 78.9205 153.38 79.2898 153.775 79.5426C154.17 79.7926 154.619 79.9176 155.122 79.9176C155.622 79.9176 156.069 79.7926 156.464 79.5426C156.862 79.2898 157.174 78.9205 157.402 78.4347C157.632 77.946 157.747 77.3466 157.747 76.6364ZM168.241 75.1108H166.911C166.86 74.8267 166.765 74.5767 166.626 74.3608C166.487 74.1449 166.316 73.9616 166.115 73.8111C165.913 73.6605 165.687 73.5469 165.437 73.4702C165.19 73.3935 164.927 73.3551 164.649 73.3551C164.146 73.3551 163.696 73.4815 163.298 73.7344C162.903 73.9872 162.59 74.358 162.36 74.8466C162.133 75.3352 162.019 75.9318 162.019 76.6364C162.019 77.3466 162.133 77.946 162.36 78.4347C162.59 78.9233 162.904 79.2926 163.302 79.5426C163.7 79.7926 164.147 79.9176 164.644 79.9176C164.92 79.9176 165.181 79.8807 165.428 79.8068C165.678 79.7301 165.904 79.6179 166.106 79.4702C166.308 79.3224 166.478 79.142 166.617 78.929C166.759 78.7131 166.857 78.4659 166.911 78.1875L168.241 78.1918C168.17 78.6207 168.032 79.0156 167.828 79.3764C167.626 79.7344 167.366 80.044 167.048 80.3054C166.732 80.5639 166.372 80.7642 165.965 80.9062C165.559 81.0483 165.116 81.1193 164.636 81.1193C163.88 81.1193 163.207 80.9403 162.616 80.5824C162.025 80.2216 161.559 79.706 161.218 79.0355C160.88 78.3651 160.711 77.5653 160.711 76.6364C160.711 75.7045 160.882 74.9048 161.223 74.2372C161.563 73.5668 162.029 73.0526 162.62 72.6946C163.211 72.3338 163.883 72.1534 164.636 72.1534C165.099 72.1534 165.531 72.2202 165.931 72.3537C166.335 72.4844 166.697 72.6776 167.018 72.9332C167.339 73.1861 167.605 73.4957 167.815 73.8622C168.025 74.2259 168.167 74.642 168.241 75.1108ZM171.672 79.8068L171.608 80.2713C171.565 80.6122 171.493 80.9673 171.391 81.3366C171.291 81.7088 171.188 82.054 171.08 82.3722C170.975 82.6903 170.888 82.9432 170.82 83.1307H169.916C169.953 82.9545 170.004 82.7159 170.07 82.4148C170.135 82.1165 170.199 81.7827 170.262 81.4134C170.324 81.044 170.371 80.6676 170.402 80.2841L170.445 79.8068H171.672ZM177.209 81V72.2727H180.32C180.999 72.2727 181.561 72.3963 182.007 72.6435C182.453 72.8906 182.787 73.2287 183.009 73.6577C183.23 74.0838 183.341 74.5639 183.341 75.098C183.341 75.6349 183.229 76.1179 183.004 76.5469C182.783 76.973 182.447 77.3111 181.999 77.5611C181.553 77.8082 180.991 77.9318 180.315 77.9318H178.176V76.8153H180.196C180.625 76.8153 180.973 76.7415 181.24 76.5938C181.507 76.4432 181.703 76.2386 181.828 75.9801C181.953 75.7216 182.016 75.4276 182.016 75.098C182.016 74.7685 181.953 74.4759 181.828 74.2202C181.703 73.9645 181.506 73.7642 181.236 73.6193C180.969 73.4744 180.616 73.402 180.179 73.402H178.526V81H177.209ZM188.01 81H185.185V72.2727H188.099C188.954 72.2727 189.689 72.4474 190.302 72.7969C190.916 73.1435 191.386 73.642 191.713 74.2926C192.043 74.9403 192.207 75.7173 192.207 76.6236C192.207 77.5327 192.041 78.3139 191.709 78.9673C191.379 79.6207 190.902 80.1236 190.277 80.4759C189.652 80.8253 188.896 81 188.01 81ZM186.501 79.8494H187.937C188.602 79.8494 189.155 79.7244 189.595 79.4744C190.035 79.2216 190.365 78.8565 190.584 78.3793C190.802 77.8991 190.912 77.3139 190.912 76.6236C190.912 75.9389 190.802 75.358 190.584 74.8807C190.368 74.4034 190.045 74.0412 189.616 73.794C189.187 73.5469 188.655 73.4233 188.018 73.4233H186.501V79.8494ZM194.145 81V72.2727H199.557V73.4062H195.462V76.0653H199.169V77.1946H195.462V81H194.145ZM202.551 79.8068L202.487 80.2713C202.444 80.6122 202.372 80.9673 202.27 81.3366C202.17 81.7088 202.067 82.054 201.959 82.3722C201.853 82.6903 201.767 82.9432 201.699 83.1307H200.795C200.832 82.9545 200.883 82.7159 200.949 82.4148C201.014 82.1165 201.078 81.7827 201.14 81.4134C201.203 81.044 201.25 80.6676 201.281 80.2841L201.324 79.8068H202.551ZM211.48 72.2727H212.792V78.4602C212.792 79.0199 212.681 79.4986 212.46 79.8963C212.241 80.294 211.933 80.598 211.535 80.8082C211.137 81.0156 210.672 81.1193 210.137 81.1193C209.646 81.1193 209.204 81.0298 208.812 80.8509C208.423 80.6719 208.115 80.4119 207.887 80.071C207.663 79.7273 207.551 79.3097 207.551 78.8182H208.859C208.859 79.0597 208.914 79.2685 209.025 79.4446C209.139 79.6207 209.294 79.7585 209.49 79.858C209.689 79.9545 209.916 80.0028 210.172 80.0028C210.45 80.0028 210.686 79.9446 210.879 79.8281C211.075 79.7088 211.224 79.5341 211.326 79.304C211.429 79.0739 211.48 78.7926 211.48 78.4602V72.2727ZM215.009 81V72.2727H218.12C218.799 72.2727 219.361 72.3963 219.807 72.6435C220.253 72.8906 220.587 73.2287 220.809 73.6577C221.03 74.0838 221.141 74.5639 221.141 75.098C221.141 75.6349 221.029 76.1179 220.804 76.5469C220.583 76.973 220.247 77.3111 219.799 77.5611C219.353 77.8082 218.791 77.9318 218.115 77.9318H215.976V76.8153H217.996C218.425 76.8153 218.773 76.7415 219.04 76.5938C219.307 76.4432 219.503 76.2386 219.628 75.9801C219.753 75.7216 219.816 75.4276 219.816 75.098C219.816 74.7685 219.753 74.4759 219.628 74.2202C219.503 73.9645 219.306 73.7642 219.036 73.6193C218.769 73.4744 218.416 73.402 217.979 73.402H216.326V81H215.009ZM228.891 75.0298C228.808 74.7713 228.698 74.5398 228.558 74.3352C228.422 74.1278 228.259 73.9517 228.068 73.8068C227.878 73.6591 227.661 73.5469 227.416 73.4702C227.175 73.3935 226.909 73.3551 226.62 73.3551C226.128 73.3551 225.685 73.4815 225.29 73.7344C224.895 73.9872 224.583 74.358 224.352 74.8466C224.125 75.3324 224.012 75.9276 224.012 76.6321C224.012 77.3395 224.127 77.9375 224.357 78.4261C224.587 78.9148 224.902 79.2855 225.303 79.5384C225.703 79.7912 226.159 79.9176 226.671 79.9176C227.145 79.9176 227.558 79.821 227.911 79.6278C228.266 79.4347 228.54 79.1619 228.733 78.8097C228.929 78.4545 229.027 78.0369 229.027 77.5568L229.368 77.6207H226.871V76.5341H230.301V77.527C230.301 78.2599 230.145 78.8963 229.833 79.4361C229.523 79.973 229.094 80.3878 228.546 80.6804C228 80.973 227.375 81.1193 226.671 81.1193C225.881 81.1193 225.188 80.9375 224.591 80.5739C223.997 80.2102 223.534 79.6946 223.202 79.027C222.87 78.3565 222.703 77.5611 222.703 76.6406C222.703 75.9446 222.8 75.3196 222.993 74.7656C223.186 74.2116 223.458 73.7415 223.807 73.3551C224.159 72.9659 224.573 72.669 225.047 72.4645C225.524 72.2571 226.046 72.1534 226.611 72.1534C227.083 72.1534 227.522 72.223 227.928 72.3622C228.337 72.5014 228.7 72.6989 229.019 72.9545C229.34 73.2102 229.605 73.5142 229.816 73.8665C230.026 74.2159 230.168 74.6037 230.242 75.0298H228.891Z" fill="#64748B"/>
<path d="M127.367 105V96.2727H130.708C131.339 96.2727 131.863 96.3722 132.28 96.571C132.701 96.767 133.015 97.0355 133.222 97.3764C133.432 97.7173 133.537 98.1037 133.537 98.5355C133.537 98.8906 133.469 99.1946 133.333 99.4474C133.197 99.6974 133.013 99.9006 132.783 100.057C132.553 100.213 132.296 100.325 132.012 100.393V100.479C132.322 100.496 132.618 100.591 132.903 100.764C133.189 100.935 133.424 101.176 133.606 101.489C133.787 101.801 133.878 102.179 133.878 102.622C133.878 103.074 133.769 103.48 133.55 103.841C133.332 104.199 133.002 104.482 132.562 104.689C132.121 104.896 131.567 105 130.9 105H127.367ZM128.948 103.679H130.648C131.222 103.679 131.636 103.57 131.888 103.351C132.144 103.129 132.272 102.845 132.272 102.499C132.272 102.24 132.208 102.007 132.08 101.8C131.952 101.589 131.77 101.425 131.535 101.305C131.299 101.183 131.018 101.122 130.691 101.122H128.948V103.679ZM128.948 99.9844H130.512C130.785 99.9844 131.03 99.9347 131.249 99.8352C131.468 99.733 131.64 99.5895 131.765 99.4048C131.893 99.2173 131.957 98.9957 131.957 98.7401C131.957 98.402 131.837 98.1236 131.599 97.9048C131.363 97.6861 131.012 97.5767 130.546 97.5767H128.948V99.9844ZM135.486 105V98.4545H136.981V99.5455H137.05C137.169 99.1676 137.373 98.8764 137.663 98.6719C137.956 98.4645 138.29 98.3608 138.665 98.3608C138.75 98.3608 138.845 98.3651 138.95 98.3736C139.058 98.3793 139.148 98.3892 139.219 98.4034V99.8224C139.153 99.7997 139.05 99.7798 138.907 99.7628C138.768 99.7429 138.633 99.733 138.503 99.733C138.221 99.733 137.969 99.794 137.744 99.9162C137.523 100.036 137.348 100.202 137.22 100.415C137.092 100.628 137.028 100.874 137.028 101.152V105H135.486ZM143.129 105.128C142.49 105.128 141.936 104.987 141.467 104.706C140.998 104.425 140.635 104.031 140.376 103.526C140.12 103.02 139.993 102.429 139.993 101.753C139.993 101.077 140.12 100.484 140.376 99.9759C140.635 99.4673 140.998 99.0724 141.467 98.7912C141.936 98.5099 142.49 98.3693 143.129 98.3693C143.768 98.3693 144.322 98.5099 144.791 98.7912C145.26 99.0724 145.622 99.4673 145.878 99.9759C146.136 100.484 146.265 101.077 146.265 101.753C146.265 102.429 146.136 103.02 145.878 103.526C145.622 104.031 145.26 104.425 144.791 104.706C144.322 104.987 143.768 105.128 143.129 105.128ZM143.137 103.892C143.484 103.892 143.774 103.797 144.007 103.607C144.24 103.413 144.413 103.155 144.527 102.831C144.643 102.507 144.701 102.146 144.701 101.749C144.701 101.348 144.643 100.986 144.527 100.662C144.413 100.335 144.24 100.075 144.007 99.8821C143.774 99.6889 143.484 99.5923 143.137 99.5923C142.782 99.5923 142.487 99.6889 142.251 99.8821C142.018 100.075 141.843 100.335 141.727 100.662C141.613 100.986 141.557 101.348 141.557 101.749C141.557 102.146 141.613 102.507 141.727 102.831C141.843 103.155 142.018 103.413 142.251 103.607C142.487 103.797 142.782 103.892 143.137 103.892ZM149.038 105L147.189 98.4545H148.761L149.912 103.057H149.971L151.147 98.4545H152.703L153.879 103.031H153.943L155.076 98.4545H156.653L154.799 105H153.193L151.966 100.577H151.876L150.649 105H149.038ZM163.203 100.185L161.797 100.338C161.757 100.196 161.688 100.062 161.588 99.9375C161.492 99.8125 161.361 99.7116 161.196 99.6349C161.032 99.5582 160.83 99.5199 160.591 99.5199C160.27 99.5199 160 99.5895 159.782 99.7287C159.566 99.8679 159.459 100.048 159.462 100.27C159.459 100.46 159.529 100.615 159.671 100.734C159.816 100.854 160.054 100.952 160.387 101.028L161.503 101.267C162.122 101.401 162.583 101.612 162.884 101.902C163.188 102.192 163.341 102.571 163.344 103.04C163.341 103.452 163.22 103.815 162.982 104.131C162.746 104.443 162.418 104.687 161.997 104.864C161.577 105.04 161.094 105.128 160.549 105.128C159.747 105.128 159.103 104.96 158.614 104.625C158.125 104.287 157.834 103.817 157.74 103.214L159.245 103.07C159.313 103.365 159.458 103.588 159.679 103.739C159.901 103.889 160.189 103.964 160.544 103.964C160.911 103.964 161.205 103.889 161.426 103.739C161.651 103.588 161.763 103.402 161.763 103.18C161.763 102.993 161.691 102.838 161.546 102.716C161.404 102.594 161.182 102.5 160.881 102.435L159.764 102.2C159.137 102.07 158.672 101.849 158.371 101.54C158.07 101.227 157.921 100.832 157.924 100.355C157.921 99.9517 158.03 99.6023 158.252 99.3068C158.476 99.0085 158.787 98.7784 159.185 98.6165C159.586 98.4517 160.047 98.3693 160.57 98.3693C161.337 98.3693 161.941 98.5327 162.381 98.8594C162.824 99.1861 163.098 99.6278 163.203 100.185ZM167.814 105.128C167.158 105.128 166.591 104.991 166.113 104.719C165.639 104.443 165.274 104.054 165.018 103.551C164.763 103.045 164.635 102.45 164.635 101.766C164.635 101.092 164.763 100.501 165.018 99.9929C165.277 99.4815 165.638 99.0838 166.101 98.7997C166.564 98.5128 167.108 98.3693 167.733 98.3693C168.136 98.3693 168.517 98.4347 168.875 98.5653C169.236 98.6932 169.554 98.892 169.829 99.1619C170.108 99.4318 170.327 99.7756 170.486 100.193C170.645 100.608 170.724 101.102 170.724 101.676V102.149H165.359V101.109H169.246C169.243 100.814 169.179 100.551 169.054 100.321C168.929 100.088 168.754 99.9048 168.53 99.7713C168.308 99.6378 168.05 99.571 167.754 99.571C167.439 99.571 167.162 99.6477 166.923 99.8011C166.685 99.9517 166.498 100.151 166.365 100.398C166.234 100.642 166.167 100.911 166.165 101.203V102.111C166.165 102.491 166.234 102.818 166.373 103.091C166.513 103.361 166.707 103.568 166.957 103.713C167.207 103.855 167.5 103.926 167.835 103.926C168.06 103.926 168.263 103.895 168.444 103.832C168.626 103.767 168.784 103.672 168.917 103.547C169.051 103.422 169.152 103.267 169.22 103.082L170.66 103.244C170.569 103.625 170.396 103.957 170.14 104.241C169.888 104.523 169.564 104.741 169.169 104.898C168.774 105.051 168.322 105.128 167.814 105.128ZM178.921 98.4545V99.6477H175.052V98.4545H178.921ZM176.019 105V97.8366C176.019 97.3963 176.11 97.0298 176.292 96.7372C176.477 96.4446 176.724 96.2259 177.033 96.081C177.343 95.9361 177.687 95.8636 178.065 95.8636C178.332 95.8636 178.569 95.8849 178.776 95.9276C178.984 95.9702 179.137 96.0085 179.237 96.0426L178.93 97.2358C178.864 97.2159 178.782 97.196 178.683 97.1761C178.583 97.1534 178.472 97.142 178.35 97.142C178.063 97.142 177.86 97.2116 177.741 97.3509C177.624 97.4872 177.566 97.6832 177.566 97.9389V105H176.019ZM180.429 105V98.4545H181.972V105H180.429ZM181.205 97.5256C180.961 97.5256 180.75 97.4446 180.574 97.2827C180.398 97.1179 180.31 96.9205 180.31 96.6903C180.31 96.4574 180.398 96.2599 180.574 96.098C180.75 95.9332 180.961 95.8509 181.205 95.8509C181.452 95.8509 181.662 95.9332 181.836 96.098C182.012 96.2599 182.1 96.4574 182.1 96.6903C182.1 96.9205 182.012 97.1179 181.836 97.2827C181.662 97.4446 181.452 97.5256 181.205 97.5256ZM185.401 96.2727V105H183.858V96.2727H185.401ZM190.185 105.128C189.529 105.128 188.962 104.991 188.485 104.719C188.01 104.443 187.645 104.054 187.389 103.551C187.134 103.045 187.006 102.45 187.006 101.766C187.006 101.092 187.134 100.501 187.389 99.9929C187.648 99.4815 188.009 99.0838 188.472 98.7997C188.935 98.5128 189.479 98.3693 190.104 98.3693C190.507 98.3693 190.888 98.4347 191.246 98.5653C191.607 98.6932 191.925 98.892 192.2 99.1619C192.479 99.4318 192.698 99.7756 192.857 100.193C193.016 100.608 193.095 101.102 193.095 101.676V102.149H187.73V101.109H191.617C191.614 100.814 191.55 100.551 191.425 100.321C191.3 100.088 191.125 99.9048 190.901 99.7713C190.679 99.6378 190.421 99.571 190.125 99.571C189.81 99.571 189.533 99.6477 189.294 99.8011C189.056 99.9517 188.87 100.151 188.736 100.398C188.605 100.642 188.539 100.911 188.536 101.203V102.111C188.536 102.491 188.605 102.818 188.745 103.091C188.884 103.361 189.078 103.568 189.328 103.713C189.578 103.855 189.871 103.926 190.206 103.926C190.431 103.926 190.634 103.895 190.816 103.832C190.997 103.767 191.155 103.672 191.289 103.547C191.422 103.422 191.523 103.267 191.591 103.082L193.031 103.244C192.941 103.625 192.767 103.957 192.512 104.241C192.259 104.523 191.935 104.741 191.54 104.898C191.145 105.051 190.693 105.128 190.185 105.128ZM199.874 100.185L198.467 100.338C198.428 100.196 198.358 100.062 198.259 99.9375C198.162 99.8125 198.031 99.7116 197.867 99.6349C197.702 99.5582 197.5 99.5199 197.262 99.5199C196.94 99.5199 196.671 99.5895 196.452 99.7287C196.236 99.8679 196.129 100.048 196.132 100.27C196.129 100.46 196.199 100.615 196.341 100.734C196.486 100.854 196.725 100.952 197.057 101.028L198.173 101.267C198.793 101.401 199.253 101.612 199.554 101.902C199.858 102.192 200.012 102.571 200.014 103.04C200.012 103.452 199.891 103.815 199.652 104.131C199.416 104.443 199.088 104.687 198.668 104.864C198.247 105.04 197.764 105.128 197.219 105.128C196.418 105.128 195.773 104.96 195.284 104.625C194.796 104.287 194.504 103.817 194.411 103.214L195.915 103.07C195.983 103.365 196.128 103.588 196.35 103.739C196.571 103.889 196.86 103.964 197.215 103.964C197.581 103.964 197.875 103.889 198.097 103.739C198.321 103.588 198.433 103.402 198.433 103.18C198.433 102.993 198.361 102.838 198.216 102.716C198.074 102.594 197.852 102.5 197.551 102.435L196.435 102.2C195.807 102.07 195.342 101.849 195.041 101.54C194.74 101.227 194.591 100.832 194.594 100.355C194.591 99.9517 194.7 99.6023 194.922 99.3068C195.146 99.0085 195.458 98.7784 195.855 98.6165C196.256 98.4517 196.717 98.3693 197.24 98.3693C198.007 98.3693 198.611 98.5327 199.051 98.8594C199.494 99.1861 199.769 99.6278 199.874 100.185Z" fill="#0A6375"/>
</svg>

