<svg width="20" height="20" viewBox="0 0 20 20" fill="none" xmlns="http://www.w3.org/2000/svg">
<path fill-rule="evenodd" clip-rule="evenodd" d="M2.00391 0C0.907435 0 0 0.90093 0 1.9974V17.9974C0 19.0938 0.907435 20 2.00391 20H18.0026C19.0991 20 20 19.0938 20 17.9974V1.9974C20 0.90093 19.0991 0 18.0026 0H2.00391ZM2.00391 1.32813H18.0026C18.3835 1.32813 18.6719 1.61652 18.6719 1.9974V5.33073H6.0026C5.10147 5.31813 5.10147 6.67638 6.0026 6.66406H18.6719V17.9974C18.6719 18.3782 18.3835 18.6667 18.0026 18.6667H2.00391C1.62304 18.6667 1.33333 18.3782 1.33333 17.9974V6.66406H3.33594C4.23708 6.67666 4.23708 5.31841 3.33594 5.33073H1.33333V1.9974C1.33333 1.61652 1.62304 1.32813 2.00391 1.32813ZM3.33594 2.66406C2.96774 2.66406 2.66926 2.96253 2.66927 3.33073C2.66928 3.69891 2.96775 3.9974 3.33594 3.9974C3.70412 3.9974 4.0026 3.69891 4.0026 3.33073C4.00261 2.96253 3.70413 2.66406 3.33594 2.66406ZM6.0026 2.66406C5.63441 2.66406 5.33593 2.96253 5.33594 3.33073C5.33594 3.69891 5.63442 3.9974 6.0026 3.9974C6.37079 3.9974 6.66927 3.69891 6.66927 3.33073C6.66928 2.96253 6.3708 2.66406 6.0026 2.66406ZM8.66927 2.66406C8.30108 2.66406 8.0026 2.96253 8.0026 3.33073C8.00261 3.69891 8.30108 3.9974 8.66927 3.9974C9.03746 3.9974 9.33593 3.69891 9.33594 3.33073C9.33595 2.96253 9.03747 2.66406 8.66927 2.66406ZM6.00391 9.33073C5.9151 9.32874 5.82679 9.34451 5.74416 9.37711C5.66153 9.40972 5.58625 9.45851 5.52274 9.52061C5.45922 9.58271 5.40876 9.65688 5.37431 9.73876C5.33985 9.82063 5.3221 9.90857 5.3221 9.9974C5.3221 10.0862 5.33985 10.1742 5.37431 10.256C5.40876 10.3379 5.45922 10.4121 5.52274 10.4742C5.58625 10.5363 5.66153 10.5851 5.74416 10.6177C5.82679 10.6503 5.9151 10.6661 6.00391 10.6641H14.0013C14.0901 10.6661 14.1784 10.6503 14.261 10.6177C14.3437 10.5851 14.419 10.5363 14.4825 10.4742C14.546 10.4121 14.5964 10.3379 14.6309 10.256C14.6654 10.1742 14.6831 10.0862 14.6831 9.9974C14.6831 9.90857 14.6654 9.82063 14.6309 9.73876C14.5964 9.65688 14.546 9.58271 14.4825 9.52061C14.419 9.45851 14.3437 9.40972 14.261 9.37711C14.1784 9.34451 14.0901 9.32874 14.0013 9.33073H6.00391ZM5.9349 11.9974C5.75791 12.0065 5.59181 12.0856 5.47314 12.2172C5.35446 12.3489 5.29293 12.5222 5.30208 12.6992C5.31123 12.8762 5.39032 13.0423 5.52194 13.161C5.65355 13.2797 5.82692 13.3412 6.00391 13.332H14.0013C14.1783 13.332 14.348 13.2617 14.4732 13.1366C14.5983 13.0114 14.6686 12.8417 14.6686 12.6647C14.6686 12.4877 14.5983 12.318 14.4732 12.1928C14.348 12.0677 14.1783 11.9974 14.0013 11.9974H6.00391C5.98092 11.9962 5.95788 11.9962 5.9349 11.9974ZM5.9349 14.6654C5.76085 14.6783 5.59877 14.7588 5.48335 14.8897C5.36794 15.0206 5.30837 15.1915 5.31739 15.3658C5.32641 15.5401 5.40331 15.7039 5.53162 15.8222C5.65993 15.9405 5.82946 16.0038 6.00391 15.9987H10C10.0888 16.0007 10.1771 15.9849 10.2597 15.9523C10.3424 15.9197 10.4177 15.8709 10.4812 15.8088C10.5447 15.7467 10.5951 15.6725 10.6296 15.5907C10.6641 15.5088 10.6818 15.4209 10.6818 15.332C10.6818 15.2432 10.6641 15.1553 10.6296 15.0734C10.5951 14.9915 10.5447 14.9173 10.4812 14.8552C10.4177 14.7931 10.3424 14.7444 10.2597 14.7117C10.1771 14.6791 10.0888 14.6634 10 14.6654H6.00391C5.98092 14.6642 5.95788 14.6642 5.9349 14.6654Z" fill="white"/>
</svg>
